<?xml version="1.0" encoding="utf-8"?>
<svg xmlns="http://www.w3.org/2000/svg" version="1.2" viewBox="0 0 1550 178.54">
	<title>Musical notation of an excerpt of Prelude and Fugue No. 8 in E-Flat Minor, BWV 853, by J.S. Bach.</title>
	<desc>Generated by MuseScore Studio 4.3.0</desc>
	<g fill="none" stroke="#000" stroke-linejoin="bevel" stroke-width="2.73">
		<polyline class="StaffLines" points="0 35.913 1550 35.913"/>
		<polyline class="StaffLines" points="0 60.713 1550 60.713"/>
		<polyline class="StaffLines" points="0 85.513 1550 85.513"/>
		<polyline class="StaffLines" points="0 110.31 1550 110.31"/>
		<polyline class="StaffLines" points="0 135.11 1550 135.11"/>
	</g>
	<path class="TieSegment" d="m1120.7 116.01c23.99 11.656 95.96 11.656 119.95 0-23.99 19.592-95.96 19.592-119.95 0" fill-rule="evenodd" stroke="#000" stroke-linecap="round" stroke-linejoin="round" stroke-width="1.24"/>
	<g fill="none" stroke="#000" stroke-linejoin="bevel">
		<g stroke-width="4.46">
			<polyline class="BarLine" points="1547.8 34.549 1547.8 136.48"/>
			<polyline class="BarLine" points="1193.4 34.549 1193.4 136.48"/>
			<polyline class="BarLine" points="774.51 34.549 774.51 136.48"/>
		</g>
		<g stroke-width="2.48">
			<polyline class="Stem" points="810.22 114.48 810.22 172.19"/>
			<polyline class="Stem" points="1317.7 106.34 1317.7 35.787"/>
			<polyline class="Stem" points="1376.5 118.74 1376.5 35.913"/>
			<polyline class="Stem" points="1258.9 93.945 1258.9 29.838"/>
			<polyline class="Stem" points="1134 93.945 1134 17.313"/>
			<polyline class="Stem" points="1045.8 131.14 1045.8 48.313"/>
			<polyline class="Stem" points="927.83 89.679 927.83 159.91"/>
			<polyline class="Stem" points="869.02 102.08 869.02 166.24"/>
			<polyline class="Stem" points="704.08 102.08 704.08 165.98"/>
			<polyline class="Stem" points="416.21 131.14 416.21 48.313"/>
			<polyline class="Stem" points="645.28 89.679 645.28 159.91"/>
			<polyline class="Stem" points="504.41 81.545 504.41 11.113"/>
			<polyline class="Stem" points="1464.7 131.14 1464.7 48.313"/>
			<polyline class="Stem" points="586.47 77.279 586.47 153.84"/>
		</g>
	</g>
	<g stroke-width=".992">
		<path class="Note" d="m1286.7 114.48c0 4.2625 3.069 9.021 11.114 9.021 10.308 0 21.126-8.432 21.126-17.159 0-5.859-4.96-9.1295-11.114-9.1295-9.6254 0-21.126 8.1375-21.126 17.267"/>
		<path class="Note" d="m702.84 102.08c0 4.2625 3.069 9.021 11.113 9.021 10.308 0 21.127-8.432 21.127-17.159 0-5.859-4.96-9.1295-11.113-9.1295-9.6255 0-21.127 8.1375-21.127 17.267"/>
		<path class="Note" d="m385.21 139.28c0 4.2625 3.069 9.021 11.113 9.021 10.308 0 21.127-8.432 21.127-17.159 0-5.859-4.96-9.1295-11.113-9.1295-9.6255 0-21.127 8.1375-21.127 17.267"/>
		<path class="Note" d="m1227.9 102.08c0 4.2625 3.069 9.021 11.114 9.021 10.308 0 21.126-8.432 21.126-17.159 0-5.859-4.96-9.1295-11.114-9.1295-9.6254 0-21.126 8.1375-21.126 17.267"/>
		<path class="Note" d="m473.42 89.683c0 4.2625 3.069 9.021 11.113 9.021 10.308 0 21.127-8.432 21.127-17.159 0-5.859-4.96-9.1295-11.113-9.1295-9.6255 0-21.127 8.1375-21.127 17.267"/>
		<path class="Note" d="m1433.7 139.28c0 4.2625 3.069 9.021 11.114 9.021 10.308 0 21.126-8.432 21.126-17.159 0-5.859-4.96-9.1295-11.114-9.1295-9.6254 0-21.126 8.1375-21.126 17.267"/>
		<path class="Note" d="m1103 102.08c0 4.2625 3.069 9.021 11.114 9.021 10.308 0 21.126-8.432 21.126-17.159 0-5.859-4.96-9.1295-11.114-9.1295-9.6254 0-21.126 8.1375-21.126 17.267"/>
		<path class="Note" d="m1014.8 139.28c0 4.2625 3.069 9.021 11.114 9.021 10.308 0 21.126-8.432 21.126-17.159 0-5.859-4.96-9.1295-11.114-9.1295-9.6254 0-21.126 8.1375-21.126 17.267"/>
		<path class="Note" d="m585.23 77.283c0 4.2625 3.069 9.021 11.113 9.021 10.308 0 21.127-8.432 21.127-17.159 0-5.859-4.96-9.1295-11.113-9.1295-9.6255 0-21.127 8.1375-21.127 17.267"/>
		<path class="Note" d="m926.59 89.683c0 4.2625 3.069 9.021 11.113 9.021 10.308 0 21.127-8.432 21.127-17.159 0-5.859-4.96-9.1295-11.113-9.1295-9.6255 0-21.127 8.1375-21.127 17.267"/>
		<path class="Note" d="m867.78 102.08c0 4.2625 3.069 9.021 11.113 9.021 10.308 0 21.127-8.432 21.127-17.159 0-5.859-4.96-9.1295-11.113-9.1295-9.6255 0-21.127 8.1375-21.127 17.267"/>
		<path class="Note" d="m1345.5 126.88c0 4.2625 3.069 9.021 11.114 9.021 10.308 0 21.126-8.432 21.126-17.159 0-5.859-4.96-9.1295-11.114-9.1295-9.6254 0-21.126 8.1375-21.126 17.267"/>
		<path class="Note" d="m808.98 114.48c0 4.2625 3.069 9.021 11.113 9.021 10.308 0 21.127-8.432 21.127-17.159 0-5.859-4.96-9.1295-11.113-9.1295-9.6255 0-21.127 8.1375-21.127 17.267"/>
		<path class="Note" d="m644.04 89.683c0 4.2625 3.069 9.021 11.113 9.021 10.308 0 21.127-8.432 21.127-17.159 0-5.859-4.96-9.1295-11.113-9.1295-9.6255 0-21.127 8.1375-21.127 17.267"/>
		<path class="Clef" d="m30.799 161.2c0 6.5565 4.96 15.19 18.352 15.19 4.6655 0 8.742-1.1935 12.307-3.379 5.3631-3.7664 6.7425-10.323 6.7425-16.569 0-3.8595-0.58895-8.3235-1.581-13.981-0.29452-1.984-0.89905-4.96-1.488-8.8351 9.7184-3.1775 16.957-13.299 16.957-23.514 0-14.973-10.617-25.095-25.095-25.095-0.992-5.952-1.984-11.811-2.7744-17.36 10.416-11.021 17.654-23.421 17.654-39.184 0-9.0365-2.7744-16.368-4.371-19.948-2.3715-5.0533-5.2545-8.5253-7.0371-8.5253-0.69748 0-3.7664 1.1934-7.037 5.0533-6.3551 7.5481-8.1375 20.243-8.1375 28.566 0 5.363 0.496 10.23 2.1855 21.343-0.10852 0.09305-5.27 5.3475-7.3471 7.0371-9.0364 8.339-21.529 20.429-21.529 40.285 0 18.538 16.167 33.124 34.627 33.124 2.8675 0 5.549-0.29452 7.8275-0.69747 1.891 9.5324 3.0845 16.476 3.0845 21.731 0 10.323-5.3631 15.779-15.376 15.779-2.3871 0-4.464-0.49601-4.6656-0.49601-0.09295-0.10852-0.29443-0.20157-0.29443-0.29452 0-0.20148 0.20148-0.31 0.496-0.31 4.6655-0.79053 9.3155-4.7585 9.3155-11.098 0-5.3631-4.0611-11.021-11.501-11.021-6.944 0-11.315 5.6575-11.315 12.199m20.739-132.43c0.89905-3.968 5.456-14.384 10.618-14.384 1.488 0 3.8595 4.7584 3.8595 11.702 0 10.323-7.626 18.058-14.477 24.8-0.58895-3.968-1.085-7.8275-1.085-11.997 0-3.6735 0.29452-7.0525 1.085-10.121m8.7265 101.97c-1.984 0.40295-3.8595 0.60443-5.7505 0.60443-14.182 0-26.288-9.92-26.288-24.908 0-12.09 8.525-22.909 17.267-30.458 1.674-1.488 3.2705-2.8675 4.7585-4.3555 0.88348 5.3475 1.581 10.013 2.2784 14.089-9.0364 2.6815-15.174 12.199-15.174 21.53 0 6.944 5.456 16.461 13.392 16.461 0.79043 0 1.6895-0.40295 1.6895-1.2865 0-0.89895-0.992-1.395-2.1855-2.1855-3.8751-2.387-6.0605-4.96-6.0605-9.827 0-6.045 4.5725-10.912 10.323-12.292l5.7505 32.628m14.089-18.352c0 7.0525-2.883 14.291-9.92 17.174-2.077-11.904-4.7584-27.683-5.456-32.054 8.928 0 15.376 6.0605 15.376 14.88"/>
		<path class="KeySig" d="m118.78 70.137c-4.96 0-7.843 3.069-8.339 3.6735l0.403-31.853c0-0.79043-0.589-1.3795-1.395-1.3795h-1.178c-0.806 0-1.395 0.58905-1.395 1.3795l0.496 59.629c0 0.79053 0.589 1.3796 1.395 1.3796 0.186 0 0.589-0.093 0.7905-0.186 8.525-4.278 17.453-12.4 17.453-22.63 0-5.1461-2.3715-10.013-8.2305-10.013m-8.6335 27.978 0.2945-19.344c0.2015-0.899 1.6895-3.7665 5.6575-3.7665 3.5806 0 3.875 3.3635 3.875 5.4561 0 8.8195-3.2705 12.493-9.827 17.654"/>
		<path class="KeySig" d="m146.36 32.937c-4.96 0-7.843 3.069-8.339 3.6735l0.403-31.853c0-0.79043-0.589-1.3795-1.395-1.3795h-1.178c-0.806 0-1.395 0.58905-1.395 1.3795l0.496 59.629c0 0.79052 0.589 1.3796 1.395 1.3796 0.186 0 0.589-0.09305 0.7905-0.186 8.525-4.278 17.453-12.4 17.453-22.63 0-5.1461-2.3715-10.013-8.2305-10.013m-8.6335 27.978 0.2945-19.344c0.2015-0.899 1.6895-3.7665 5.6575-3.7665 3.5806 0 3.875 3.3635 3.875 5.4561 0 8.8195-3.2705 12.493-9.827 17.654"/>
		<path class="KeySig" d="m173.93 82.537c-4.96 0-7.843 3.069-8.339 3.6735l0.403-31.853c0-0.79043-0.589-1.3795-1.395-1.3795h-1.178c-0.806 0-1.395 0.58905-1.395 1.3795l0.496 59.629c0 0.79053 0.589 1.3796 1.395 1.3796 0.186 0 0.589-0.0931 0.7905-0.186 8.525-4.278 17.453-12.4 17.453-22.63 0-5.1461-2.3715-10.013-8.2305-10.013m-8.6335 27.978 0.2945-19.344c0.2015-0.899 1.6895-3.7665 5.6575-3.7665 3.5806 0 3.875 3.3635 3.875 5.4561 0 8.8195-3.2705 12.493-9.827 17.654"/>
		<path class="KeySig" d="m201.51 45.337c-4.96 0-7.843 3.069-8.339 3.6735l0.403-31.853c0-0.79043-0.589-1.3795-1.395-1.3795h-1.178c-0.806 0-1.395 0.58905-1.395 1.3795l0.496 59.629c0 0.79052 0.589 1.3796 1.395 1.3796 0.186 0 0.589-0.09305 0.7905-0.186 8.525-4.278 17.453-12.4 17.453-22.63 0-5.1461-2.3715-10.013-8.2305-10.013m-8.6335 27.978 0.2945-19.344c0.2015-0.899 1.6895-3.7665 5.6575-3.7665 3.5806 0 3.875 3.3635 3.875 5.4561 0 8.8195-3.2705 12.493-9.827 17.654"/>
		<path class="KeySig" d="m229.08 94.937c-4.96 0-7.843 3.069-8.339 3.6735l0.403-31.853c0-0.79043-0.589-1.3795-1.395-1.3795h-1.178c-0.806 0-1.395 0.58905-1.395 1.3795l0.496 59.629c0 0.79053 0.589 1.3796 1.395 1.3796 0.186 0 0.589-0.093 0.7905-0.186 8.525-4.278 17.453-12.4 17.453-22.63 0-5.1461-2.3715-10.013-8.2305-10.013m-8.6335 27.978 0.2945-19.344c0.2015-0.899 1.6895-3.7665 5.6575-3.7665 3.5806 0 3.875 3.3635 3.875 5.4561 0 8.8195-3.2705 12.493-9.827 17.654"/>
		<path class="KeySig" d="m256.66 57.737c-4.96 0-7.843 3.069-8.339 3.6735l0.403-31.853c0-0.79043-0.589-1.3795-1.395-1.3795h-1.178c-0.806 0-1.395 0.58905-1.395 1.3795l0.496 59.629c0 0.79052 0.589 1.3796 1.395 1.3796 0.186 0 0.589-0.09305 0.7905-0.186 8.525-4.278 17.453-12.4 17.453-22.63 0-5.1461-2.3715-10.013-8.2305-10.013m-8.6335 27.978 0.2945-19.344c0.2015-0.899 1.6895-3.7665 5.6575-3.7665 3.5806 0 3.875 3.3635 3.875 5.4561 0 8.8195-3.2705 12.493-9.827 17.654"/>
		<path class="TimeSig" d="m321.93 67.75c-2.48 1.5965-4.2625 4.464-4.2625 7.6416 0 0.40297 0 0.79048 0.0931 1.1935 0.496 4.061 3.782 7.2385 7.843 7.7345h1.0851c4.96 0 8.928-3.968 8.928-8.928 0-0.69758 0-1.3796-0.186-2.0771-0.89905-4.2625-4.774-13.392-21.638-13.392-21.623 0-24.103 17.949-24.103 24.397 0 11.811 1.488 26.598 26.288 26.598 9.8271 0 17.469-5.766 17.856-16.384 0-0.496-0.29453-0.7905-0.79053-0.7905h-1.2864c-0.40305 0-0.79053 0.403-0.79053 0.7905-0.40305 8.2461-6.262 13.206-14.989 13.206-8.6335 0-12.803-4.6656-12.803-13.392v-18.956c0-5.5491 2.1855-11.904 11.02-11.904 4.6656 0 6.7425 1.6895 7.8431 3.379 0.0929 0.20148 0.0929 0.29452 0.0929 0.496 0 0.09305 0 0.29452-0.20147 0.38748"/>
	</g>
	<g fill-rule="evenodd">
		<path class="Beam" d="m1257.7 23.481 61.28 6.2v12.463l-61.28-6.2v-12.463"/>
		<path class="Beam" d="m808.98 166.08 61.28-6.2v12.463l-61.28 6.2v-12.463"/>
		<path class="Beam" d="m585.23 147.48 120.09 12.4v12.466l-120.09-12.4v-12.466"/>
	</g>
	<path class="NoteDot" d="m518.05 73.113c0 2.7745 2.1855 4.96 4.96 4.96 2.7745 0 4.96-2.1855 4.96-4.96 0-2.7745-2.1855-4.96-4.96-4.96-2.7745 0-4.96 2.1855-4.96 4.96" stroke-width=".992"/>
	<path class="NoteDot" d="m1478.4 122.71c0 2.7745 2.1855 4.96 4.96 4.96s4.96-2.1855 4.96-4.96c0-2.7745-2.1855-4.96-4.96-4.96s-4.96 2.1855-4.96 4.96" stroke-width=".992"/>
</svg>
