<svg version="1.2" viewBox="0 0 1462.9 323.58" xmlns="http://www.w3.org/2000/svg">
 <title>Musical notation of an excerpt of Act II of Handel’s opera Jephtha, with the caption “What ever is, is right.”</title>
 <g fill="none" stroke="#000" stroke-linejoin="bevel">
  <g stroke-width="2.6496">
   <path class="StaffLines" d="m3.7906e-4 63.634h1460"/>
   <path class="StaffLines" d="m3.7906e-4 88.434h1460"/>
   <path class="StaffLines" d="m3.7906e-4 113.23h1460"/>
   <path class="StaffLines" d="m3.7906e-4 138.03h1460"/>
   <path class="StaffLines" d="m3.7906e-4 162.83h1460"/>
  </g>
  <g stroke-width="4.46">
   <path class="BarLine" d="m889.75 62.27v101.93"/>
   <path class="BarLine" d="m1310 62.27v101.93"/>
   <path class="BarLine" d="m518.36 62.27v101.93"/>
  </g>
 </g>
 <g stroke-width=".992">
  <path class="Accidental" d="m1168 140.02c0.6046-0.0931 1.1006-0.79053 1.1006-1.395v-5.8435c0-0.992-0.6976-1.395-1.5966-1.395l-3.2705 0.69747v-14.787h-2.7745v15.376l-8.835 1.798v-13.996h-2.7745v14.585l-3.875 0.79053c-0.589 0.10843-1.085 0.79043-1.085 1.395v5.7505c0 1.085 0.7905 1.395 1.6895 1.395l3.2705-0.6975v16.368l-3.875 0.7905c-0.589 0.0931-1.085 0.79053-1.085 1.395v5.7504c0 1.085 0.7905 1.3796 1.6895 1.3796l3.2705-0.682v14.771h2.7745v-15.376l8.835-1.7825v13.997h2.7745v-14.585l3.7665-0.69758c0.6046-0.10843 1.1006-0.79043 1.1006-1.395v-5.8435c0-0.992-0.6976-1.395-1.5966-1.395l-3.2705 0.6975v-16.368l3.7665-0.6975m-15.376 3.069 8.835-1.7825v16.368l-8.835 1.891v-16.477"/>
  <path class="Accidental" d="m728.85 145.41c-0.186-0.20148-0.496-0.29453-0.88357-0.29453l-0.20148 0.093h-0.0929l-12.509 3.472v-17.36h-2.7746v49.104c0 1.085 0.899 1.2865 1.7825 1.2865l12.509-3.472v17.36h2.666v-49.104c0-0.38758-0.18601-0.88358-0.49601-1.085m-13.687 27.776v-16.275l11.517-3.2705v16.368l-11.517 3.1775"/>
  <path class="Accidental" d="m1191 107.48c-0.186-0.20148-0.496-0.29453-0.8836-0.29453l-0.2015 0.0931h-0.093l-12.509 3.472v-17.36h-2.7745v49.104c0 1.085 0.899 1.2865 1.7825 1.2865l12.509-3.472v17.36h2.666v-49.104c0-0.38758-0.186-0.88358-0.496-1.085m-13.687 27.776v-16.275l11.517-3.2705v16.368l-11.517 3.1775"/>
  <path class="Accidental" d="m559.83 140.02c0.60452-0.0931 1.1005-0.79053 1.1005-1.395v-5.8435c0-0.992-0.69757-1.395-1.5965-1.395l-3.2705 0.69747v-14.787h-2.7745v15.376l-8.835 1.798v-13.996h-2.7745v14.585l-3.875 0.79053c-0.589 0.10843-1.085 0.79043-1.085 1.395v5.7505c0 1.085 0.7905 1.395 1.6895 1.395l3.2705-0.6975v16.368l-3.875 0.7905c-0.589 0.093-1.085 0.79053-1.085 1.395v5.7504c0 1.085 0.7905 1.3796 1.6895 1.3796l3.2705-0.682v14.771h2.7745v-15.376l8.835-1.7825v13.997h2.7745v-14.585l3.7665-0.69758c0.60452-0.10843 1.1005-0.79043 1.1005-1.395v-5.8435c0-0.992-0.69757-1.395-1.5965-1.395l-3.2705 0.6975v-16.368l3.7665-0.6975m-15.376 3.069 8.835-1.7825v16.368l-8.835 1.891v-16.477"/>
  <path class="Accidental" d="m1351.4 95.083c-0.186-0.20148-0.496-0.29452-0.8836-0.29452l-0.2015 0.09305h-0.093l-12.509 3.472v-17.36h-2.7745v49.104c0 1.085 0.899 1.2865 1.7825 1.2865l12.509-3.472v17.36h2.666v-49.104c0-0.38758-0.186-0.88358-0.496-1.0851m-13.687 27.776v-16.275l11.517-3.2705v16.368l-11.517 3.1775"/>
 </g>
 <g fill="none" stroke="#000" stroke-linejoin="bevel" stroke-width="2.48">
  <path class="Stem" d="m1055.6 171.27v-82.832"/>
  <path class="Stem" d="m300.26 92.6v82.634"/>
  <path class="Stem" d="m849.08 72.066v-58.033"/>
  <path class="Stem" d="m955.22 84.466v-57.887"/>
  <path class="Stem" d="m798.88 96.866v-67.964"/>
  <path class="Stem" d="m698.5 146.47v-82.249"/>
  <path class="Stem" d="m1005.4 158.87v-126.38"/>
  <path class="Stem" d="m648.3 171.27v-83.416"/>
  <path class="Stem" d="m383.94 80.2v82.634"/>
  <path class="Stem" d="m1263.4 171.27v-107.43"/>
  <path class="Stem" d="m1399 171.27v-120.03"/>
  <path class="Stem" d="m447.94 142.2v76.335"/>
  <path class="Stem" d="m568.36 154.6v57.834"/>
  <path class="Stem" d="m1359.4 117.4v70.234"/>
  <path class="Stem" d="m1199 129.8v76.335"/>
 </g>
 <g stroke-width=".992">
  <path class="Hook" d="m1262.2 86.155c0 0.29452 0.093 0.88357 0.7905 1.085 4.2625 1.395 12.803 6.758 19.251 17.763 1.7825 3.069 4.6656 7.347 4.6656 15.578 0 7.1455-1.798 14.477-4.464 21.622-0.2016 0.60453-0.31 1.1005-0.31 1.488 0 0.69757 0.4029 0.992 1.1004 0.992 0.589 0 1.085-0.38748 1.488-1.085 4.464-7.936 6.1536-17.174 6.1536-26.195-0.496-12.803-7.8431-22.227-7.8431-22.227 0.2945 0-9.1295-12.199-11.811-16.368-3.658-5.6575-5.3475-11.3-5.549-11.703-0.093-0.29449-0.992-3.875-0.992-3.875-0.093-0.3875-0.589-0.79051-1.1935-0.79051-0.6975 0-1.2865 0.60451-1.2865 1.2865v22.428"/>
  <path class="Hook" d="m446.7 218.54c0 0.682 0.589 1.2865 1.2865 1.2865 0.49601 0 1.1005-0.40301 1.1935-0.79051 0-0.1085 0.899-3.5805 0.992-3.875 0.093-0.403 0.992-4.1695 4.557-10.013 3.875-6.448 9.827-11.113 14.787-18.058 4.96-6.944 7.8431-13.501 7.8431-22.227 0-9.0211-1.984-16.57-7.3471-26.195-0.29452-0.69747-0.89895-1.085-1.488-1.085-0.20148 0-0.40295 0-0.496 0.0929-0.496 0.20148-0.69748 0.60453-0.69748 1.1935 0 0.29453 0.10853 0.69758 0.29453 1.1936 3.968 9.2224 5.5644 14.477 5.5644 21.622 0 8.2305-2.883 12.509-4.6655 15.578-6.448 11.005-16.864 16.368-21.034 17.763-0.6975 0.20148-0.7905 0.79053-0.7905 1.085v22.428"/>
  <path class="Hook" d="m1197.7 206.14c0 0.682 0.589 1.2865 1.2865 1.2865 0.496 0 1.1005-0.40301 1.1935-0.79051 0-0.1085 0.899-3.5805 0.992-3.875 0.093-0.403 0.992-4.1695 4.557-10.013 3.875-6.448 9.827-11.113 14.787-18.058 4.96-6.944 7.8431-13.501 7.8431-22.227 0-9.0211-1.984-16.57-7.3471-26.195-0.2945-0.69747-0.8989-1.085-1.488-1.085-0.2015 0-0.4029 0-0.496 0.0929-0.496 0.20148-0.6975 0.60453-0.6975 1.1935 0 0.29453 0.1086 0.69758 0.2946 1.1936 3.968 9.2224 5.5644 14.477 5.5644 21.622 0 8.2305-2.883 12.509-4.6655 15.578-6.448 11.005-16.864 16.368-21.034 17.763-0.6975 0.20148-0.7905 0.79053-0.7905 1.085v22.428"/>
  <path class="Note" d="m1024.6 179.4c0 4.2625 3.069 9.021 11.114 9.021 10.308 0 21.126-8.432 21.126-17.159 0-5.859-4.96-9.1295-11.114-9.1295-9.6254 0-21.126 8.1375-21.126 17.267"/>
  <path class="Note" d="m1232.4 179.4c0 4.2625 3.069 9.021 11.114 9.021 10.308 0 21.126-8.432 21.126-17.159 0-5.859-4.96-9.1295-11.114-9.1295-9.6254 0-21.126 8.1375-21.126 17.267"/>
  <path class="Note" d="m974.42 167c0 4.2625 3.069 9.021 11.113 9.021 10.308 0 21.127-8.432 21.127-17.159 0-5.859-4.96-9.1295-11.113-9.1295-9.6255 0-21.127 8.1375-21.127 17.267"/>
  <path class="Note" d="m1232.4 154.6c0 4.2625 3.069 9.021 11.114 9.021 10.308 0 21.126-8.432 21.126-17.159 0-5.859-4.96-9.1295-11.114-9.1295-9.6254 0-21.126 8.1375-21.126 17.267"/>
  <path class="Note" d="m924.22 92.603c0 4.2625 3.069 9.021 11.113 9.021 10.308 0 21.127-8.432 21.127-17.159 0-5.859-4.96-9.1295-11.113-9.1295-9.6255 0-21.127 8.1375-21.127 17.267"/>
  <path class="Note" d="m299.02 92.603c0 4.2625 3.069 9.021 11.113 9.021 10.308 0 21.127-8.432 21.127-17.159 0-5.859-4.96-9.1295-11.113-9.1295-9.6255 0-21.127 8.1375-21.127 17.267"/>
  <path class="Note" d="m818.09 80.203c0 4.2625 3.069 9.021 11.113 9.021 10.308 0 21.127-8.432 21.127-17.159 0-5.859-4.96-9.1295-11.113-9.1295-9.6255 0-21.127 8.1375-21.127 17.267"/>
  <path class="Note" d="m767.89 105c0 4.2625 3.069 9.021 11.113 9.021 10.308 0 21.127-8.432 21.127-17.159 0-5.859-4.96-9.1295-11.113-9.1295-9.6255 0-21.127 8.1375-21.127 17.267"/>
  <path class="Note" d="m717.7 129.8c0 4.2625 3.069 9.021 11.113 9.021 10.308 0 21.127-8.432 21.127-17.159 0-5.859-4.96-9.1295-11.113-9.1295-9.6255 0-21.127 8.1375-21.127 17.267"/>
  <path class="Note" d="m667.5 154.6c0 4.2625 3.069 9.021 11.113 9.021 10.308 0 21.127-8.432 21.127-17.159 0-5.859-4.96-9.1295-11.113-9.1295-9.6255 0-21.127 8.1375-21.127 17.267"/>
  <path class="Note" d="m617.31 179.4c0 4.2625 3.069 9.021 11.113 9.021 10.308 0 21.127-8.432 21.127-17.159 0-5.859-4.96-9.1295-11.113-9.1295-9.6255 0-21.127 8.1375-21.127 17.267"/>
  <path class="Note" d="m382.7 80.203c0 4.2625 3.069 9.021 11.113 9.021 10.308 0 21.127-8.432 21.127-17.159 0-5.859-4.96-9.1295-11.113-9.1295-9.6255 0-21.127 8.1375-21.127 17.267"/>
  <path class="Note" d="m1368 142.2c0 4.2625 3.069 9.021 11.114 9.021 10.308 0 21.126-8.432 21.126-17.159 0-5.859-4.96-9.1295-11.114-9.1295-9.6254 0-21.126 8.1375-21.126 17.267"/>
  <path class="Note" d="m1368 179.4c0 4.2625 3.069 9.021 11.114 9.021 10.308 0 21.126-8.432 21.126-17.159 0-5.859-4.96-9.1295-11.114-9.1295-9.6254 0-21.126 8.1375-21.126 17.267"/>
  <path class="Note" d="m446.7 142.2c0 4.2625 3.069 9.021 11.113 9.021 10.308 0 21.127-8.432 21.127-17.159 0-5.859-4.96-9.1295-11.113-9.1295-9.6255 0-21.127 8.1375-21.127 17.267"/>
  <path class="Note" d="m1358.1 117.4c0 4.2625 3.069 9.021 11.114 9.021 10.308 0 21.126-8.432 21.126-17.159 0-5.859-4.96-9.1295-11.114-9.1295-9.6254 0-21.126 8.1375-21.126 17.267"/>
  <path class="Note" d="m1197.7 129.8c0 4.2625 3.069 9.021 11.114 9.021 10.308 0 21.126-8.432 21.126-17.159 0-5.859-4.96-9.1295-11.114-9.1295-9.6254 0-21.126 8.1375-21.126 17.267"/>
  <path class="Note" d="m567.12 154.6c0 4.2625 3.069 9.021 11.113 9.021 10.308 0 21.127-8.432 21.127-17.159 0-5.859-4.96-9.1295-11.113-9.1295-9.6255 0-21.127 8.1375-21.127 17.267"/>
  <path class="Clef" d="m30.799 188.92c0 6.5565 4.96 15.19 18.352 15.19 4.6655 0 8.742-1.1935 12.307-3.379 5.3631-3.7664 6.7425-10.323 6.7425-16.569 0-3.8595-0.58895-8.3235-1.581-13.981-0.29452-1.984-0.89905-4.96-1.488-8.8351 9.7184-3.1775 16.957-13.299 16.957-23.514 0-14.973-10.617-25.095-25.095-25.095-0.992-5.952-1.984-11.811-2.7744-17.36 10.416-11.021 17.654-23.421 17.654-39.184 0-9.0365-2.7744-16.368-4.371-19.948-2.3715-5.0533-5.2545-8.5253-7.0371-8.5253-0.69748 0-3.7664 1.1934-7.037 5.0533-6.3551 7.5481-8.1375 20.243-8.1375 28.566 0 5.363 0.496 10.23 2.1855 21.343-0.10852 0.09305-5.27 5.3475-7.3471 7.0371-9.0364 8.339-21.529 20.429-21.529 40.285 0 18.538 16.167 33.124 34.627 33.124 2.8675 0 5.549-0.29453 7.8275-0.69748 1.891 9.5324 3.0845 16.476 3.0845 21.731 0 10.323-5.3631 15.779-15.376 15.779-2.3871 0-4.464-0.496-4.6656-0.496-0.09295-0.10852-0.29443-0.20157-0.29443-0.29452 0-0.20148 0.20148-0.31 0.496-0.31 4.6655-0.79053 9.3155-4.7585 9.3155-11.098 0-5.363-4.0611-11.021-11.501-11.021-6.944 0-11.315 5.6575-11.315 12.199m20.739-132.43c0.89905-3.968 5.456-14.384 10.618-14.384 1.488 0 3.8595 4.7584 3.8595 11.702 0 10.323-7.626 18.058-14.477 24.8-0.58895-3.968-1.085-7.8275-1.085-11.997 0-3.6735 0.29452-7.0525 1.085-10.121m8.7265 101.97c-1.984 0.40295-3.8595 0.60443-5.7505 0.60443-14.182 0-26.288-9.92-26.288-24.908 0-12.09 8.525-22.909 17.267-30.458 1.674-1.488 3.2705-2.8675 4.7585-4.3555 0.88348 5.3475 1.581 10.013 2.2784 14.089-9.0364 2.6815-15.174 12.199-15.174 21.53 0 6.944 5.456 16.461 13.392 16.461 0.79043 0 1.6895-0.40295 1.6895-1.2865 0-0.89895-0.992-1.395-2.1855-2.1855-3.8751-2.387-6.0605-4.96-6.0605-9.827 0-6.045 4.5725-10.912 10.323-12.292l5.7505 32.628m14.089-18.352c0 7.0525-2.883 14.291-9.92 17.174-2.077-11.904-4.7584-27.683-5.456-32.054 8.928 0 15.376 6.0606 15.376 14.88"/>
  <path class="KeySig" d="m118.78 97.858c-4.96 0-7.843 3.069-8.339 3.6735l0.403-31.853c0-0.79043-0.589-1.3795-1.395-1.3795h-1.178c-0.806 0-1.395 0.58905-1.395 1.3795l0.496 59.629c0 0.79053 0.589 1.3796 1.395 1.3796 0.186 0 0.589-0.093 0.79051-0.186 8.525-4.278 17.453-12.4 17.453-22.63 0-5.146-2.3715-10.013-8.2305-10.013m-8.6335 27.978 0.29449-19.344c0.20151-0.899 1.6895-3.7666 5.6575-3.7666 3.5806 0 3.875 3.3636 3.875 5.456 0 8.8195-3.2705 12.493-9.827 17.654"/>
  <path class="KeySig" d="m146.36 60.658c-4.96 0-7.843 3.069-8.339 3.6735l0.403-31.853c0-0.79043-0.589-1.3795-1.395-1.3795h-1.178c-0.806 0-1.395 0.58905-1.395 1.3795l0.496 59.629c0 0.79053 0.589 1.3796 1.395 1.3796 0.186 0 0.589-0.09305 0.79051-0.186 8.525-4.278 17.453-12.4 17.453-22.63 0-5.1461-2.3715-10.013-8.2305-10.013m-8.6335 27.978 0.29449-19.344c0.20151-0.899 1.6895-3.7665 5.6575-3.7665 3.5806 0 3.875 3.3635 3.875 5.4561 0 8.8195-3.2705 12.493-9.827 17.654"/>
  <path class="KeySig" d="m173.93 110.26c-4.96 0-7.843 3.069-8.339 3.6735l0.403-31.853c0-0.79043-0.589-1.3795-1.395-1.3795h-1.178c-0.806 0-1.395 0.58905-1.395 1.3795l0.496 59.629c0 0.79053 0.589 1.3796 1.395 1.3796 0.186 0 0.589-0.0931 0.79051-0.186 8.525-4.278 17.453-12.4 17.453-22.63 0-5.146-2.3715-10.013-8.2305-10.013m-8.6335 27.978 0.29449-19.344c0.20151-0.899 1.6895-3.7666 5.6575-3.7666 3.5806 0 3.875 3.3636 3.875 5.456 0 8.8195-3.2705 12.493-9.827 17.654"/>
  <path class="TimeSig" d="m236.47 87.349c4.96-1.891 8.432-5.0685 8.432-10.524 0-0.88358-0.29443-12.106-17.36-12.106-17.065 0-16.569 12.106-16.569 12.106h0.093l-0.093 0.20148c0 3.565 2.883 6.355 6.448 6.355 3.565 0 6.355-2.79 6.355-6.355 0-2.8831-2.1856-5.6575-4.96-6.2465 0.093-0.10852 0.186-0.20148 0.2945-0.29452 1.3796-0.992 3.2705-1.488 5.1616-1.488 4.154 0 8.618 2.48 8.618 7.8276 0 6.2465-4.65 7.1455-5.8436 7.347-1.1935 0.2015-6.7424 0.589-7.936 0.589-1.1935 0-1.2865 1.395-1.2865 1.395v1.984s0.186 1.085 1.2865 1.1935c1.6896 0.093 3.968 0.093 7.1456 0.589 4.3555 0.589 6.634 3.565 6.634 10.509 0 6.6495-4.464 8.432-8.618 8.432-2.79 0-5.363-0.79053-6.448-1.581 3.2705-0.20148 5.952-3.069 5.952-6.355 0-3.5651-2.79-6.4481-6.355-6.4481-3.565 0-6.448 2.883-6.448 6.4481 0 8.1375 7.44 12.214 14.787 12.214 9.517 0 19.84-3.286 19.84-14.09 0-7.2385-4.96-10.323-9.331-11.702h0.20147"/>
  <path class="TimeSig" d="m226.21 150.64v7.3316h-8.2305c-0.69748 0-1.395 0.60443-1.395 1.395v1.891c0 0.79043 0.69747 1.3795 1.395 1.3795h30.055c0.806 0 1.395-0.58905 1.395-1.3795v-1.891c0-0.79052-0.58895-1.395-1.395-1.395h-8.8195v-7.3316h8.8195c0.806 0 1.395-0.69748 1.395-1.488v-1.891c0-0.6975-0.58895-1.3795-1.395-1.3795h-8.8195v-15.779c0-0.589-0.29452-1.085-0.79052-1.2865l-1.1935-0.6045c-0.20157-0.093-0.496-0.18605-0.69758-0.18605-0.29442 0.0931-0.69747 0.18605-0.89895 0.38755l-9.0211 8.2305c-0.29442 0.31-0.40295 0.6975-0.40295 1.1005v8.1375h-11.408s11.021-11.904 22.723-27.59c0.40305-0.496 0.496-0.992 0.496-1.3795 0-0.496-0.20148-0.89895-0.29443-0.992l-2.1856-2.1855c-0.20147-0.20148-0.58895-0.40305-0.992-0.40305h-14.678c-0.806 0-1.302 0.60452-1.395 1.1936 0 0-0.496 7.347-3.069 15.376-2.5885 8.0445-5.5645 13.005-8.1375 16.663 0 0-0.2945 0.496-0.2945 1.1005 0 0.2015 0 0.38755 0.093 0.58903 0.403 0.69747 0.992 1.7825 0.992 1.7825s0.20151 0.60443 1.085 0.60443h17.066"/>
  <path class="Rest" d="m1121.7 72.641c-0.093 0-0.2945-0.10853-0.403-0.10853-0.589 0-1.085 0.31-1.2865 0.80601-2.2785 4.557-7.037 10.711-12.4 11.703 1.085-1.2865 1.7825-2.883 1.7825-4.7586 0-3.875-3.1775-7.0524-7.037-7.0524-3.968 0-7.1455 3.1775-7.1455 7.0524 0 5.3476 5.2545 7.8276 9.92 7.8276 5.2545 0 8.7265-2.48 12.105-6.1536l-11.315 35.325 2.6815 0.79053 13.888-43.741c0.1085-0.10843 0.1085-0.31 0.1085-0.496 0-0.496-0.31-0.89896-0.899-1.1935"/>
  <path class="Rest" d="m1121.1 166.72c-0.093 0-0.2944-0.10852-0.4029-0.10852-0.5891 0-1.0851 0.31-1.2866 0.806-2.2785 4.5571-7.0369 10.711-12.4 11.703 1.0851-1.2865 1.7825-2.883 1.7825-4.7586 0-3.875-3.1774-7.0524-7.037-7.0524-3.968 0-7.1455 3.1775-7.1455 7.0524 0 5.3476 5.2545 7.8276 9.92 7.8276 5.2545 0 8.7265-2.48 12.106-6.1536l-11.315 35.325 2.6815 0.79053 13.888-43.741c0.1086-0.10842 0.1086-0.31 0.1086-0.496 0-0.496-0.31-0.89895-0.8991-1.1935"/>
  <path class="Rest" d="m602.99 71.501c-0.0929 0-0.29443-0.10853-0.40295-0.10853-0.58905 0-1.0851 0.31-1.2865 0.806-2.2785 4.5571-7.037 10.711-12.4 11.703 1.085-1.2865 1.7825-2.883 1.7825-4.7586 0-3.875-3.1775-7.0524-7.037-7.0524-3.968 0-7.1455 3.1775-7.1455 7.0524 0 5.3476 5.2545 7.8276 9.92 7.8276 5.2545 0 8.7265-2.48 12.105-6.1536l-11.315 35.325 2.6815 0.79053 13.888-43.741c0.10853-0.10842 0.10853-0.31 0.10853-0.496 0-0.496-0.31-0.89895-0.89905-1.1935"/>
 </g>
 <path class="Dynamic" d="m944.78 205.45c-1.38 0.796-1.68 1.984-1.68 2.671 0 1.094 0.89 2.782 2.77 2.782 1.89 0 2.58-1.391 2.78-2.375 0.09-0.203 0.09-0.5 0.09-0.797 0-2.281-1.89-5.735-7.62-5.735-6.63 0-9.61 4.344-9.61 8.219 0 2.078 0.7 4.344 3.47 5.938 1.19 0.687 2.78 1.484 4.45 2.468 1.69 0.985 2.08 2.375 2.08 3.375 0 0.985-1.19 4.344-4.84 4.344-2.88 0-3.57-0.984-3.57-1.484 0-0.094 0-0.188 0.1-0.188 0.29-0.203 1.59-0.89 1.59-3.281 0-2.562-1.69-3.656-3.17-3.656s-3.47 1.094-3.47 4.062c0 4.453 3.36 6.735 8.52 6.735 5.14 0 10.89-2.188 10.89-8.125 0-5.938-5.16-7.422-7.63-8.813-2.47-1.375-2.97-1.969-2.97-3.656 0-1.688 1.88-3.766 4.46-3.766 2.57 0 3.36 1.282 3.36 1.282"/>
 <path class="Dynamic" d="m791.3 205.45c-1.38 0.796-1.68 1.984-1.68 2.671 0 1.094 0.89 2.782 2.77 2.782 1.89 0 2.58-1.391 2.78-2.375 0.09-0.203 0.09-0.5 0.09-0.797 0-2.281-1.89-5.735-7.62-5.735-6.63 0-9.61 4.344-9.61 8.219 0 2.078 0.7 4.344 3.47 5.938 1.19 0.687 2.78 1.484 4.45 2.468 1.69 0.985 2.08 2.375 2.08 3.375 0 0.985-1.19 4.344-4.84 4.344-2.88 0-3.57-0.984-3.57-1.484 0-0.094 0-0.188 0.1-0.188 0.29-0.203 1.59-0.89 1.59-3.281 0-2.562-1.69-3.656-3.17-3.656s-3.47 1.094-3.47 4.062c0 4.453 3.36 6.735 8.52 6.735 5.14 0 10.89-2.188 10.89-8.125 0-5.938-5.16-7.422-7.63-8.813-2.47-1.375-2.97-1.969-2.97-3.656 0-1.688 1.88-3.766 4.46-3.766 2.57 0 3.36 1.282 3.36 1.282"/>
 <path class="Dynamic" d="m685.06 205.45c-1.38 0.796-1.68 1.984-1.68 2.671 0 1.094 0.89 2.782 2.77 2.782 1.89 0 2.58-1.391 2.78-2.375 0.09-0.203 0.09-0.5 0.09-0.797 0-2.281-1.89-5.735-7.62-5.735-6.63 0-9.61 4.344-9.61 8.219 0 2.078 0.7 4.344 3.47 5.938 1.19 0.687 2.78 1.484 4.45 2.468 1.69 0.985 2.08 2.375 2.08 3.375 0 0.985-1.19 4.344-4.84 4.344-2.88 0-3.57-0.984-3.57-1.484 0-0.094 0-0.188 0.1-0.188 0.29-0.203 1.59-0.89 1.59-3.281 0-2.562-1.69-3.656-3.17-3.656s-3.47 1.094-3.47 4.062c0 4.453 3.36 6.735 8.52 6.735 5.14 0 10.89-2.188 10.89-8.125 0-5.938-5.16-7.422-7.63-8.813-2.47-1.375-2.97-1.969-2.97-3.656 0-1.688 1.88-3.766 4.46-3.766 2.57 0 3.36 1.282 3.36 1.282"/>
 <path class="Dynamic" d="m1203.7 238.56c-2.68 0-5.14 2.484-5.14 5.156 0 5.141 3.46 8.016 8.01 8.016 3.17 0 5.45-1 7.92-3.469 4.36-4.359 9.11-19.109 11.49-27.516 0.89-3.171 1.78-6.234 2.47-8.515v-0.203h7.14c0.59 0 0.98-0.391 0.98-0.985v-2.187c0-0.594-0.39-0.985-0.98-0.985h-5.85v-0.296c2.77-10.094 3.57-11.875 5.05-13.063 0.8-0.594 1.48-0.797 1.98-0.797 0.19 0 0.4 0.094 0.49 0.094 0.59 0.109 1.09 0.703 1.09 1.297 0 0.484-0.2 0.984-0.59 1.187-0.99 0.782-1.49 2.078-1.49 3.453 0 0.5 0.1 0.891 0.21 1.391 0.29 0.891 1.08 1.781 2.08 2.188 0.39 0.187 1.07 0.39 1.78 0.39 2.08 0 4.15-1.578 4.65-3.562 0.19-0.5 0.19-1.094 0.19-1.688 0-4.953-4.45-7.515-8.91-7.515-9.2 0-13.26 9.39-15.73 16.718v0.203h-7.53c-0.59 0-0.99 0.391-0.99 0.985v2.187c0 0.594 0.4 0.985 0.99 0.985h6.14v0.39c-1 3.969-1.78 7.328-2.48 10.594-0.79 3.672-1.68 7.438-2.86 11.984l-0.3 1.188c-2.08 8.125-2.67 10.984-5.05 12.578-0.5 0.297-1.09 0.484-1.69 0.484-0.5 0-1-0.187-1.39-0.484s-0.5-0.594-0.5-1.094c0.11-0.39 0.3-0.797 0.8-0.984 1.89-0.797 2.49-2.578 2.49-4.156 0-1.391-0.9-3.969-4.47-3.969"/>
 <path class="Dynamic" d="m1045.2 205.45c-1.37 0.796-1.67 1.984-1.67 2.671 0 1.094 0.89 2.782 2.77 2.782 1.89 0 2.58-1.391 2.78-2.375 0.09-0.203 0.09-0.5 0.09-0.797 0-2.281-1.89-5.735-7.62-5.735-6.63 0-9.61 4.344-9.61 8.219 0 2.078 0.7 4.344 3.47 5.938 1.18 0.687 2.78 1.484 4.45 2.468 1.69 0.985 2.08 2.375 2.08 3.375 0 0.985-1.19 4.344-4.85 4.344-2.87 0-3.56-0.984-3.56-1.484 0-0.094 0-0.188 0.1-0.188 0.29-0.203 1.59-0.89 1.59-3.281 0-2.562-1.69-3.656-3.17-3.656-1.49 0-3.47 1.094-3.47 4.062 0 4.453 3.36 6.735 8.51 6.735s10.9-2.188 10.9-8.125c0-5.938-5.16-7.422-7.63-8.813-2.47-1.375-2.97-1.969-2.97-3.656 0-1.688 1.88-3.766 4.45-3.766 2.58 0 3.36 1.282 3.36 1.282"/>
 <path class="Dynamic" d="m387.68 240.97v-1.984h-7.422l5.75-15.938 0.297 0.688s0.984 2.187 4.344 3.078c0.593 0.188 1.297 0.188 1.89 0.188 8.407 0 13.75-11.579 13.75-19.094 0-4.063-2.375-8.922-6.922-8.922-3.062 0-6.14 2.578-7.828 4.266l-0.297 0.296-0.187-0.406s-2.078-3.75-5.547-4.25h-0.297l-0.5-0.094c-5.64 0-8.219 5.938-9.797 10.485l1.782 0.89c0.39-1.281 1.39-4.453 2.578-6.031 0.593-0.89 1.781-1.687 2.672-1.89h0.39c0.297 0 0.594 0 0.797 0.203 0.391 0.297 0.5 0.797 0.5 1.484 0 2.375-1.781 6.734-2.281 7.719l-9.797 27.328h-6.047v1.984h22.172m2.781-17.328c-0.203 0-0.594 0-0.797-0.094-1.484-0.593-1.875-2.375-1.875-4.265 0-3.063 1.078-6.625 1.188-6.828 0.687-3.063 4.453-10 8.312-10 0.203 0 0.5 0 0.688 0.093 1.187 0.297 1.39 2.188 1.39 3.172 0 4.75-3.468 15.641-7.828 17.719-0.297 0.203-0.781 0.203-1.078 0.203"/>
 <path class="Beam" d="m953.98 20.191 52.67 6.2v12.485l-52.67-6.2v-12.485" fill-rule="evenodd"/>
 <path class="Beam" d="m647.06 81.581 203.17-81.581 0.053 14.104-203.22 81.182v-13.705" fill-rule="evenodd"/>
 <path class="Lyrics" d="m440.56 307.38-5.703-13.204c-0.14-0.406-0.25-0.796-0.25-1.093 0-0.86 0.656-1.157 2.703-1.157h0.703v-1.796h-11.796v1.796h0.39c1.906 0 2.61 0.5 3.297 2.157l8.609 20.093h1.75l7.094-17.546c1.406-3.407 2.61-4.547 4.656-4.704h0.204v-1.796h-10v1.796h0.687c1.75 0 2.703 0.594 2.703 1.75 0 0.594-0.14 1.344-0.453 2.094l-4.594 11.61m34.141-5.204c0.047-7.5-4.203-12.796-10.297-12.796-6.406 0-11.203 5.546-11.203 13.046 0 7.047 4.547 11.75 11.297 11.75 4.797 0 8.156-2.343 10.203-7.093l-1.75-0.953c-2.047 3.843-4.156 5.343-7.5 5.343-2.547 0-4.406-1.047-5.703-3.297-0.891-1.5-1.297-3.25-1.25-6h16.203m-16.156-2.156c0-3.5 1.609-8.5 5.812-8.5 3 0 5 2.656 5 6.703 0 1.407-0.453 1.797-2.062 1.797h-8.75m27.797-9.89-8.86 0.546v2.157h2.047c1.906 0.047 2.156 0.343 2.156 2.5v14.297c-0.047 0.75-0.093 1.046-0.297 1.296-0.359 0.454-1.359 0.657-3.5 0.704h-0.203v1.796h13.344v-1.796h-0.891c-3.359-0.11-3.796-0.36-3.796-2.157v-2.703c0.046-8.39 3.046-14.797 6.937-15-0.687 0.813-0.891 1.313-0.891 2.25 0 1.61 1.141 2.75 2.75 2.75 1.844 0 3.047-1.344 3.047-3.344 0-2.453-1.703-4.046-4.343-4.046-3.157 0-5.86 2.5-7.5 6.953v-6.203"/>
 <path class="Lyrics" d="m269.09 304.33-7.203-22.407c-0.156-0.5-0.25-1-0.25-1.25 0-0.75 0.547-1 2.157-1h2.25v-2.359h-14.11v2.359h0.953c2.157 0 2.407 0.204 3 1.954l10.797 32.546h2.156l7.391-24.843 8.109 24.843h2.047l8.797-29.359c1.063-3.844 2.203-5.047 5.063-5.141h0.187v-2.359h-12.25v2.359h0.406c2.907 0 4.297 0.844 4.297 2.594 0 0.5-0.093 1.203-0.297 1.75l-6 20.313-6.906-21.907c-0.344-1-0.344-1.046-0.344-1.406 0-0.453 0.297-0.89 0.75-1.094 0.547-0.203 0.907-0.25 2.844-0.25h0.813v-2.359h-14.453v2.359h1.14c2.156 0.047 2.75 0.344 3.156 1.547l1.297 3.907-5.797 19.203m43.047-27.766-9.25 0.563v2.14h2.407c1.89 0.047 2.14 0.36 2.14 2.5v27.906c-0.047 0.704-0.094 1-0.297 1.25-0.343 0.454-1.297 0.657-3.453 0.704h-0.203v1.796h12.656v-1.796h-0.203c-3.344-0.11-3.797-0.36-3.797-2.157v-7.39c0-2.453 0.344-4.703 0.907-5.86 1.093-2.25 3.296-3.797 5.437-3.797 1.313 0 2.813 0.75 3.5 1.75 0.813 1.094 1.156 2.594 1.156 5.047v10.453c-0.047 0.704-0.093 1-0.297 1.25-0.359 0.454-1.359 0.657-3.5 0.704h-0.203v1.796h12.657v-1.796h-0.204c-3.296-0.11-3.75-0.36-3.75-2.157v-10.047c0-3.593-0.156-4.5-1.046-6.203-1.25-2.453-3.75-3.843-6.75-3.843-3.25 0-5.657 1.453-7.907 4.796v-17.609m43.141 20.766c0-3.157-0.547-4.75-2-5.953-1.641-1.36-4.094-2-7.297-2-5.641 0-9.75 2.64-9.75 6.296 0 1.844 1.156 3.047 2.906 3.047 1.594 0 2.703-1.047 2.703-2.547 0-0.656-0.25-1.343-0.75-2.046-0.312-0.36-0.359-0.454-0.359-0.704 0-1 2-1.906 4.406-1.906 1.594 0 3.344 0.5 4.141 1.25 0.953 0.813 1.312 2 1.312 4.25v1.953c-5.203 0.907-6.859 1.297-9.312 2.25-4.344 1.61-6.391 3.907-6.391 7.11 0 3.593 2.797 5.843 7.25 5.843 3.453 0 6.547-1.406 8.703-3.953 0.797 2.547 2.047 3.547 4.391 3.547 2.25 0 4.609-1.437 4.609-2.89 0-0.36-0.203-0.61-0.5-0.61-0.203 0-0.406 0.063-0.75 0.203-0.703 0.297-1 0.36-1.406 0.36-1.406 0-1.906-0.907-1.906-3.453v-10.047m-4.688 6.093c0 3-0.156 3.704-1 5-1.25 1.844-3.5 3.094-5.703 3.094-2.297 0-3.953-1.64-3.953-3.89 0-2.11 1.047-3.61 3.25-4.657 1.547-0.703 3.5-1.203 7.406-1.843v2.296m18.297-13.296v-9.907h-2.047c-0.5 6.5-2.703 9.797-6.75 10.11v1.937h4.094v12.75c0 3.5 0.094 4.75 0.594 5.906 0.812 2.094 2.812 3.25 5.703 3.25 4.5 0 7.406-3.406 7.406-8.703 0-0.297 0-0.64-0.047-1.14h-2.109c-0.141 4.5-1.453 6.797-3.891 6.797-1.156 0-2.156-0.61-2.5-1.454-0.312-0.703-0.453-1.953-0.453-3.75v-13.656h7.344v-2.14h-7.344"/>
 <path class="Lyrics" d="m409.56 302.17c0.047-7.5-4.203-12.796-10.297-12.796-6.406 0-11.203 5.546-11.203 13.046 0 7.047 4.547 11.75 11.297 11.75 4.797 0 8.156-2.343 10.203-7.093l-1.75-0.953c-2.047 3.843-4.156 5.343-7.5 5.343-2.547 0-4.406-1.047-5.703-3.297-0.89-1.5-1.297-3.25-1.25-6h16.203m-16.156-2.156c0-3.5 1.609-8.5 5.813-8.5 3 0 5 2.656 5 6.703 0 1.407-0.454 1.797-2.063 1.797h-8.75"/>
 <path class="Lyrics" d="m1326.7 290.13-8.86 0.546v2.157h2.05c1.9 0.047 2.15 0.343 2.15 2.5v14.297c-0.04 0.75-0.09 1.046-0.29 1.296-0.36 0.454-1.36 0.657-3.5 0.704h-0.21v1.796h13.35v-1.796h-0.89c-3.36-0.11-3.8-0.36-3.8-2.157v-2.703c0.05-8.39 3.05-14.797 6.94-15-0.69 0.813-0.89 1.313-0.89 2.25 0 1.61 1.14 2.75 2.75 2.75 1.84 0 3.04-1.344 3.04-3.344 0-2.453-1.7-4.046-4.34-4.046-3.16 0-5.86 2.5-7.5 6.953v-6.203m21.23-12.454c-1.6 0-2.9 1.297-2.9 2.891 0 1.609 1.3 2.906 2.86 2.906 1.64 0 2.94-1.297 2.94-2.906 0-1.594-1.3-2.891-2.9-2.891m2.35 12.454-9.39 0.546v2.157h2.54c1.9 0.047 2.15 0.343 2.15 2.5v14.297c-0.05 0.75-0.1 1.046-0.3 1.296-0.35 0.454-1.3 0.657-3.45 0.704h-0.35v1.796h12.95v-1.796h-0.35c-3.35-0.11-3.8-0.36-3.8-2.157v-19.343m14.78 19.593c-2.75-0.047-2.89-0.093-3.5-0.453-0.34-0.187-0.59-0.75-0.59-1.297 0-1.5 1.34-2.14 4.7-2.25 4.69-0.093 5.44-0.203 7.14-0.953 3-1.344 4.66-3.937 4.66-7.25 0-2-0.46-3.25-1.8-4.89 0.84-0.907 1.3-1.204 1.69-1.204 0.25 0 0.4 0.157 0.5 0.704 0.2 1.203 1 1.843 2.25 1.843 1.31 0 2.26-1.047 2.26-2.39 0-1.703-1.36-2.907-3.31-2.907-1.59 0-2.5 0.5-4.8 2.594-2.09-1.39-3.7-1.89-6.2-1.89-5.95 0-9.84 3.296-9.84 8.296 0 2.954 1.59 5.454 4.2 6.704-3.36 0.75-4.75 2.25-4.75 5 0 2.203 1 3.5 3.34 4.296-3.09 1.157-4.59 2.704-4.59 4.75 0 1.5 1 2.907 2.59 3.75 1.96 1 4.35 1.407 7.96 1.407 8.34 0 12.5-2.657 12.5-7.907 0-2.5-1.16-4.5-2.96-5.25-1.34-0.5-2.95-0.703-6.34-0.703h-5.11m2.95-18.203c3.1 0 4.85 2.156 4.85 6.063 0 3.89-1.89 6.25-5.05 6.25-3.09 0-5.05-2.36-5.05-6.11 0-3.953 1.91-6.203 5.25-6.203m-0.45 22.5c4.16 0 4.45 0 5.16 0.11 2.04 0.203 3.25 1.296 3.25 2.89 0 2.86-3.25 4.5-8.8 4.5-4.25 0-6.61-1.25-6.61-3.5 0-1.64 0.91-2.75 3.3-4h3.7m24.05-37.453-9.25 0.563v2.14h2.4c1.89 0.047 2.14 0.36 2.14 2.5v27.906c-0.04 0.704-0.09 1-0.29 1.25-0.35 0.454-1.3 0.657-3.46 0.704h-0.2v1.796h12.66v-1.796h-0.21c-3.34-0.11-3.79-0.36-3.79-2.157v-7.39c0-2.453 0.34-4.703 0.9-5.86 1.1-2.25 3.3-3.797 5.44-3.797 1.31 0 2.81 0.75 3.5 1.75 0.81 1.094 1.16 2.594 1.16 5.047v10.453c-0.05 0.704-0.1 1-0.3 1.25-0.36 0.454-1.36 0.657-3.5 0.704h-0.2v1.796h12.65v-1.796h-0.2c-3.3-0.11-3.75-0.36-3.75-2.157v-10.047c0-3.593-0.16-4.5-1.05-6.203-1.25-2.453-3.75-3.843-6.75-3.843-3.25 0-5.65 1.453-7.9 4.796v-17.609m30.25 13.563v-9.907h-2.05c-0.5 6.5-2.7 9.797-6.75 10.11v1.937h4.09v12.75c0 3.5 0.1 4.75 0.6 5.906 0.81 2.094 2.81 3.25 5.7 3.25 4.5 0 7.41-3.406 7.41-8.703 0-0.297 0-0.64-0.05-1.14h-2.11c-0.14 4.5-1.45 6.797-3.89 6.797-1.16 0-2.16-0.61-2.5-1.454-0.31-0.703-0.45-1.953-0.45-3.75v-13.656h7.34v-2.14h-7.34m16.98 17.75c-1.75 0-3.14 1.39-3.14 3.093 0 1.75 1.39 3.157 3.09 3.157 1.75 0 3.16-1.407 3.16-3.157 0-1.703-1.41-3.093-3.11-3.093m8.3-16.704c4.45-3.046 6.56-6.109 6.56-9.609 0-3-1.66-4.937-4.11-4.937-1.84 0-3.25 1.296-3.25 3 0 1.796 1.36 2.937 3.45 2.937 0.25 0 0.6 0 0.75-0.047h0.16c0.25 0 0.34 0.156 0.34 0.453 0 2.094-1.65 4.344-5.04 6.797l1.14 1.406m9.2 0c4.45-3.046 6.55-6.109 6.55-9.609 0-3-1.64-4.937-4.1-4.937-1.84 0-3.25 1.296-3.25 3 0 1.796 1.35 2.937 3.46 2.937 0.25 0 0.59 0 0.75-0.047h0.14c0.25 0 0.36 0.156 0.36 0.453 0 2.094-1.66 4.344-5.05 6.797l1.14 1.406"/>
 <path class="Lyrics" d="m571.75 277.67c-1.61 0-2.907 1.297-2.907 2.891 0 1.609 1.297 2.906 2.86 2.906 1.64 0 2.937-1.297 2.937-2.906 0-1.594-1.297-2.891-2.89-2.891m2.343 12.454-9.39 0.546v2.157h2.547c1.89 0.047 2.14 0.343 2.14 2.5v14.297c-0.047 0.75-0.094 1.046-0.297 1.296-0.343 0.454-1.297 0.657-3.453 0.704h-0.344v1.796h12.954v-1.796h-0.36c-3.344-0.11-3.797-0.36-3.797-2.157v-19.343m24.938-0.547h-1.75l-1.453 1.797c-1.797-1.407-3.594-2-6.094-2-4.406 0-7.297 2.843-7.297 7.25 0 4.703 3.047 5.89 7.047 6.843l2.641 0.61c3.953 0.937 5.359 1.937 5.359 3.937 0 2.36-2.047 4-4.953 4-4.25 0-7.25-2.687-8.453-7.687h-2v9.437h1.75l1.75-2.047c2.047 1.657 4.297 2.453 6.859 2.453 4.891 0 8.141-3.046 8.141-7.703 0-2.203-0.703-3.89-2.094-5.047-1.203-1.046-2.203-1.453-5.25-2.093l-2.5-0.563c-2.75-0.594-2.75-0.594-3.656-1.094-1.094-0.5-1.75-1.546-1.75-2.656 0-2.047 1.906-3.437 4.656-3.437 4.094 0 6.094 2.89 7.297 6.39h1.75v-8.39m7.937 33.047c4.5-3.11 6.563-6.157 6.563-9.657 0-3-1.656-4.953-4.11-4.953-1.843 0-3.25 1.313-3.25 3 0 1.813 1.36 2.953 3.454 2.953 0.25 0 0.593 0 0.75-0.047h0.156c0.25 0 0.344 0.157 0.344 0.454 0 2.093-1.704 4.453-5.047 6.796l1.14 1.454"/>
 <path class="Lyrics" d="m1202.8 277.67c-1.61 0-2.9 1.297-2.9 2.891 0 1.609 1.29 2.906 2.86 2.906 1.64 0 2.93-1.297 2.93-2.906 0-1.594-1.29-2.891-2.89-2.891m2.35 12.454-9.39 0.546v2.157h2.54c1.89 0.047 2.14 0.343 2.14 2.5v14.297c-0.04 0.75-0.09 1.046-0.29 1.296-0.35 0.454-1.3 0.657-3.46 0.704h-0.34v1.796h12.95v-1.796h-0.36c-3.34-0.11-3.79-0.36-3.79-2.157v-19.343m24.93-0.547h-1.75l-1.45 1.797c-1.8-1.407-3.59-2-6.09-2-4.41 0-7.3 2.843-7.3 7.25 0 4.703 3.05 5.89 7.05 6.843l2.64 0.61c3.95 0.937 5.36 1.937 5.36 3.937 0 2.36-2.05 4-4.96 4-4.25 0-7.25-2.687-8.45-7.687h-2v9.437h1.75l1.75-2.047c2.05 1.657 4.3 2.453 6.86 2.453 4.89 0 8.14-3.046 8.14-7.703 0-2.203-0.7-3.89-2.09-5.047-1.21-1.046-2.21-1.453-5.25-2.093l-2.5-0.563c-2.75-0.594-2.75-0.594-3.66-1.094-1.09-0.5-1.75-1.546-1.75-2.656 0-2.047 1.91-3.437 4.66-3.437 4.09 0 6.09 2.89 7.29 6.39h1.75v-8.39"/>
 <path class="LyricsLineSegment" d="m411.55 299.45h13.02" fill="none" stroke="#000" stroke-linejoin="bevel" stroke-width="2.48"/>
 <path class="NoteDot" d="m427.33 76.034c0 2.7745 2.1855 4.96 4.96 4.96 2.7745 0 4.96-2.1855 4.96-4.96s-2.1855-4.96-4.96-4.96c-2.7745 0-4.96 2.1855-4.96 4.96" stroke-width=".992"/>
 <path class="Stem" d="m748.65 121.2v-67.964" fill="none" stroke="#000" stroke-linejoin="bevel" stroke-width="2.48"/>
</svg>
