<?xml version="1.0" encoding="utf-8"?>
<svg xmlns="http://www.w3.org/2000/svg" viewBox="0 0 477 146">
	<title>A hand drawn musical score.</title>
	<path d="m356.06 142h-2.9401l0.21062-2.7403c0.13006-1.6921 0.87215-2.8677 1.9401-3.0733 1.1903-0.22923 1.7295 0.31332 1.7295 1.7403 0 1.1403 0.45 2.0733 1 2.0733s1 0.45 1 1-1.323 1-2.9401 1zm-1.4486-7.116c-0.0612-0.0638-0.89883-0.3218-1.8613-0.57333-0.9625-0.25152-1.75-1.0618-1.75-1.8007s-0.52191-1.5173-1.1598-1.7299c-0.85251-0.28417-0.87124-0.90221-0.0707-2.3327l1.0891-1.9461-3.1222-3.45 1.6548-2.5256c0.9695-1.4796 2.5771-2.5109 3.8818-2.4902l2.227 0.0354-2.4014 1.3308c-1.5968 0.88489-1.9553 1.4794-1.0701 1.7745 0.91067 0.30356 1.0666 1.0567 0.49367 2.3838-0.4607 1.067-0.72168 2.615-0.57996 3.44s0.59563 1.725 1.0087 2 0.98068 1.7375 1.2614 3.25 0.46026 2.6978 0.39903 2.634zm5.5042-0.884c-0.34895 0-1.1164-0.7875-1.7054-1.75-0.6813-1.1133-0.75842-2.9325-0.21196-5 0.47245-1.7875 1.3227-3.25 1.8894-3.25s0.72121 0.50031 0.34329 1.1118c-0.37792 0.6115-0.17419 1.4288 0.45273 1.8163 0.70144 0.43351 0.89495 1.929 0.50311 3.8882-0.3502 1.751-0.92224 3.1837-1.2712 3.1837zm-0.61555-4c0.275 0 0.5-0.225 0.5-0.5s-0.225-0.5-0.5-0.5-0.5 0.225-0.5 0.5 0.225 0.5 0.5 0.5zm-95.067 1c-0.78793 0-1.4326-0.4125-1.4326-0.91667 0-0.50416 0.5625-1.1449 1.25-1.4239l1.25-0.5072-1.3555-0.95033-1.3555-0.95034 1.6655-2.5418c0.916-1.398 2.3135-2.7905 3.1055-3.0944 0.85051-0.32637 1.44 0.0486 1.44 0.91603 0 0.80774-0.70532 1.4686-1.5674 1.4686-1.1123 0-1.3831 0.58068-0.93261 2 0.34913 1.1 0.34913 2.9 0 4s-1.2794 2-2.0674 2zm69.673-0.73333c-0.40637 0.42166-1.0154 0.49017-1.3533 0.15223-0.33793-0.33794-0.37229-1.2454-0.0763-2.0167 0.33261-0.86686-0.11635-1.4022-1.1759-1.4022-1.1521 0-1.515-0.51856-1.107-1.5818 0.33385-0.86998 0.60699-1.995 0.60699-2.5 0-0.50501 1.1751-0.91821 2.6113-0.91821h2.6113l-0.68911 3.75c-0.379 2.0625-1.0216 4.095-1.428 4.5167zm-0.60552-5.2667c0.275 0 0.5-0.225 0.5-0.5s-0.225-0.5-0.5-0.5-0.5 0.225-0.5 0.5 0.225 0.5 0.5 0.5zm-323.41 4c-0.60149 0-1.1617-0.7875-1.245-1.75-0.083235-0.9625-0.10661-3.1-0.051934-4.75 0.054671-1.65 0.3217-11.438 0.5934-21.752 0.2717-10.313 0.74787-19.163 1.0582-19.665 0.31029-0.50206 0.047041-1.0852-0.585-1.2959-0.79485-0.26495-0.57028-1.6017 0.72836-4.3354l1.8775-3.9524 0.37301 2c0.20516 1.1 0.88644 2.6309 1.514 3.402s1.5916 2.7623 2.1424 4.4249c0.55079 1.6626 1.4514 3.1427 2.0014 3.2891 0.55 0.14638 2.3869-1.8448 4.082-4.4249 1.8141-2.7612 3.9739-4.8225 5.25-5.0106 1.1924-0.17575 2.168 0.17288 2.168 0.77475s-1.1034 1.5138-2.4521 2.0266c-1.3487 0.51276-3.141 2.1891-3.983 3.7252-0.842 1.5361-2.6402 4.1211-3.9961 5.7444l-2.4652 2.9514-1.0518-2.7665c-0.57851-1.5216-1.0518-3.2247-1.0518-3.7848s-0.5625-0.83179-1.25-0.60392c-0.91846 0.30442-1.3874 5.5649-1.7681 19.833-0.28496 10.68-0.45056 19.553-0.368 19.718 0.08256 0.16427 1.3563-4e-3 2.8305-0.37406l2.6804-0.67273-0.31235-3.0164c-0.20905-2.0188 0.25732-3.3759 1.4101-4.1035 1.1583-0.73103 2.0529-0.75669 2.7312-0.0783 0.55483 0.55482 1.2891 2.4103 1.6317 4.1234l0.62292 3.1146-4.2846 4.2846-6.6459-1.2468-0.5453 2.0852c-0.29992 1.1469-1.0374 2.0852-1.6389 2.0852zm9.3474-6c0.24254 0 0.69988-0.41891 1.0163-0.9309 0.31643-0.512 0.11799-1.2136-0.44098-1.559-0.55897-0.34546-1.0163 0.07344-1.0163 0.9309s0.19844 1.559 0.44098 1.559zm-6.441-42c0.73333 0 1.0333-0.3 0.66667-0.66667-0.36667-0.36667-0.96667-0.36667-1.3333 0-0.36667 0.36667-0.066666 0.66667 0.66667 0.66667zm15 43c-0.48508 0-1.1601-0.45-1.5-1s-0.32641-1.4718 0.03001-2.0486c0.44362-0.71779 1.0897-0.68204 2.048 0.11331 0.76998 0.63902 1.1534 1.5609 0.85196 2.0486s-0.94489 0.88669-1.43 0.88669zm10.885-1.2041c-1.3532 0.16275-2.781-0.0248-3.1729-0.41667-0.39192-0.39191-0.71258-1.5376-0.71258-2.5459 0-1.0083 0.9-2.7333 2-3.8333s2.45-2 3-2 1 0.95248 1 2.1166v2.1166l-4.1165-1.0765 0.34922 1.6716c0.22456 1.0749 1.1679 1.5812 2.6426 1.4184 1.4671-0.16195 2.1451 0.19836 1.8819 1-0.22633 0.68924-1.5186 1.3863-2.8718 1.5491zm10.302-0.02508c-0.65312 0.21771-1.1875-0.31666-1.1875-1.1875 0-0.87083 0.7125-1.5833 1.5833-1.5833 0.87083 0 1.4052 0.53437 1.1875 1.1875-0.21771 0.65313-0.93021 1.3656-1.5833 1.5833zm95.158 0.22917c-0.87458 0-1.3044-1.1367-1.229-3.25 0.0638-1.7875 0.3218-2.4625 0.57333-1.5 0.25152 0.9625 0.90088 1.75 1.443 1.75s0.7268-0.41891 0.41037-0.9309c-0.31644-0.512-0.0677-1.2446 0.55278-1.6281 0.62046-0.38346 1.505-0.0873 1.9657 0.65807 0.52246 0.84535 0.23396 2.0223-0.76679 3.1281-0.88242 0.97506-2.2096 1.7728-2.9494 1.7728zm9.578-0.45245c-0.50768 0.31377-0.92306-0.13107-0.92306-0.98853s-0.45-1.559-1-1.559-1-0.66088-1-1.4686c0-0.80773 0.5625-1.3315 1.25-1.1639s0.9125 0.11597 0.5-0.11472-0.75-1.5069-0.75-2.8361c0-1.3292 0.525-2.4167 1.1667-2.4167 0.64166 0 0.87366 0.29301 0.51554 0.65112-0.35812 0.35812 0.0701 1.1785 0.95164 1.8231 1.1853 0.86668 1.4217 1.9966 0.90752 4.3374-0.38238 1.741-1.1106 3.4222-1.6183 3.7359zm110.06-2.5396-2.0148 1.0783-0.59512-1.5508c-0.32731-0.85296 0.13974-2.6724 1.0379-4.0431s2.1586-2.4923 2.8011-2.4923 0.29457 0.66069-0.77305 1.4682l-1.9411 1.4682 1.75 0.0318c0.9625 0.0175 1.75 0.69097 1.75 1.4966s-0.90668 1.95-2.0148 2.5431zm-0.31849-1.3413c0.36666-0.36667 0.36666-0.96667 0-1.3333-0.36667-0.36666-0.66667-0.06666-0.66667 0.66667s0.3 1.0333 0.66667 0.66667zm-66.635 0.33333c-1.1173 0-2.0314-0.23945-2.0314-0.53212 0-0.29266 0.65204-2.0927 1.449-4 0.79694-1.9073 1.7451-3.4679 2.107-3.4679s0.36963 0.75152 0.0172 1.67c-0.35247 0.91853-0.11005 1.9981 0.53873 2.3991 0.64877 0.40096 0.90313 1.4494 0.56525 2.33-0.33792 0.8805-1.5285 1.6009-2.6458 1.6009zm-133.07-4c-0.64454 0-0.83691-0.8277-0.46484-2 0.36414-1.1473 0.1797-2-0.43261-2-0.58706 0-1.0674-0.45-1.0674-1s0.675-1 1.5-1c0.95116 0 1.5-0.9574 1.5-2.6166v-2.6166l-2 0.52301c-1.1 0.28766-2 0.11514-2-0.38337s0.65917-0.90638 1.4648-0.90638 1.9271-0.8637 2.492-1.9193c0.74834-1.3983 0.69002-2.0328-0.21482-2.3374l-1.242-0.41805 1.1932-1.4467c0.65627-0.79566 1.0681-2.2994 0.91509-3.3416s-1.1399-2.2017-2.1932-2.5767l-1.9151-0.68174 8.1988-1.4034-0.46597-2.4375c-0.25628-1.3407-1.0885-2.4375-1.8494-2.4375-0.76088 0-1.3834 0.975-1.3834 2.1667 0 1.1917-0.20062 1.966-0.44582 1.7208-0.2452-0.2452-1.1575-7.6327-2.0273-16.417-0.86981-8.784-1.8415-16.812-2.1594-17.84-0.31785-1.028-0.01897-2.9135 0.66417-4.19 0.92554-1.7294 0.97698-3.3652 0.20187-6.4189-0.57211-2.2539-0.70469-5.3184-0.29462-6.81l0.74558-2.7119 7.4078 0.22628c4.0743 0.12445 9.2923 0.37797 11.596 0.56336s4.1625 0.08357 4.1316-0.22628c-0.03091-0.30985-0.0029-1.3509 0.06221-2.3134 0.06513-0.9625 0.6209-1.75 1.2351-1.75 0.6243 0 0.88603 0.88181 0.59362 2-0.36263 1.3867-0.01508 2.0288 1.1334 2.094 0.91101 0.0517 4.3564 0.07411 7.6564 0.0498s10.798-0.0666 16.662-0.09399l10.662-0.049803-0.16191-4.75-0.1619-4.75 3.1357-0.30483c1.8692-0.18172 4.4945 0.52357 6.5 1.7463 1.8504 1.1281 3.959 2.0528 4.6858 2.0548 0.72678 0.0021 1.9677 0.65005 2.7577 1.44 0.89785 0.89785 1.0585 1.6697 0.42857 2.059-0.55422 0.34253-1.0063 0.93372-1.0046 1.3138 2e-3 0.38004 2.6809 0.72292 5.9539 0.76195l5.9509 0.07096 0.83828-4.1419 1.4929 4.5219 20.761-0.40464v-4.8086c0-2.6448 0.3375-4.7944 0.75-4.777 0.4125 0.01739 1.9702 2.0424 3.4615 4.5l2.7115 4.4684 16.577 0.39172-6.75 0.34983c-4.3916 0.2276-6.7554 0.77061-6.7653 1.5541l-0.01532 1.2043-0.77579-1.221c-0.50599-0.79638-2.0657-1.0117-4.4847-0.61916-2.2892 0.37148-3.7089 1.1549-3.7089 2.0465v1.4446l10.459-0.54563c6.3584-0.3317 10.697-0.16192 11.064 0.43302 0.33266 0.53826-0.43657 1.3963-1.7094 1.9068l-2.3142 0.92816 2.25 0.06339c1.3052 0.036765 2.25 0.69328 2.25 1.5634v1.5l-5.25-0.116c-2.8875-0.0638-4.35-0.34086-3.25-0.61568 1.1-0.27482 2.3306-1.0101 2.7347-1.634s0.74158-1.6065 0.75-2.1835c9e-3 -0.6051-1.4173-0.88195-3.3693-0.65406l-3.3846 0.39514v9.9635l12.269-0.73762 0.59076-5.9178 21.205 0.13257c11.663 0.07291 22.667-0.09846 24.455-0.38084 2.1201-0.33492 3.2484-1.0763 3.2452-2.1326l-0.00476-1.6192h-23.245c-12.785 0-23.769 0.3403-24.41 0.75623-0.64052 0.41593-1.3155 0.3127-1.5-0.22938s-0.18439-3.9226 1.9e-4 -7.5123 0.73234-6.2815 1.2172-5.9818c0.48491 0.29969 0.62606 1.8229 0.31366 3.3848-0.31239 1.562-0.1149 3.12 0.43888 3.4622 0.55377 0.34225 0.77162 1.5218 0.48411 2.6213l-0.52275 1.999 17.867 0.11537c9.8266 0.06346 20.117 0.1026 22.867 0.08699 2.75-0.01561 5.375-0.06753 5.8333-0.11538 0.45834-0.04784 0.66295-0.59816 0.45469-1.2229-0.26028-0.78085-6.929-1.2717-21.333-1.5701-11.525-0.2388-21.517-0.47763-22.205-0.53073-0.6875-0.0531-1.2502-0.35904-1.2504-0.67987-2.1e-4 -0.32083 7.4884-0.4347 16.641-0.25304l16.642 0.33029 1.6562-2.6606 2.017 1.25c1.1093 0.6875 4.723 1.25 8.0305 1.25 3.5658 0 6.0136-0.43106 6.0136-1.059 0-0.58246 0.38456-0.82135 0.85457-0.53086s1.1604-3.8234 1.5343-9.142 0.85889-9.8493 1.0779-10.068c0.21896-0.21896 4.7745 0.07744 10.123 0.65868 5.3489 0.58124 10.121 1.4525 10.605 1.9361 0.48361 0.48361 0.58057 4.4612 0.21547 8.839l-0.66382 7.9598-1.8732 0.1411c-1.0302 0.077605-1.8732-0.50593-1.8732-1.2968s0.675-1.4379 1.5-1.4379c1.0833 0 1.5-1.1111 1.5-4v-4l-2.25-0.15222c-1.2375-0.08372-3.15-0.19305-4.25-0.24296-1.4653-0.06649-2.0846 0.64253-2.3164 2.6522l-0.31642 2.743h2.5664c1.4115 0 2.5664 0.4187 2.5664 0.93045s-1.0125 1.0742-2.25 1.25c-1.446 0.20536-2.3642 1.1236-2.5696 2.5696-0.17575 1.2375 0.16175 2.25 0.75 2.25s1.0696 0.40122 1.0696 0.89159-1.1952 1.1916-2.6561 1.5582c-1.7335 0.43507-3.1523 0.1704-4.0846-0.76194l-1.4286-1.4286 2.5846-0.6487c1.4216-0.35679 2.5846-1.0376 2.5846-1.513s-0.97866-1.1202-2.1748-1.433c-1.3802-0.36093-2.6109 0.02768-3.3684 1.0636l-1.1936 1.6323-1.1316-2.1145c-0.6224-1.163-1.1316-2.6026-1.1316-3.1993 0-0.64917 0.97495-0.8401 2.4278-0.47545 1.3353 0.33514 3.3603 0.31339 4.5-0.04834l2.0722-0.65768v-4.0564-4.0564l5.5352 0.45902c3.0444 0.25246 5.1819 0.13004 4.75-0.27205-0.43185-0.40209-4.5825-1.2297-9.2237-1.8392l-8.4385-1.1081-0.79616 1.254c-0.43789 0.68968-0.87287 2.829-0.96663 4.754-0.0938 1.925-0.29844 5.4125-0.45486 7.75l-0.2844 4.25h1.562 1.562l-1.1746 1.4152-1.1746 1.4152-3.1913-0.91525c-1.7552-0.50339-3.7568-0.91525-4.4479-0.91525s-1.2566 0.675-1.2566 1.5 0.7875 1.5137 1.75 1.5304l1.75 0.03041-1.75 1.0193c-0.9625 0.5606-1.75 1.6108-1.75 2.3337 0 0.8056 1.7959 1.5605 4.6396 1.9503 2.5518 0.34976 10.404 0.63592 17.45 0.63592h12.811l0.79969-1.3885c0.43983-0.76369 1.6997-1.6115 2.7997-1.884l2-0.49547-4.7168-0.232 1.2807-5.1026-3.7819 0.62922c-2.0801 0.34607-4.373 0.81598-5.0953 1.0442-0.72236 0.22826-1.0248 0.88201-0.67202 1.4528 0.37403 0.6052 2.0677 0.77016 4.0634 0.39577 2.2283-0.41803 3.422-0.25431 3.422 0.46932 0 0.75984-4.2436 1.1113-13.418 1.1113-7.38 0-14.13 0.27314-15 0.60699-1.0226 0.3924-1.5818 0.059722-1.5818-0.94098 0-0.85138 0.3375-1.7451 0.75-1.9861 0.4125-0.24095 3.7854 0.0068 7.4952 0.55059 3.7099 0.54377 7.8724 0.70578 9.25 0.36002 1.3776-0.34576 2.5048-1.2426 2.5048-1.993s0.7875-1.5687 1.75-1.8185c0.9625-0.24982 4.3375-0.3621 7.5-0.2495l5.75 0.20471 0.11842-5.6171c0.0651-3.0894-3e-3 -6.0671-0.15225-6.6171-0.14888-0.55-0.29859-1.7875-0.33271-2.75-0.0341-0.9625-0.45773-1.75-0.94137-1.75-0.48363 0-1.1174 0.91048-1.4084 2.0233l-0.52911 2.0233-1.2629-1.7272c-0.92878-1.2702-0.9844-2.3385-0.21022-4.0377 0.78557-1.7241 1.5813-2.1514 3.1357-1.6837 1.1456 0.34472 2.3955 0.91368 2.7775 1.2644 0.38198 0.35068 0.94605 2.0726 1.2535 3.8264 0.30744 1.7539 0.15397 3.4391-0.34103 3.7451-0.495 0.30593-0.93003 3.0694-0.96672 6.1411l-0.0667 5.5849 5.4632-0.38888c3.0048-0.21389 5.4632-0.024872 5.4632 0.42003s-1.4625 0.85873-3.25 0.91961-4.2625 0.02868-5.5-0.07157c-1.2375-0.10024-2.25 0.28305-2.25 0.85175 0 0.62272 2.8838 1.009 7.25 0.97101 3.9875-0.03465 7.7-0.0041 8.25 0.06797 0.55 0.07203 0.17964 0.60803-0.82303 1.1911l-1.823 1.0602 1.5971 1.7648c0.884 0.9768 1.3154 2.4992 0.96604 3.4094-0.3471 0.90454-1.0595 1.6446-1.5831 1.6446-0.52361 0-0.67391 0.45-0.33399 1 0.38687 0.62597-1.3677 0.93712-4.691 0.8319l-5.309-0.1681 3.75-0.39226c2.4151-0.25263 3.75-0.90472 3.75-1.8319 0-1.0129-1.1857-1.4396-4-1.4396-2.8889 0-4-0.41667-4-1.5 0-0.825 0.47656-1.5 1.059-1.5s0.76245 0.47985 0.39999 1.0663c-0.43438 0.70284 0.65334 0.9585 3.191 0.75l3.85-0.31633 0.67716-4.7904-3.8386 0.63421c-2.1112 0.34882-4.8511 0.63916-6.0886 0.64522-1.5797 0.0077-2.25 0.60686-2.25 2.011 0 1.1 0.43588 2 0.96862 2 0.53273 0 0.69216 0.72042 0.35428 1.6009-0.33788 0.88051-0.0152 1.9712 0.71708 2.4238l1.3314 0.82286-1.3658 1.6457c-0.75121 0.90516-2.1848 1.4316-3.1857 1.1698-1.0009-0.26175-1.8199-0.068032-1.8199 0.43048 0 0.49851 4.0766 0.90638 9.059 0.90638 5.1856 0 8.8186-0.38899 8.4968-0.90976-0.30924-0.50037-0.28765-1.6254 0.048-2.5 0.36321-0.94658 1.7812-1.5902 3.5032-1.5902 1.5912 0 2.893-0.43588 2.893-0.96862 0-0.53274-0.675-0.70959-1.5-0.39301-0.95719 0.36731-1.5-0.01728-1.5-1.0628 0-0.9011 0.69443-1.9048 1.5432-2.2305l1.5432-0.59217-1.6411-1.8134c-0.90262-0.99739-1.3265-2.3225-0.94202-2.9446 0.38451-0.62215 1.3115-0.89618 2.0601-0.60894l1.361 0.52225-0.0814-5.7041c-0.0448-3.1372-0.0277-6.2666 0.0379-6.9541s0.77844-1.25 1.5841-1.25 2.0215 1.0125 2.7019 2.25 1.3314 2.8125 1.4467 3.5c0.11529 0.6875-5e-3 1.25-0.26765 1.25-0.26249 0-1.3477-0.46583-2.4115-1.0352l-1.9342-1.0352v5.0704h8.4167c5.7556 0 8.6011-0.39522 9-1.25 0.34855-0.74689 0.78421-0.84751 1.0824-0.25 0.28743 0.57591 3.9982 0.89829 8.75 0.76016 4.538-0.13191 31.11-0.2983 59.048-0.36975 27.938-0.07145 51.076 0.14897 51.417 0.48984s0.38118 0.85831 0.0896 1.1499c-0.29157 0.29157-17.917 0.51412-39.167 0.49456-23.594-0.021722-38.637 0.33204-38.637 0.90864 0 0.57484 14.893 0.96424 38.071 0.99541 20.939 0.02816 38.772 0.44344 39.628 0.92285 0.85666 0.47941 1.1623 1.082 0.67915 1.3392s-5.8284 0.09968-11.878-0.34988c-6.05-0.44956-32.575-0.56198-58.944-0.24982l-47.944 0.56756-3.7018 2.5928 1.6269 0.62428c0.89477 0.34336 2.49 0.62428 3.5451 0.62428 1.055 0 1.8057-0.50625 1.6682-1.125s0.38421-1.3552 1.1594-1.6364c1.0098-0.36647 1.2164-0.0085 0.72853 1.2627l-0.68083 1.7742 52.144-0.5693c28.679-0.31312 55.239-0.30984 59.021 0.0073 3.7827 0.31712 6.8776 0.84882 6.8777 1.1816s-27.675 0.51771-61.5 0.41106c-38.034-0.11992-61.5 0.16625-61.5 0.74999 0 0.51915-0.47656 0.9439-1.059 0.9439s-0.7809-0.45-0.44098-1 0.16944-1-0.37883-1c-0.54828 0-0.92908 0.9-0.84622 2 0.0829 1.1 0.4149 2 0.73785 2 0.32296 0 1.1081-0.52093 1.7448-1.1576l1.1576-1.1576 3.1797 2.639 60.953-0.62768c43.342-0.44633 60.953-0.31585 60.953 0.45164 0 0.64809-1.2939 0.88942-3.2385 0.60402-1.7812-0.26142-4.5586-0.09669-6.1722 0.36607-1.6135 0.46276-3.4187 0.50794-4.0116 0.10042-0.59281-0.40753-3.5528-0.68142-6.5778-0.60866-3.025 0.07276-27.2 0.24124-53.721 0.3744l-48.221 0.2421-1.2144 1.4632-1.2144 1.4632 2.8714 1.8169-2.643 0.01531c-1.4537 0.0084-2.8356 0.57781-3.071 1.2653-0.23537 0.6875-0.33568 3.3875-0.22292 6 0.11277 2.6125-0.23277 4.75-0.76786 4.75-0.5601 0-0.82914-2.5466-0.63408-6.0018 0.19828-3.5123-0.076-6.0502-0.66118-6.1184-0.55-0.06413-1.3375-0.06331-1.75 0.0018-0.4125 0.06513-0.75-0.2791-0.75-0.76495 0-0.48585 1.0125-1.1682 2.25-1.5164l2.25-0.63307-1.7345-1.3324c-0.95395-0.73284-1.452-1.6149-1.1069-1.96 0.34517-0.34517-0.14955-0.9258-1.0994-1.2903l-1.727-0.6627 1.3338-0.84552 1.3338-0.84552-1.2814-0.01531c-0.70477-0.0084-1.5578 0.7051-1.8957 1.5856-0.33788 0.88051 0.0137 1.9986 0.78138 2.4847l1.3957 0.88378-1.5 0.1338c-0.825 0.07359-2.0625 0.06075-2.75-0.02852-0.6875-0.08928-1.25 0.47992-1.25 1.2649s0.99285 1.6868 2.2063 2.0042c1.2135 0.31733 1.9231 0.8602 1.5769 1.2064-0.34618 0.34618-8.989 0.60975-19.206 0.58571l-18.577-0.043708v3.8722c0 2.1297-0.22027 4.4715-0.4895 5.204-0.26922 0.73248-0.15633 1.8519 0.25086 2.4877l0.74035 1.1559 12.28-1.0747c7.6896-0.67293 12.633-0.72224 13.223-0.13193 0.57143 0.57143 0.59298 2.1149 0.0547 3.9188l-0.88799 2.976-0.08596-2.25-0.08595-2.25h-7v2.941c0 1.6175 0.445 3.216 0.98888 3.5521 0.60631 0.37472 0.36838 1.5582-0.61501 3.059-0.88214 1.3463-2.0546 2.4479-2.6055 2.4479s-0.78151-1.1511-0.51257-2.558l0.489-2.558-1.4542 0.55803c-0.79981 0.30692-2.4936 0.55803-3.764 0.55803-1.6298 0-2.4945 0.736-2.9373 2.5-0.34511 1.375-1.1177 2.5-1.7168 2.5-0.66264 0-0.84357-0.9793-0.4619-2.5l0.62746-2.5h-7.2253l-0.52301 2c-0.28766 1.1-0.94709 2-1.4654 2s-0.66427 0.45-0.32435 1 2.729 0.9973 5.309 0.99401c2.58-0.0033 8.3807-0.29324 12.89-0.64431l8.1994-0.63832 0.30064-2.0274c0.16535-1.115 0.92665-2.2338 1.6918-2.4861l1.3911-0.4587-0.69193 2.7569-0.69192 2.7569 1.6326-0.62648c0.89792-0.34456 2.7208-0.62648 4.0508-0.62648h2.4182v-4.9002l-11.5-0.72164 11.249-0.37817-0.50415-9.25c-0.27728-5.0875-0.24598-9.0127 0.0696-8.7227 0.31555 0.29004 0.77714 3.9698 1.0258 8.1773 0.24864 4.2075 0.75076 8.1333 1.1158 8.724 0.41731 0.67522 4.2618 0.98069 10.354 0.82267l9.6901-0.25135 0.63284-5.5h-7.3201l-0.60206 2.25-0.60205 2.25-0.72777-3.4932c-0.40027-1.9213-0.61074-3.6103-0.4677-3.7533 0.14303-0.14304 10.732-0.73479 23.532-1.315 12.8-0.58021 23.456-0.87074 23.681-0.64561s-0.47783 2.3888-1.5621 4.8082l-1.9714 4.3989 27.204 0.61619c14.962 0.3389 32.941 0.6764 39.954 0.75 7.0125 0.0736 12.75 0.54246 12.75 1.0419 0 0.49945-3.0375 0.85737-6.75 0.79536-3.7125-0.062-8.775 0.02538-11.25 0.1942-2.475 0.16881-14.625 0.0097-27-0.35365-12.375-0.36332-25.088-0.78753-28.25-0.94269l-5.75-0.28211v4.3575l32.75 0.90108c18.012 0.4956 37.605 0.85482 43.538 0.79827 7.5241-0.07171 10.673 0.23401 10.408 1.0106-0.24282 0.71202-3.7711 1.1134-9.7878 1.1134-5.1744 0-15.258-0.29267-22.408-0.65039s-20.875-0.72592-30.5-0.81824c-9.625-0.09232-20.2-0.13026-23.5-0.0843-3.3 0.04596-6.5456 0.43026-7.2124 0.85402-0.69827 0.44374-0.95902 1.7394-0.61488 3.0554l0.59752 2.2849 44.865-0.5703c27.669-0.35171 44.865-0.21081 44.865 0.36762 0 0.56664-15.708 0.97318-39.681 1.027-28.482 0.06394-40.074 0.41597-41.076 1.2474l-1.3957 1.1583-0.77865-1.2599c-0.45268-0.73246-2.2-1.1242-4.1738-0.9357-2.2072 0.21075-3.3951 0.84904-3.3951 1.8242v1.5l48.84-0.26965c34.324-0.18951 48.734 0.04801 48.484 0.7992-0.24311 0.72935-12.421 1.1241-38.34 1.2427-20.891 0.09563-41.021 0.33688-44.734 0.53613l-6.75 0.36226v5.0585l24.75-0.64284c13.612-0.35356 33.638-0.88712 44.5-1.1857 12.253-0.3368 19.75-0.1805 19.75 0.41177 0 0.52504-2.8125 1.1924-6.25 1.483s-11.875 0.58518-18.75 0.65466c-6.875 0.06948-23.892 0.28887-37.816 0.48752-13.924 0.19865-25.586 0.63148-25.917 0.96184-0.33036 0.33036 0.14935 0.60065 1.066 0.60065 0.91667 0 1.6667 0.45 1.6667 1s-0.675 1-1.5 1c-0.87947 0-1.5132 0.9308-1.5318 2.25l-0.0318 2.25-2.4531-3.2214-15.992 3.8189c-8.7954 2.1004-18.149 4.4972-20.786 5.3263l-4.7946 1.5074-0.58023-1.512c-0.31912-0.83162-0.35287-3.5291-0.075-5.9944l0.50523-4.4824-1.7489-0.93599c-0.96191-0.5148-1.9515-0.73343-2.1991-0.48583-0.24759 0.24759-8.2943 0.68718-17.881 0.97687-9.5872 0.28969-20.219 0.7794-23.625 1.0882l-6.194 0.56154-0.30598 3.4473c-0.16829 1.896-0.735 3.3254-1.2594 3.1764-0.52436-0.14899-0.82738-1.7334-0.67338-3.5209l0.28001-3.25-6.3266 0.0136c-3.4796 8e-3 -7.3147 0.27861-8.5224 0.60245l-2.1957 0.58879-0.38616 3.6476-0.38615 3.6476-0.16811-3.8631-0.1681-3.8631-11.25 0.64977c-6.1875 0.35738-15.075 1.0047-19.75 1.4385s-11.65 0.53778-15.5 0.23107-9.7-0.53861-13-0.51533c-3.3 0.0233-17.17 0.32459-30.822 0.66957-16.814 0.42488-25.283 1.0096-26.25 1.8124l-1.428 1.1852v-2.5032l-6.25 0.75016c-3.4375 0.41258-13.225 0.94582-21.75 1.185-8.525 0.23915-22.873 0.5222-31.885 0.62901l-16.385 0.1942-0.83231 2.25c-0.45777 1.2375-1.3271 2.25-1.9319 2.25zm271.79-3.0153c0.9625-8e-3 2.2969-0.36283 2.9653-0.78756 0.76645-0.48704 1.0944-2.605 0.88804-5.7347-0.2381-3.6105-0.70446-4.8719-1.7118-4.6302-0.76154 0.1827-1.9486 0.8003-2.638 1.3724s-1.2534 3.0102-1.2534 5.4178v4.3776zm5.8072-1.9847c0.30645 0 2.5801-0.50937 5.0525-1.1319l4.4953-1.1319-0.3025-3.6181-0.3025-3.6181-9.5-0.60958v5.0548c0 2.7801 0.25073 5.0548 0.55718 5.0548zm-273.56-1c0.55 0 0.94671-0.3375 0.88158-0.75-0.06513-0.4125-0.06513-1.3613 0-2.1084 0.0817-0.93717 0.89366-1.1638 2.6184-0.73095 1.8449 0.46304 2.5 0.22939 2.5-0.89159 0-1.0694-1.036-1.519-3.5-1.519h-3.5v3c0 1.65 0.45 3 1 3zm20-0.77092c6.325-0.37341 15.1-0.73406 19.5-0.80142 4.4-0.0674 14.188-0.19115 21.75-0.27507l13.75-0.15259v-6.2168l-2.4699 0.61992c-1.3585 0.34095-8.1085 0.65695-15 0.7022l-12.53 0.08229v1.4062c0 0.77341-0.47656 1.4062-1.059 1.4062s-0.7809-0.45-0.44098-1c0.39272-0.63543-2.3537-1-7.5332-1h-8.1513l-2.5426 2c-1.3984 1.1-3.3819 2-4.4077 2-1.0258 0-1.8651-0.45-1.8651-1s0.45-1 1-1 1-0.45 1-1c0-0.56226-2.795-1-6.385-1h-6.385l-3.1856 4.8619 1.7278 0.52306c0.9503 0.28769 6.9028 0.21754 13.228-0.15588zm265.25-1.2427c0.6875-8e-3 2.2625-0.285 3.5-0.61664 1.6737-0.44853 2.25-1.3415 2.25-3.4863v-2.8834h-7v3.5c0 2.1406 0.48549 3.4947 1.25 3.4864zm-189-1.3018c11.138-0.31254 20.362-0.59443 20.5-0.62641 0.1375-0.032 0.25-1.1607 0.25-2.5082v-2.4501l-19.25 0.53278c-10.588 0.29303-19.812 0.70645-20.5 0.91872-0.6875 0.21226-1.25 1.3569-1.25 2.5437v2.1578zm-73.25-0.68455c0.55 0 1-0.45 1-1s-0.45-1-1-1-1 0.45-1 1 0.45 1 1 1zm120.25-0.49122c13.888-0.34144 27.685-0.79856 30.661-1.0158 2.9759-0.21728 5.7815-0.97957 6.2347-1.694l0.82395-1.299 0.0153 1.25c0.01 0.78911 1.4901 1.25 4.0153 1.25h4v-2c0-1.1-0.45-2-1-2s-1-0.64359-1-1.4302v-1.4302l-2.75 0.76805c-1.5125 0.42243-5.45 0.89894-8.75 1.0589s-9.825 0.35634-14.5 0.43635c-4.675 0.08001-13.338 0.24709-19.25 0.37127l-10.75 0.22579-0.1268 4.5-1.8088-4.5-3.2822 0.01365c-1.8052 0.0075-4.2947 0.28499-5.5322 0.61663-1.5564 0.4171-2.25 1.3576-2.25 3.0511v2.4482zm149.6 0.49122c0.46792 0 2.2679-0.49402 4-1.0978 1.7321-0.6038 3.1492-1.7288 3.1492-2.5 0-0.9692-1.2351-1.4022-4-1.4022h-4v2.5c0 1.375 0.38285 2.5 0.85078 2.5zm-101.35-2c1.0723 0 1.4909-1.0692 1.4682-3.75l-0.0318-3.75-1.4682 1.9411c-0.80751 1.0676-1.4682 2.7551-1.4682 3.75s0.675 1.8089 1.5 1.8089zm7.1717-0.36847c2.5341-0.34734 6.3447-0.63153 8.4679-0.63153h3.8604v-6h-6.8776c-4.6703 0-7.2499 0.44865-8.0378 1.398-0.63812 0.76888-1.3538 2.4031-1.5904 3.6315l-0.43014 2.2336zm-188.99-0.91746 10.815-0.21407 0.31642-2.75 0.31642-2.75h-4.495c-2.753 0-5.104 0.60898-6.0664 1.5714-0.90149 0.90149-1.5714 1.0913-1.5714 0.44521 0-0.71967-1.7147-1.0162-4.75-0.82143l-4.75 0.30479-0.31484 2.2141-0.31484 2.2141zm24.315 0.12244c0.825 0.0749 2.5305-0.13987 3.79-0.47727 1.2595-0.3374 2.9625-1.9138 3.7843-3.5031l1.4943-2.8896-20.569 0.53343-0.10091 2.75c-0.0661 1.8013 0.40735 2.75 1.3724 2.75h1.4734l-1.1138-1.342c-0.61257-0.7381-0.81767-1.6381-0.45578-2s1.258-0.65799 1.9913-0.65799c0.73333 0 1.3333 0.87011 1.3333 1.9336 0 1.3417 0.84179 2.0611 2.75 2.3502 1.5125 0.22912 3.425 0.47787 4.25 0.55276zm185.37-0.25142c3.3731-0.26625 11.028-0.5639 17.01-0.66143 5.9824-0.0975 11.72-0.39773 12.75-0.66712 1.207-0.31563 1.873-1.3879 1.873-3.0154v-2.5256l-19.236 0.71204c-10.58 0.39162-19.377 0.85252-19.549 1.0242-0.17169 0.17169-0.0126 1.5058 0.35359 2.9648l0.66576 2.6526zm84.633 0.41491c1.65 0 3-0.39752 3-0.88337s-0.7875-1.0876-1.75-1.3372-2.3125-0.26462-3-0.0333c-0.6875 0.23132-1.25 0.83308-1.25 1.3372 0 0.50417 1.35 0.91667 3 0.91667zm-251.36-1.5431c3.2214-0.0819 6.367-0.21825 6.9904-0.30294 0.62335-0.0847 1.3806-1.0993 1.6827-2.2546 0.32485-1.2422 1.0133-1.8139 1.6848-1.3988 0.62451 0.38597 0.89392 1.3312 0.59869 2.1006l-0.53679 1.3988h11.704l0.52827-2.75c0.29055-1.5125 0.39743-2.8831 0.23751-3.0457-0.15993-0.16266-7.3413 0.01879-15.959 0.40322l-15.668 0.69896-1.0667 1.9931-1.0667 1.9931 2.0489-0.5358c1.1269-0.29469 2.2548 7.95e-4 2.5065 0.65663 0.29183 0.76049 2.5792 1.1385 6.3146 1.0435zm28.607-0.45254c2.3375 2e-3 11.225-0.52199 19.75-1.1653 8.525-0.64334 15.634-1.2672 15.799-1.3864s-6e-3 -1.4324-0.3794-2.9183l-0.67806-2.7016-19.241 1.372-1.622 2.0537c-1.0014 1.2678-2.245 1.8146-3.25 1.429-0.89538-0.34359-1.628-1.2359-1.628-1.9829 0-0.95768-0.95839-1.2259-3.25-0.90958-1.7875 0.24674-4.0227 1.1252-4.9671 1.952-0.94441 0.82688-2.5841 1.2767-3.6437 0.99961-1.3895-0.36335-1.8382-0.04978-1.6094 1.1248 0.17445 0.89572 0.35162 1.7411 0.3937 1.8786 0.0421 0.1375 1.989 0.25197 4.3265 0.25438zm177.32-0.1783c3.6133-0.13341 6.7808-0.58411 7.0388-1.0016 0.258-0.41745 1.8376-0.48529 3.5103-0.15075l3.0413 0.60825-0.66006-5.782-2.5 0.11977c-1.375 0.06587-5.7625 0.46799-9.75 0.8936l-7.25 0.77383v4.7814zm19.864-0.82608c3.7444 0 5.5923-0.40916 5.6454-1.25l0.0789-1.25 0.50439 1.25c0.27741 0.6875 1.8169 1.25 3.421 1.25h2.9167v-6h-3c-2.1463 0-3.033 0.498-3.116 1.75l-0.116 1.75-0.46684-1.7994-0.46683-1.7994-10.334 0.59877-0.63284 5.5zm21.566-0.48234 7.9997-0.017657 6.8e-4 -5.5h-6l-0.1268 4.5-0.90439-2.25-0.90436-2.25h-8.0644v5.5353zm-176.06-0.51766h6.0634v-7.0998l-11.5 0.59981-0.62672 6.5zm15.278-0.64558c4.007-0.1327 13.81-0.48854 21.785-0.79077 7.975-0.30223 15.738-0.55268 17.25-0.55658l2.75-0.007072v-5l-12.75-0.15222c-7.0125-0.08372-13.65-0.13724-14.75-0.11894-1.1 0.0183-6.6125 0.0868-12.25 0.15222l-10.25 0.11894v2.8333c0 1.5583 0.20903 3.0424 0.46451 3.2978 0.25548 0.25548 3.743 0.35594 7.75 0.22324zm49.838-0.10442 1.3472-1.25-1.2-1.2c-0.66-0.66-1.2-1.9321-1.2-2.8268v-1.6268l-6 0.88061v4.8636l7.0244-1.3178-1.3188 3.7272zm-186.93-1.625c1.7188-0.34375 4.1938-0.625 5.5-0.625 1.7083 0 2.375-0.5614 2.375-2 0-1.1-0.4132-2-0.91821-2-0.50502 0-1.63-0.27314-2.5-0.60699-1.0827-0.41549-1.5818-0.036895-1.5818 1.2v1.807l-1.2-1.2c-0.66-0.66-2.01-1.2-3-1.2-1.2762 0-1.8 0.76389-1.8 2.625v2.625zm76.375 0.375c0.21008 0 0.66008-0.45 1-1s-0.11008-1-1-1-1.3399 0.45-1 1 0.78992 1 1 1zm-65.637-1c1.1239 0 2.2806-0.87731 2.6369-2 0.34913-1.1 1.0545-2 1.5674-2 0.51294 0 0.93261 0.6375 0.93261 1.4167 0 0.77917-0.5625 1.675-1.25 1.9908-0.6875 0.31576-0.35 0.39108 0.75 0.16739 1.1-0.22369 4.1375-0.69711 6.75-1.052l4.75-0.64533v-4.4715l-17.5 2.094-0.6391 4.5zm180.19-0.083333c0.3025 0.04583 1.0709-0.4376 1.7076-1.0743 0.76878-0.76878 1.5917-0.83047 2.45-0.18365 0.71081 0.53568 3.9405 0.87255 7.1771 0.7486 3.6168-0.13852 6.2123-0.74217 6.7347-1.5664 0.46746-0.73754 0.85683-1.6785 0.86525-2.091s-5.1597-0.75-11.485-0.75-11.5 0.225-11.5 0.5 0.7875 1.3625 1.75 2.4167c0.9625 1.0542 1.9975 1.9542 2.3 2zm23.2-0.36876c0.6875-0.21413 8.6578-0.66521 17.712-1.0024 11.246-0.41882 16.707-0.99842 17.235-1.8293 0.42505-0.66892 0.77972-1.5537 0.78814-1.9662 8e-3 -0.4125-3.7406-0.75-8.3311-0.75-4.5905 0-12.466 0.29238-17.5 0.64974-6.6979 0.47543-9.1536 1.012-9.1536 2 0 0.74264-0.45 1.3503-1 1.3503s-1 0.43588-1 0.96862c0 0.53274 0.5625 0.79342 1.25 0.57929zm19.167-3.6268c-1.165-0.04798-1.4019-0.28494-0.60417-0.60417 0.72187-0.28887 1.5844-0.25334 1.9167 0.07895 0.33229 0.33229-0.25834 0.56864-1.3125 0.52522zm-197.92 2.2687c1.925-0.22473 3.5-0.80937 3.5-1.2992s0.9-0.89059 2-0.89059c1.1111 0 2-0.66667 2-1.5 0-0.94178-1.0234-1.5429-2.75-1.6152-1.5125-0.06333-3.65-0.01696-4.75 0.10306-1.1 0.12002-2.3306 0.73434-2.7347 1.3652-0.40408 0.63082-0.74158 1.8441-0.75 2.6961l-0.01531 1.5492zm-5.3333-0.18979c0.45833 0 0.83333-0.64844 0.83333-1.441s-0.40285-1.69-0.89522-1.9943c-0.49236-0.3043-1.1364 0.07515-1.4311 0.84322-0.29474 0.76807-0.26689 1.6655 0.06188 1.9943 0.32877 0.32877 0.97277 0.59777 1.4311 0.59777zm27.67-0.13142 14.663-0.13142-6.6418-0.77547c-3.653-0.42651-7.629-1.3038-8.8356-1.9496s-2.0422-1.3258-1.8569-1.5111 2.6557 0.26447 5.4896 0.99959c2.834 0.73512 7.1084 1.4314 9.4986 1.5472s5.1789-0.13806 6.1969-0.56428c1.0735-0.44946 2.1262-0.3296 2.5062 0.28539 0.42117 0.68146 5.1196 0.95708 13.149 0.77135 6.8716-0.15894 14.856-0.6285 17.744-1.0435l5.25-0.75446v-2.2878c0-1.2583-0.49316-2.4522-1.0959-2.6531-0.60275-0.20092-3.6402 0.87398-6.75 2.3887-3.1098 1.5147-8.1291 2.9834-11.154 3.2639-3.877 0.35944-4.7622 0.24958-3-0.37231 1.375-0.48523 3.85-0.93889 5.5-1.0081 1.65-0.06925 4.8-1.0119 7-2.0948l4-1.9689-31 1.1909-0.79969 1.3997c-0.43983 0.76981-1.4148 1.3997-2.1667 1.3997-0.75183 0-1.5296-0.48788-1.7284-1.0842-0.22071-0.66211-3.8542-1.1195-9.3333-1.1749-4.9346-0.04987-11.236-0.012-14.003 0.08418l-5.0308 0.17485-2.2648 6zm200.16-0.25219c3.575-0.31968 7.7375-0.58914 9.25-0.59881l2.75-0.017574v-4l-15.5-0.39172 7-0.35506c3.85-0.19529 7.3946-0.7492 7.8768-1.2309 0.48224-0.48172 0.58181-2.0511 0.22129-3.4876l-0.65551-2.6117-17.443 0.57703-0.31336 3.25c-0.23279 2.4144 0.0886 3.25 1.25 3.25 0.85985 0 1.5634 0.47656 1.5634 1.059s-0.42742 0.79486-0.94983 0.47199c-0.5224-0.32286-1.4066 0.26641-1.9648 1.3095-0.55825 1.0431-0.69333 2.2252-0.30018 2.6268 0.39315 0.40166 3.6398 0.46874 7.2148 0.14906zm-45.583-0.69533c1.0542 0.04342 1.6448-0.19293 1.3125-0.52522-0.33229-0.33229-1.1948-0.36782-1.9167-0.07895-0.79773 0.31923-0.56078 0.55618 0.60417 0.60417zm63.584-0.07431c2.7502-0.0213 5.2108-0.37924 5.468-0.79542s-0.0804-1.4797-0.75031-2.3633l-1.218-1.6066-8.5 1.182v3.6221zm9.9997 0.15326h3v-5.214l-1.5818 0.60699c-0.86998 0.33384-2.22 0.60699-3 0.60699-0.78001 0-1.4182 0.9-1.4182 2v2zm8-1h4v-2.107c0-1.5105-0.44784-1.9351-1.5818-1.5-0.86998 0.33384-2.67 0.60699-4 0.60699-1.4828 0-2.4182 0.5802-2.4182 1.5 0 1.0833 1.1111 1.5 4 1.5zm-172-1h6v-1.9503c0-1.0727 0.7875-2.4108 1.75-2.9736 1.2933-0.75624-0.27257-1.0016-6-0.94027l-7.75 0.083024v5.7812zm14.844-0.11832c2.011-0.065073 5.0064-0.46183 6.6564-0.88168l3-0.76337-3-0.27793c-1.65-0.15286 1.725-0.58315 7.5-0.95619 6.4534-0.41687 11.849-1.322 14-2.3486l3.5-1.6703-7.9009 0.5082c-4.3455 0.27951-12.67 0.51509-18.5 0.52351-6.5157 0.0094-10.062 0.35524-9.2057 0.89764 0.81636 0.51693 1.1657 1.753 0.84362 2.9847l-0.54978 2.1024zm0.09736-1.8817c-0.58246 0-0.7809-0.45-0.44098-1s0.81648-1 1.059-1 0.44098 0.45 0.44098 1-0.47656 1-1.059 1zm33.23 1.1775 8.9475-0.3225-0.30942-2.6775-0.30943-2.6775-3.3435-0.32034c-1.855-0.17772-4.081 0.30196-5 1.0775-0.91105 0.7688-3.5087 1.9254-5.7725 2.5703-2.2638 0.64489-5.1888 1.2258-6.5 1.2908l-2.384 0.11832 2.8619 0.63168c1.574 0.34743 6.8883 0.48656 11.809 0.30919zm-165.76-0.1775h3.4135l-0.73546-2.75c-0.4045-1.5125-1.2656-2.705-1.9135-2.65-0.64793 0.055-1.8531 0.1675-2.6781 0.25-0.89333 0.089333-1.5 1.1611-1.5 2.65v2.5zm11.086-0.56809c2.75-0.41311 6.3125-0.79179 7.9167-0.84151l2.9167-0.0904 0.9375-2.8125c0.51562-1.5469 0.77812-2.9148 0.58333-3.0398-0.19479-0.12504-3.184-0.05607-6.6427 0.15327l-6.2886 0.38061 0.60597 1.9092c0.41683 1.3133 0.12655 1.9092-0.93004 1.9092-0.95449 0-1.3181-0.56788-0.9604-1.5 0.42094-1.0969-0.1249-1.5-2.0314-1.5h-2.607v2.3333c0 1.2833 0.3375 2.6745 0.75 3.0915s3 0.42018 5.75 0.0071zm115-0.07028c0.825-0.31658 1.5-0.96334 1.5-1.4372s-0.675-0.6026-1.5-0.28602c-0.825 0.31658-1.5 0.96334-1.5 1.4372s0.675 0.6026 1.5 0.28602zm59.25 0.5395 9.75-0.09887-4.4422-1.3933c-2.4432-0.7663-4.9182-1.913-5.5-2.5483-0.77662-0.84797-0.59183-0.99102 0.69511-0.5381 0.96412 0.33931 5.7152 1.3044 10.558 2.1446 5.4418 0.94416 12.03 1.3472 17.247 1.0552 4.6431-0.2599 10.555-1.1299 13.138-1.9334 2.5828-0.80345 5.6724-1.9834 6.8657-2.622l2.1697-1.1612-0.44518 1.3356c-0.24486 0.73456-2.8844 2.1324-5.8657 3.1063l-5.4205 1.7707 7.5-0.4787c4.125-0.26329 8.9625-0.4924 10.75-0.50915l3.25-0.030447v-6.2291l-17.25 0.69174c-9.4875 0.38046-19.95 0.87421-23.25 1.0972s-11.288 0.46528-17.75 0.53836l-11.75 0.13288v5.7689zm-155.06-2.464c3.8285-0.25002 7.0274-0.97199 7.4752-1.6871 0.47967-0.76607 0.21216-1.3752-0.69097-1.5733-0.81052-0.17783-1.4737-0.7851-1.4737-1.3495 0-0.61666-1.803-0.84623-4.5181-0.57527-2.4849 0.24799-4.674 0.63025-4.8646 0.84948-0.19056 0.21923-0.8581 1.3828-1.4834 2.5857l-1.137 2.1871zm15.09-0.62645 4.8032-0.29173-0.84146-5.7332-4.1208 0.65833c-2.2664 0.36208-4.518 1.055-5.0036 1.5399-0.48553 0.48488-0.60332 1.6099-0.26175 2.5l0.62104 1.6184zm226.22 0.18936h5v-6h-10v6zm14.484-0.11061 7.2995 0.03811 0.42936-2.9254c0.23614-1.609-0.0622-3.114-0.66295-3.3445-0.60077-0.23054-3.4862-0.24176-6.412-0.02495-2.9258 0.21681-6.1788 0.854-7.2289 1.416-1.05 0.56197-1.9092 1.6059-1.9092 2.3199s0.26654 1.5647 0.5923 1.8905c0.32577 0.32577 3.8771 0.60945 7.8918 0.63042zm0.54725-0.88939c-0.56726 0-1.0245-0.3375-1.0161-0.75 8e-3 -0.4125 0.43396-1.412 0.94563-2.221 0.51167-0.80907 1.2354-1.166 1.6082-0.79313 0.37285 0.37285 0.41144 1.3723 0.0858 2.221-0.32573 0.84872-1.0563 1.5431-1.6236 1.5431zm-226.67 0h8.5022l0.63478-2c0.34913-1.1 1.1096-2 1.6898-2 0.65571 0 0.58385-0.56777-0.18983-1.5l-1.2449-1.5h21.245v-8.2333l-2.25 0.60298c-1.2375 0.33164-3.0375 0.60912-4 0.61663-1.1092 0.0087-1.7925 0.83749-1.866 2.2637l-0.116 2.25-0.45733-1.75c-0.3157-1.2081-1.4411-1.7453-3.634-1.7347-1.7472 0.0084-3.6717 0.34592-4.2767 0.75s-1.357 1.4097-1.671 2.2347l-0.571 1.5-0.0789-1.75-0.07899-1.75h-9v2.5c0 1.5556 0.56667 2.5 1.5 2.5 0.825 0 1.5 0.43588 1.5 0.96862 0 0.53274-0.675 0.70959-1.5 0.39301-1.0324-0.39618-1.5 0.06279-1.5 1.4724 0 1.1264-0.45 2.3261-1 2.666s-1.4718 0.32641-2.0486-0.03001c-0.7147-0.44171-0.66932-1.105 0.1425-2.0832 0.65508-0.78933 0.96986-1.6563 0.69949-1.9267-0.27036-0.27036-2.247-0.12866-4.3925 0.31489l-3.9009 0.80646-0.6391 4.4186zm7.0779-5c-0.24254 0-0.44098-0.45-0.44098-1s0.47656-1 1.059-1 0.7809 0.45 0.44098 1-0.81648 1-1.059 1zm22.306 4.3348c9.2109-0.23139 17.761-0.67515 19-0.98614s2.305-1.3041 2.3688-2.207l0.116-1.6416 0.45733 1.75 0.45732 1.75 9.3534-0.0156 2.3952-5.1611-6.3748 0.32783c-3.5062 0.18031-6.5872 0.10757-6.8468-0.16163-0.25957-0.2692 0.15767-1.0697 0.9272-1.7789 0.8078-0.74446 1.3991-0.85012 1.3991-0.25 0 0.64629 3.5931 1.0394 9.5 1.0394h9.5v-6.2188l-3.5 0.4086c-1.925 0.22473-3.5 0.06936-3.5-0.34528 0-0.41464 1.4625-0.98004 3.25-1.2564 1.7875-0.27641 9.775-0.74472 17.75-1.0407 7.975-0.29598 16.931-0.81732 19.901-1.1586l5.4014-0.62042-0.65142 1.6976c-0.35829 0.93368-0.67995 2.4483-0.71482 3.3658-0.043 1.1313-0.36689 0.91045-1.0064-0.6863-0.6303-1.5737-1.4655-2.154-2.5184-1.75-0.86644 0.33248-2.4385 0.60452-3.4936 0.60452h-1.9182v6h3.5c2.1252 0 3.506-0.49101 3.5153-1.25 0.0114-0.93333 0.23009-0.91116 0.86309 0.08749 0.46628 0.73562 1.9219 1.1856 3.2347 1l2.3869-0.33749v-21.901l-13 0.20201c-7.15 0.1111-15.7 0.43111-19 0.71112s-8.6754 0.72732-11.945 0.99403c-3.27 0.2667-6.3974 0.937-6.95 1.4896-0.55256 0.55256-1.9272 0.99776-3.0546 0.98934l-2.05-0.015313 1.5-0.96937c1.0849-0.70111 0.18547-0.97361-3.25-0.98469l-4.75-0.015313-0.1268 9.25-0.12681 9.25-0.89334-6.5c-0.49134-3.575-0.66371-7.7716-0.38304-9.3258l0.51029-2.8258-4.2402 0.25444c-2.3321 0.13994-5.2367 0.60684-6.4548 1.0375-1.3272 0.4693-2.4766 0.35925-2.8683-0.27464-0.35955-0.58176 0.12847-1.8021 1.0845-2.7118 1.2904-1.2279 1.8576-1.332 2.2017-0.40404 0.28461 0.76767 2.3606 1.25 5.3801 1.25h4.9167v-4.9617l-4.25 0.44747c-2.3375 0.24611-8.2794 0.69719-13.204 1.0024-5.4183 0.3358-9.2685 1.04-9.75 1.7834l-0.79571 1.2285-0.8882-1.3781c-0.4885-0.75796-1.3885-1.0689-2-0.69098-0.61149 0.37792-1.1118 1.4002-1.1118 2.2717v1.5846l6.9401-0.64502c4.2702-0.39688 7.1782-0.25977 7.559 0.3564 0.39539 0.63977-2.5804 1.0014-8.2401 1.0014-5.7117 0-9.3312 0.44408-10.188 1.25l-1.3291 1.25 0.6871-2.9051c0.45499-1.9237 0.25502-3.1722-0.59193-3.6956-0.70347-0.43477-0.99399-1.0755-0.64561-1.4239s5.9603-0.82736 12.471-1.0644c6.5107-0.23705 14.65-0.68729 18.088-1.0006l6.25-0.56956v-1.8134c0-0.99738-0.7875-2.1316-1.75-2.5206l-1.75-0.70715 2.3338-0.8986c1.2836-0.49423 2.1461-1.4617 1.9167-2.1498-0.24968-0.74905-2.1842-1.2512-4.82-1.2512h-4.403l-0.67404 3.5h2.6323c1.4478 0 2.3935 0.38647 2.1016 0.85882-0.29193 0.47235-3.806 0.85989-7.809 0.86121-4.003 0.0013-5.8157-0.18866-4.0282-0.42218 2.4017-0.31376 3.25-0.93004 3.25-2.3612 0-1.429-0.72085-1.9551-2.75-2.0069l-2.75-0.07029 2-0.80458c1.1-0.44252 2.3415-0.60685 2.759-0.36517 0.41742 0.24168 1.6549 0.15504 2.75-0.19252 1.0951-0.34756 1.991-1.2766 1.991-2.0645v-1.4326h-21v1.5c0 0.93337 1.0388 1.5566 2.75 1.6498l2.75 0.14983-5.5 0.83318v4.8672l5.25 0.13618c2.8875 0.0749 4.125 0.34527 2.75 0.60082s-2.8718 0.98177-3.3261 1.6138c-0.61259 0.85214-0.95724 0.82608-1.3333-0.10082-0.27897-0.6875-1.1447-1.25-1.9239-1.25-0.77917 0-1.4167 0.9-1.4167 2s-0.45 2-1 2-1-0.45-1-1-0.6375-1-1.4167-1c-0.77916 0-1.606-0.5625-1.8374-1.25l-0.42071-1.25-1.5716 1.2969c-1.0265 0.84707-1.548 2.855-1.5036 5.7892 0.0373 2.4708 0.44759 4.727 0.91164 5.0138s0.36993 1.4067-0.20915 2.4888c-0.61651 1.152-1.5429 1.6645-2.2351 1.2367-0.65024-0.40187-2.0902-0.80996-3.1998-0.90687-1.1097-0.09691-2.8005 0.5099-3.7574 1.3485s-3.9944 1.7413-6.75 2.0061c-2.7556 0.26478-5.0101 0.87416-5.0101 1.3542s-0.45 0.87277-1 0.87277-1-0.60526-1-1.345c0-0.73976-0.8891-2.1496-1.9758-3.1331l-1.9758-1.788-7.7742 0.57909c-4.2758 0.3185-14.862 0.73762-23.524 0.93137-8.6625 0.19375-15.75-0.00696-15.75-0.44603 0-0.43907 0.39752-0.79831 0.88337-0.79831 0.48585 0 1.1186-0.89955 1.4061-1.999 0.28751-1.0995 0.08942-2.2668-0.4402-2.5941-0.52962-0.32733-2.0624-0.3192-3.4061 0.01806-1.3437 0.33725-2.4432 1.2573-2.4432 2.0444s0.7875 1.8899 1.75 2.4505c0.97121 0.56568 1.1937 1.0328 0.5 1.0497-0.6875 0.01673-1.25 0.73197-1.25 1.5894 0 0.98107 0.46339 1.2806 1.25 0.80804 0.86712-0.52095 0.8344-0.23849-0.10683 0.92217-0.81973 1.0108-1.2051 3.264-0.97357 5.692l0.38326 4.0188h-4.7861l0.60298 2.25c0.33164 1.2375 0.60912 3.4251 0.61663 4.8613l0.013655 2.6113 2.5-0.4779c1.375-0.26285 2.5-0.85961 2.5-1.3261 0-0.46653 0.85191-1.3042 1.8931-1.8614l1.8931-1.0132 2.473 1.9452c1.3601 1.0699 2.6457 1.7865 2.8569 1.5925 0.21115-0.19401 5.7839-0.63978 12.384-0.99062 6.6-0.35084 15.375-0.92848 19.5-1.2837s8.625-0.68216 10-0.72663l2.5-0.080841 1-7.4728 12.5-0.55732c6.875-0.30652 13.85-0.69526 15.5-0.86386 1.65-0.1686 5.475-0.79383 8.5-1.3894s7.5976-1.3595 10.161-1.6977c2.5637-0.33816 4.8692-0.25575 5.1234 0.18313 0.25413 0.43889 0.12535 2.823-0.28616 5.298l-0.74821 4.5-0.12516-3.75-0.12517-3.75-2.75 0.01365c-1.5125 0.0075-3.7625 0.28499-5 0.61663l-2.25 0.60298v6.7667h8.6667c4.7667 0 8.3533 0.31335 7.9703 0.69633-0.38298 0.38298-2.8205 0.76642-5.4167 0.8521-2.5962 0.08567-6.1525 0.22232-7.903 0.30367-2.2253 0.10342-3.3736 0.7495-3.8174 2.1479-0.34913 1.1-1.0544 2-1.5674 2-0.51293 0-0.93261-0.6375-0.93261-1.4167 0-0.77917 0.5625-1.6436 1.25-1.9211 0.6875-0.27741-2.9125-0.53991-8-0.58333l-9.25-0.078947v5.7555zm-8.5926-0.55292c-0.84112 0.28037-1.216-0.17677-1-1.2195 0.19002-0.91739 0.7955-1.6442 1.3455-1.6152 0.55 0.02905 1 0.57782 1 1.2195 0 0.64167-0.60548 1.3685-1.3455 1.6152zm19.846-1.2818c-0.55 0.33992-1-0.05697-1-0.88197 0-0.825 0.45-1.7781 1-2.118s1 0.05697 1 0.88197c0 0.825-0.45 1.7781-1 2.118zm-36.383-13.5c-0.76085 0-1.6144-0.88346-1.8968-1.9632-0.28237-1.0798 0.10941-2.4801 0.87063-3.1119s2.0353-0.89872 2.8314-0.59325 1.928 1.4535 2.5154 2.5512c0.68264 1.2755 0.71683 2.2129 0.0947 2.5974-0.53536 0.33087-1.2653-0.56142-1.622-1.9829-0.35676-1.4214-1.1575-2.4151-1.7793-2.208s-1.2864 1.1799-1.4768 2.162c-0.21262 1.0968 0.0767 1.5243 0.75 1.1081 0.6029-0.3726 1.0962-0.20089 1.0962 0.38157s-0.62252 1.059-1.3834 1.059zm8.05-1.3333c-0.36667 0.36667-0.66667 0.066666-0.66667-0.66667s0.3-1.0333 0.66667-0.66667c0.36666 0.36667 0.36666 0.96667 0 1.3333zm49.261-1.6667c-0.54465 0-1.2493-0.675-1.5659-1.5-0.31659-0.825-1.2025-1.5-1.9686-1.5-0.76615 0-1.393-0.39375-1.393-0.875s1.3962-1.1542 3.1027-1.4955c1.7065-0.3413 3.5065-0.37099 4-0.06598 0.49351 0.30501 0.89729 0.12034 0.89729-0.41037 0-0.56882 1.0231-0.49042 2.4922 0.19098 1.3707 0.63575 2.4846 1.3809 2.4754 1.6559-9e-3 0.275-1.5992 1.2875-3.5333 2.25-1.9341 0.9625-3.9621 1.75-4.5068 1.75zm-45.428-2c-0.83333 0-1.5-0.88889-1.5-2s0.66667-2 1.5-2 1.5 0.88889 1.5 2-0.66667 2-1.5 2zm22.691-0.0318c-0.38004-0.01749-1.5581-0.68784-2.618-1.4897s-1.6771-1.7078-1.3716-2.0133c0.30549-0.30548 1.6226-0.61756 2.927-0.69352 1.3044-0.07595 3.8341-0.05566 5.6216 0.04509 1.7875 0.10075 3.25 0.63318 3.25 1.1832s-1.3234 1-2.941 1-3.2191 0.45-3.559 1-0.92898 0.98569-1.309 0.9682zm33.25-0.9682c-0.85746 0-1.2809-0.45-0.94098-1s1.0415-1 1.559-1 0.94098 0.45 0.94098 1-0.70156 1-1.559 1zm-49.441-1c-0.55 0-1-0.70156-1-1.559s0.45-1.2809 1-0.94098 1 1.0415 1 1.559-0.45 0.94098-1 0.94098zm7.559-22c-0.24254 0-0.76207-0.51953-1.1545-1.1545-0.44208-0.7153-0.27432-0.88306 0.44098-0.44098 0.63498 0.39244 1.1545 0.91197 1.1545 1.1545s-0.19844 0.44098-0.44098 0.44098zm-3.559-1c-0.73333 0-1.0333-0.3-0.66667-0.66667 0.36667-0.36667 0.96667-0.36667 1.3333 0 0.36666 0.36667 0.06666 0.66667-0.66667 0.66667zm45.637 43.904c4.5998-0.06467 8.3743-0.40696 8.3876-0.76064 0.0134-0.35368 0.29237-3.0341 0.62004-5.9564l0.59577-5.3134-8.7401 0.62673v4.9804l6 1.283-2.628 0.11832c-1.4598 0.06572-3.3712 1.1185-4.3 2.3683l-1.672 2.25 0.91276-4.5h-6.5796l-0.95988 5.0213zm17.293-0.9037h8l1.0352-1.9343c0.56935-1.0638 1.0352-2.1888 1.0352-2.5 0-0.31116-2.0447-0.56574-4.5438-0.56574h-4.5438l0.29383 1.6463c0.16161 0.90544-0.20414 1.8214-0.81278 2.0355-0.75643 0.26609-0.94883-1.2529-0.608-4.8l0.49863-5.1893-2.392 0.64011c-1.3156 0.35206-2.9858 0.64626-3.7116 0.65377-0.78827 0.0082-1.1909 0.90305-1 2.2227 0.19623 1.3565 1.2844 2.4758 2.8196 2.9003l2.5 0.69132-2.2148 0.09968c-1.2182 0.054824-2.6965 0.99968-3.2852 2.0997l-1.0704 2zm13.709-0.26168c1.8905-0.13421 3.358-0.78439 3.3591-1.4883 1e-3 -0.6875 0.452-1.25 1.002-1.25s1-0.45 1-1-1.7475-1-3.8834-1h-3.8834l-0.95134 4.9766zm28.284-0.3584c8.0173-0.31138 14.781-0.76626 15.031-1.0108s0.58841-1.4402 0.75212-2.6569l0.29763-2.2122-11.004 0.6851v1.9075c0 1.0735-0.69227 1.9074-1.5833 1.9074-0.91077 0-1.3358-0.53097-1.0006-1.25 0.32048-0.6875 0.86047-2.0375 1.2-3l0.61727-1.75h13.767v-1.8c0-0.99-0.54-2.34-1.2-3s-2.5725-1.1939-4.25-1.1863c-1.6775 0.0075-4.0625 0.28499-5.3 0.61663s-2.3022 1.338-2.366 2.2363l-0.116 1.6334-0.45733-1.75c-0.32332-1.2372-1.4614-1.75-3.884-1.75-2.3126 0-3.4754 0.48768-3.5767 1.5-0.0825 0.825-0.195 2.0625-0.25 2.75s1.475 1.5283 3.4 1.8684l3.5 0.61836-7.4619 0.26328-0.62746 2.5c-0.3451 1.375-1.2537 2.5-2.019 2.5-0.8177 0-1.3916-1.031-1.3916-2.5v-2.5h-2.9182c-1.605 0-3.63 0.27314-4.5 0.60699-0.86999 0.33384-1.5818 1.1438-1.5818 1.8s0.52787 1.7209 1.173 2.366c0.84395 0.84394 5.2626 1.0142 15.75 0.60689zm-11.423-2.3799c-0.275 0-0.5-0.225-0.5-0.5s0.225-0.5 0.5-0.5 0.5 0.225 0.5 0.5-0.225 0.5-0.5 0.5zm-8.0936 2h2.4064l-0.52301-2c-0.28947-1.1069-1.364-2-2.4064-2-1.2167 0-1.8834 0.70795-1.8834 2 0 1.4459 0.66667 2 2.4064 2zm-117.63-2.4689c0.76122-0.2921 2.5847-0.53142 4.0522-0.5318l2.6682-7.06e-4 0.14421-2.4993 0.14422-2.4993h-9.7884v2.3333c0 1.2833 0.31399 2.6473 0.69777 3.0311 0.38377 0.38377 1.3206 0.45877 2.0818 0.16667zm196.72 0.4689c3.2514 0 4.5-0.39982 4.5-1.441 0-0.79254 0.52089-1.7629 1.1575-2.1564 0.79309-0.49015 0.97999-0.03647 0.59362 1.441l-0.5639 2.1564h3.2914c2.3673 0 3.7312-0.67129 4.858-2.391l1.5666-2.391-19.903-0.27925v5.0613zm20.973 0c2.9748 0 5.7004-0.47185 6.0568-1.0486 0.44171-0.7147 1.105-0.66933 2.0832 0.1425 0.78933 0.65508 1.5934 1.0144 1.7868 0.79856 0.19338-0.21588 0.66283-1.405 1.0432-2.6425l0.69162-2.25h-2.3268c-1.2798 0-2.8998 0.91746-3.6001 2.0388s-1.7304 1.7563-2.2891 1.411c-0.66386-0.41029-0.59108-1.1396 0.21007-2.105l1.2259-1.4771-8.6373 0.63233-1.653 4.5zm19.953-1h7.5733l0.11848-1.75c0.0652-0.9625 0.0532-2.2786-0.0265-2.9246s0.31693-1.4601 0.88152-1.809c0.56457-0.34893 1.0265-1.8679 1.0265-3.3754s0.5625-3.3076 1.25-4.0002l1.25-1.2592-2 0.73383c-1.1 0.40361-2.3599 1.3303-2.7997 2.0592s-1.4523 1.3254-2.25 1.3254c-0.81522 0-1.4503 0.937-1.4503 2.1398 0 1.1769 0.7875 2.7376 1.75 3.4682l1.75 1.3284-1.6276 0.0318c-0.89515 0.017495-2.1878 0.70681-2.8724 1.5318s-1.7523 1.4857-2.3724 1.4682c-0.62016-0.017492-0.22756-0.71784 0.87244-1.5563l2-1.5245-9.982 0.61266-0.66464 3.5zm-136.93-2h4.5v-5.823l-1.75 0.335c-0.9625 0.18425-2.9875 0.36944-4.5 0.41152l-2.75 0.076511v5zm25.968-0.84255 5.5317-0.34255v-2.8241c0-1.5533-0.5625-3.025-1.25-3.2705s-0.96224-0.75829-0.61054-1.1395c0.35171-0.38117 6.26-0.9586 13.13-1.2832l12.49-0.59015 0.63726-5.4221c0.35049-2.9821 0.44758-5.7288 0.21576-6.1037-0.23183-0.3749-6.8769-0.68164-14.767-0.68164h-14.345l-0.57341 7-0.57342 7-0.17658-7.3196-0.17659-7.3196-4.5 0.6391-0.28167 11-0.28168 11zm34.209-1.1574h4.4499l-0.62672-6.5-2 0.21725c-1.1 0.11949-3.1465 0.32078-4.5478 0.4473l-2.5478 0.23005 0.8227 5.6054zm6.6981 0c0.75625 0 2.7812-0.28125 4.5-0.625l3.125-0.625v-5.75h-9v3.5c0 2.303 0.47024 3.5 1.375 3.5zm60.73-1.116c0.33294 0.0638 1.1041-1.3465 1.7137-3.134l1.1083-3.25-1.0862 6.5h4.4725c3.1558 0 4.6512-0.46566 5.0794-1.5818 0.33385-0.86998 0.60699-2.9253 0.60699-4.5674v-2.9856l-2.1094 0.6695c-1.1602 0.36823-4.4873 0.6411-7.3936 0.60639l-5.2841-0.06312-0.59278 2.211c-0.32603 1.2161-0.59893 2.7405-0.60644 3.3877-8e-3 0.64717 0.77385 1.3825 1.7364 1.634 0.9625 0.25153 2.0224 0.50952 2.3553 0.57332zm-9.6053-0.884h4.5v-7h-3.4648c-2.4021 0-3.7823 0.59326-4.5 1.9343-0.56935 1.0638-1.0352 2.6388-1.0352 3.5v1.5657zm-281.5-1c0.55 0 1-0.19844 1-0.44098s-0.45-0.7191-1-1.059-1-0.14148-1 0.44098 0.45 1.059 1 1.059zm-0.08602-4c0.43777 0 0.8776-2.968 0.9774-6.5955l0.18145-6.5955-1.2864 0.4238c-0.70753 0.23309-1.4302 1.4011-1.606 2.5955-0.17575 1.1944 0.15645 2.1717 0.73821 2.1717 0.58177 0 0.95057 1.0125 0.81955 2.25-0.13102 1.2375-0.63336 2.5372-1.1163 2.8882-0.48296 0.35101-0.56891 1.1385-0.19098 1.75 0.37792 0.61149 1.0453 1.1118 1.4831 1.1118zm63.443-7.0997 4.857 0.09968-0.55596-1.4488c-0.33638-0.87659 0.2138-1.6931 1.393-2.0674 1.0719-0.34022 1.949-1.0648 1.949-1.6102s-0.41891-0.73273-0.9309-0.4163c-0.512 0.31643-1.2136 0.11799-1.559-0.44098-0.34546-0.55897-2.6266-1.0163-5.0691-1.0163h-4.441v2.559c0 1.4514 0.43284 2.2915 1 1.941 0.55-0.33992 1.558-0.27319 2.2399 0.14828 0.84394 0.52158 0.44474 0.98764-1.25 1.4593l-2.4899 0.69302zm-44.107-0.99553c5.6375-0.10537 11.938-0.40129 14-0.65759 2.6808-0.33314 3.75-0.95095 3.75-2.1668v-1.7008l-25.862-0.50613-1.0691 1.9976c-0.58798 1.0987-1.0691 2.2738-1.0691 2.6115 0 0.33766 4.6125 0.52772 10.25 0.42235zm38.25 0.095207c0.275 0 0.5-0.225 0.5-0.5s-0.225-0.5-0.5-0.5-0.5 0.225-0.5 0.5 0.225 0.5 0.5 0.5zm-12.059-1c4.0925 0 7.693-0.40775 8.001-0.90612s1.4596-0.67088 2.559-0.38337c1.4308 0.37417 1.999 0.03013 1.999-1.2105v-1.7332l-2.5239 0.48247c-1.3881 0.26536-2.7758 0.07474-3.0838-0.42359-0.31215-0.50507-3.2889-0.60332-6.7261-0.22199-3.3914 0.37624-6.4968 1.1818-6.9008 1.7902-0.40408 0.60836-0.74158 1.4436-0.75 1.8561-8e-3 0.4125 3.3331 0.75 7.4257 0.75zm30.441-1c0.55 0 1.2781-0.45 1.618-1s0.16803-1-0.38197-1-1.2781 0.45-1.618 1-0.16803 1 0.38197 1zm9.618-1c0.275 0 0.5-0.225 0.5-0.5s-0.225-0.5-0.5-0.5-0.5 0.225-0.5 0.5 0.225 0.5 0.5 0.5zm-10.25-1.545c1.2375-0.37388 2.6016-1.0033 3.0314-1.3988s-0.58272-0.51881-2.25-0.27411-3.0314 0.87417-3.0314 1.3988 1.0125 0.64799 2.25 0.27411zm47.921 0.54501c1.7442 0 4.0194-0.76752 5.0559-1.7056l1.8847-1.7056 2.0769 1.297c1.5195 0.94893 4.658 1.1353 11.694 0.69437 5.2894-0.33147 13.217-0.82134 17.617-1.0886 4.4-0.26726 12.388-0.5466 17.75-0.62074l9.75-0.13481v-2.9261l-52.914 0.69008-1.5111 2-1.5111 2-0.0318-1.75-0.03181-1.75h-13v5zm16.77-2c-0.51754 0-0.94098-0.45-0.94098-1s0.70156-1 1.559-1 1.2809 0.45 0.94098 1-1.0415 1-1.559 1zm-10 2c0.58246 0 1.059-0.45 1.059-1s-0.19844-1-0.44098-1-0.7191 0.45-1.059 1-0.14148 1 0.44098 1zm-129.76-2c0.52423 0 0.64048-1.0094 0.25914-2.25-0.38039-1.2375-0.86071-2.4375-1.0674-2.6667-0.20667-0.22917-0.58292-0.20952-0.83611 0.04367s-0.2007 1.4532 0.11663 2.6667c0.31733 1.2135 1.0048 2.2063 1.5277 2.2063zm4.4508-1.9274c1.4492-1.1399 3.2492-2.0726 4-2.0726 0.75083 0 1.4184 0.5625 1.4836 1.25 0.06513 0.6875 0.06513 1.5875 0 2s5.0677 0.75 11.406 0.75h11.525l0.97525-2.5651c0.53639-1.4108 0.97631-2.6483 0.9776-2.75 1e-3 -0.1017-3.5713-0.03899-7.9392 0.13934-5.3254 0.21743-8.3313 0.79391-9.1248 1.75-0.6508 0.78417-2.0282 1.4258-3.0608 1.4258-1.0327 0-1.8776-0.675-1.8776-1.5v-1.5h-12.214l0.60699 1.5818c0.33384 0.86998 0.60699 2.0276 0.60699 2.5726s1.1857 0.05813 2.6349-1.0818zm2.8651 1.9274c0.275 0 0.5-0.225 0.5-0.5s-0.225-0.5-0.5-0.5-0.5 0.225-0.5 0.5 0.225 0.5 0.5 0.5zm38.735-0.72779c3.4459-0.26811 6.822-0.93939 7.5025-1.4917 0.68049-0.55233 1.918-0.74302 2.75-0.42375 1.1086 0.42541 1.5127-0.10642 1.5127-1.9907v-2.5712l-8.5001 0.35262c-4.6751 0.19394-8.5001 0.07807-8.5-0.25748 7e-5 -0.33555 2.5562-0.87391 5.6804-1.1963 3.6164-0.37324 5.9961-1.1507 6.5497-2.1399 0.47821-0.85451 1.6346-1.5605 2.5698-1.569 1.1003-0.0099 1.2958-0.27456 0.55387-0.75-0.63055-0.40408-5.1306-0.59219-10-0.41804l-8.8536 0.31665-0.10419 2.8881c-0.0674 1.868 0.46244 3.0397 1.5 3.3173 1.0331 0.27643 0.80319 0.47054-0.64581 0.54524-1.2375 0.0638-2.25 0.5292-2.25 1.0342 0 0.50502-0.3009 1.7023-0.66867 2.6607l-0.66867 1.7425 2.1677-0.56686c1.1922-0.31177 2.3863-0.21318 2.6534 0.21911 0.26717 0.43228 3.3051 0.5666 6.751 0.29849zm17.297-0.27221c3.0169 0 4.7157-0.48023 5.0828-1.4369 0.30326-0.79027 1.1891-1.1921 1.9686-0.89301 0.99964 0.3836 1.4172-0.22432 1.4172-2.0631 0-1.4338-0.5625-2.6588-1.25-2.7221-0.6875-0.06334-2.15-0.05403-3.25 0.02068s-3.4625 0.37192-5.25 0.66047l-3.25 0.52463v5.9094zm11.719-0.18045c1.446-0.20536 2.3642-1.1236 2.5696-2.5696 0.21493-1.5134-0.1943-2.25-1.25-2.25-0.86325 0-1.5696-0.45-1.5696-1s-0.45-1-1-1-1 1.6063-1 3.5696v3.5696zm129.51 0.18045h14.759l1.3144-2.1046c0.92343-1.4787 0.95639-1.8834 0.11081-1.3608-0.76991 0.47583-1.0294 0.24331-0.72008-0.64536 0.26591-0.76406 1.2916-1.2415 2.2794-1.061l1.7959 0.3282-3.1824-3.1824-86.59 0.52603-0.33732 1.753-0.33731 1.753 27.324-0.11094c15.323-0.06221 28.121-0.53322 29.138-1.0724 1.2208-0.6471 2.2683-0.58439 3.2035 0.19179 0.85475 0.70938 4.1026 1.0248 8.4383 0.81939 3.8768-0.18364 7.0477 0.0036 7.0465 0.41612-1e-3 0.4125-3.5654 0.75-7.9205 0.75-4.355 0-8.63 0.27314-9.5 0.60699-0.86999 0.33384-1.5818 1.0088-1.5818 1.5s6.6418 0.89301 14.759 0.89301zm8.2406-3.17c-0.91898 0.01801-0.72531-0.3035 0.5-0.83004 1.1-0.47269 2.9-0.8462 4-0.83004l2 0.0294-2.5 0.80064c-1.375 0.44035-3.175 0.81387-4 0.83004zm-2.5-0.83004c-0.275 0-0.5-0.225-0.5-0.5s0.225-0.5 0.5-0.5 0.5 0.225 0.5 0.5-0.225 0.5-0.5 0.5zm36.24 3.7957 6.7397-0.29569 0.33367-1.75 0.33366-1.75h-14.147v4.0914zm-230.74-2.9536c1.375 0 1.9375-0.22697 1.25-0.50439-0.6875-0.27741-1.8125-0.27741-2.5 0-0.6875 0.27741-0.125 0.50439 1.25 0.50439zm209.5 0.1579c0.275 0 0.5-0.225 0.5-0.5s-0.225-0.5-0.5-0.5-0.5 0.225-0.5 0.5 0.225 0.5 0.5 0.5zm40.5 0c0.73333 0 1.0333-0.3 0.66667-0.66667-0.36667-0.36667-0.96667-0.36667-1.3333 0-0.36666 0.36667-0.06666 0.66667 0.66667 0.66667zm-266.4-2.2708c0.33229-0.33229 0.36782-1.1948 0.07895-1.9167-0.31923-0.79773-0.55618-0.56078-0.60417 0.60417-0.04342 1.0542 0.19293 1.6448 0.52522 1.3125zm7.1361 0.07074 5.7403-0.29991 0.35811-1.8802c0.19696-1.0341-0.09289-2.1591-0.64411-2.5-0.55122-0.3409-3.2955-0.4639-6.0984-0.27331l-5.0962 0.34651v4.9068zm9.7597 0.20009c0.825 0 1.5-0.17686 1.5-0.39301s-0.675-0.65203-1.5-0.96862c-0.825-0.31658-1.5-0.13973-1.5 0.39301 0 0.53274 0.675 0.96862 1.5 0.96862zm7.941 0c2.9925 0 5.7191-0.45 6.059-1s1.7165-1 3.059-1c1.3425 0 2.441-0.45 2.441-1s-0.675-1-1.5-1-1.3875-0.5625-1.25-1.25c0.15561-0.77807-0.69386-1.1636-2.25-1.0212-1.375 0.12581-5.2987 0.3745-8.7193 0.55265-3.4206 0.17814-6.5331 0.6377-6.9167 1.0212-0.38354 0.38354 0.27765 0.69735 1.4693 0.69735 1.5 0 2.1667 0.61538 2.1667 2v2zm225.56 0h4v-2c0-1.1-0.39375-2-0.875-2s-2.2812 0.28125-4 0.625-3.125 1.2438-3.125 2c0 0.9375 1.2727 1.375 4 1.375zm6 0c0.73333 0 1.0333-0.3 0.66667-0.66667-0.36667-0.36667-0.96667-0.36667-1.3333 0-0.36666 0.36667-0.06666 0.66667 0.66667 0.66667zm-198.5-3c0.275 0 0.5-0.225 0.5-0.5s-0.225-0.5-0.5-0.5-0.5 0.225-0.5 0.5 0.225 0.5 0.5 0.5zm6.375 0h4.875l0.61326-3.0663c0.34078-1.7039 1.0628-2.7885 1.625-2.441 0.56102 0.34673 1.0117-0.32086 1.0117-1.4986v-2.1239l-13 0.58382v8.5459zm-2.375-4c-0.275 0-0.5-0.225-0.5-0.5s0.225-0.5 0.5-0.5 0.5 0.225 0.5 0.5-0.225 0.5-0.5 0.5zm3.9167-0.07895c-1.165-0.04798-1.4019-0.28494-0.60417-0.60417 0.72187-0.28887 1.5844-0.25334 1.9167 0.07895 0.33229 0.33229-0.25834 0.56864-1.3125 0.52522zm5.677 4.079c0.49851 0 0.90638-0.9 0.90638-2s-0.17252-2-0.38337-2-0.61872 0.9-0.90638 2-0.11514 2 0.38337 2zm3.4064 0c0.93333 0 1.5-0.94444 1.5-2.5 0-1.375-0.40186-2.5-0.89301-2.5-0.49116 0-1.1662 0.7118-1.5 1.5818-0.33385 0.86998-0.60699 1.995-0.60699 2.5 0 0.50502 0.675 0.91821 1.5 0.91821zm2.941 0c0.24254 0 0.7191-0.45 1.059-1s0.14148-1-0.44098-1-1.059 0.45-1.059 1 0.19844 1 0.44098 1zm3.8442-0.0078c0.43185 0.0043 1.8905-0.71642 3.2414-1.6016 1.3509-0.88516 2.2085-2.0102 1.9058-2.5-0.30274-0.48984-2.2815-0.89062-4.3973-0.89062h-3.8469l1.1559 2.4922c0.63575 1.3707 1.5092 2.4957 1.9411 2.5zm141.38-1.3255c0.36666-0.36667 0.36666-0.96667 0-1.3333-0.36667-0.36667-0.66667-0.066666-0.66667 0.66667s0.3 1.0333 0.66667 0.66667zm28.766-0.66667h4.5674v-2c0-1.1-0.45-2-1-2s-1.0522 0.7875-1.116 1.75l-0.116 1.75-0.45733-1.75c-0.25152-0.9625-1.4368-1.8113-2.634-1.8862l-2.1767-0.13618 2.25-0.43337c1.2375-0.23835 2.25-1.107 2.25-1.9302 0-1.0385-0.82907-1.4-2.7073-1.1804l-2.7073 0.31642-0.36003 3.75-0.36002 3.75zm9.3174-0.03804c0.6875 0.02092 1.25-0.15016 1.25-0.38018 0-0.23002-0.27314-1.13-0.60699-2-0.33384-0.86998-1.4588-1.5818-2.5-1.5818-1.0412 0-1.893 0.24399-1.893 0.54221 0 0.29821 0.5625 1.1811 1.25 1.962s1.8125 1.4369 2.5 1.4578zm-258.5-1.3905c2.3375-0.11962 7.0625-0.29713 10.5-0.39446l6.25-0.17697v-3.7948l-8.75-0.40012c-4.8125-0.22007-9.5375-0.21376-10.5 0.014015-1.0333 0.24453-1.75 1.347-1.75 2.692v2.2778zm19.75-0.57143c0.55 0 1-0.19844 1-0.44098s-0.45-0.7191-1-1.059-1-0.14148-1 0.44098 0.45 1.059 1 1.059zm5.3 0c1.265 0 2.84-0.54 3.5-1.2s1.2-1.56 1.2-2-1.575-0.8-3.5-0.8h-3.5v2c0 1.4203 0.66667 2 2.3 2zm218.2 0c0.275 0 0.5-0.225 0.5-0.5s-0.225-0.5-0.5-0.5-0.5 0.225-0.5 0.5 0.225 0.5 0.5 0.5zm-211.5-1c0.73333 0 1.0333-0.3 0.66667-0.66667-0.36667-0.36667-0.96667-0.36667-1.3333 0-0.36667 0.36667-0.066666 0.66667 0.66667 0.66667zm11.031 0h8.0314l0.59215-1.5431c0.32569-0.84872 0.42406-1.6669 0.21862-1.8181-0.20545-0.15125-4.086-0.0842-8.6235 0.14901l-8.25 0.42402v2.7882zm12.573-0.27083c0.33229-0.33229 0.36781-1.1948 0.0789-1.9167-0.31922-0.79773-0.55618-0.56078-0.60416 0.60417-0.0434 1.0542 0.19292 1.6448 0.52522 1.3125zm23.038-0.72917c4.7725 0 6.4137-0.33564 6.1124-1.25-0.24212-0.73469-2.5978-1.3765-5.7141-1.5568-2.9162-0.16874-5.9469-0.05942-6.7348 0.24294-0.78792 0.30235-1.1525 1.0029-0.81019 1.5568 0.34232 0.55388 3.5584 1.0071 7.1467 1.0071zm141.36 0c0.55 0 1-0.70156 1-1.559s-0.45-1.2809-1-0.94098-1 1.0415-1 1.559 0.45 0.94098 1 0.94098zm34.667-1.0318c1.5583-0.017492 3.7333-0.71912 4.8333-1.5592l2-1.5274-4.4223 0.30918c-2.4322 0.17005-4.6072 0.87168-4.8333 1.5592-0.26535 0.80691 0.59328 1.2387 2.4223 1.2182zm9.9182 0.031803c0.13835 0 0.96335-0.27314 1.8333-0.60699 0.86999-0.33384 1.5818-1.0088 1.5818-1.5s-0.87344-0.89301-1.941-0.89301-2.1803 0.38723-2.4728 0.86052c-0.2925 0.47329-0.24406 1.1483 0.10765 1.5 0.35172 0.35171 0.75268 0.63948 0.89103 0.63948zm22.663-1.0983c11.569 0.05679 16.758-0.23746 15.752-0.89317-0.825-0.53782-8.3359-0.98474-16.691-0.99317-8.355-0.0084-15.444 0.3935-15.752 0.89317-0.32758 0.53003 6.6255 0.94376 16.691 0.99317zm-223.75-2.0064c3.575-0.11574 6.5-0.57795 6.5-1.0272 0-0.4492-1.4625-1.5747-3.25-2.501s-4.7125-2.0155-6.5-2.4204l-3.25-0.73605v6.895zm46.5 0.10477c1.1 0 2-0.38026 2-0.84501 0-0.46476-0.9-1.6595-2-2.655l-2-1.81v5.31zm82.667-3.3333c0.36666-0.36667 0.36666-0.96667 0-1.3333-0.36667-0.36667-0.66667-0.066666-0.66667 0.66667s0.3 1.0333 0.66667 0.66667zm-244.17 83.333c-0.275 0-0.5-0.225-0.5-0.5s0.225-0.5 0.5-0.5 0.5 0.225 0.5 0.5-0.225 0.5-0.5 0.5zm336.31 0c-0.99488 0-1.8076-0.5625-1.8059-1.25 2e-3 -0.75477 1.4392-1.2818 3.6283-1.3304l3.6253-0.0804-1.8194 1.3304c-1.0007 0.73173-2.6334 1.3304-3.6283 1.3304zm-307.14-1c-0.48646 0-0.61178-0.71066-0.27847-1.5792l0.60601-1.5792-5.9241 1.3012-0.59242-2.3604c-0.32583-1.2982-0.04938-3.6928 0.61434-5.3213 0.66372-1.6285 1.1097-3.949 0.99102-5.1566l-0.21574-2.1956 4.5645-2.0794c2.5105-1.1436 5.9747-2.3614 7.6984-2.7061l3.1339-0.62678-0.46105 1.4018c-0.25358 0.77098-1.6361 1.5415-3.0723 1.7123-1.8021 0.21427-2.7078 0.98896-2.9229 2.5-0.17139 1.2042-0.98663 2.2335-1.8116 2.2872-0.825 0.05373-2.3356 0.16623-3.357 0.25-1.261 0.10343-1.6611 0.66266-1.2468 1.7425 0.33562 0.87462-0.15508 2.8858-1.0904 4.4692s-1.3977 3.182-1.0274 3.5523c0.3703 0.3703 1.288 0.16305 2.0394-0.46055 0.7514-0.62361 1.6998-0.80023 2.1075-0.3925 0.40773 0.40772 0.59132 0.12257 0.40799-0.63368-0.18333-0.75625 0.22917-1.5812 0.91667-1.8333 0.6875-0.25209 1.25 0.2318 1.25 1.0753 0 0.8435 0.72984 1.9421 1.6219 2.4413l1.6219 0.90763-2.3444 1.6421c-1.2894 0.90313-2.7424 1.642-3.2288 1.642zm-4.1705-9c0.275 0 0.5-0.225 0.5-0.5s-0.225-0.5-0.5-0.5-0.5 0.225-0.5 0.5 0.225 0.5 0.5 0.5zm4-7c0.275 0 0.5-0.225 0.5-0.5s-0.225-0.5-0.5-0.5-0.5 0.225-0.5 0.5 0.225 0.5 0.5 0.5zm-20.404 15c-0.55314 0-1.3223-1.6875-1.7092-3.75s-0.63232-3.8625-0.54531-4c0.087-0.1375 0.49569-0.27656 0.90819-0.30902 0.4125-0.0325 1.0055 0.98004 1.3178 2.25l0.56779 2.309 1.7248-3.2827c0.95452-1.8167 2.2001-2.989 2.789-2.625 0.69149 0.42737 0.71594 0.87658 0.0698 1.2827-0.5469 0.34375-1.697 2.3125-2.5557 4.375s-2.0139 3.75-2.5671 3.75zm10.889-0.99206-2.0148 1.0783-0.60644-1.5804c-0.33354-0.8692 0.18327-2.453 1.1485-3.5195 0.96521-1.0666 2.1448-1.6982 2.6213-1.4037s0.86635 1.393 0.86635 2.4412-0.90668 2.391-2.0148 2.9841zm0.014837-2.0079c0.73333 0 1.0333-0.3 0.66667-0.66667-0.36667-0.36666-0.96667-0.36666-1.3333 0-0.36667 0.36667-0.066666 0.66667 0.66667 0.66667zm335 2.4442c-1.375 0.31666-3.162 0.14574-3.971-0.37983-0.80907-0.52556-1.2591-1.1452-1-1.3769 0.25907-0.23173 2.6549-0.65615 5.3241-0.94316l4.8531-0.52183-1.3531 1.323c-0.74419 0.72763-2.4781 1.5821-3.8531 1.8987zm-340.61-0.44415c-1.0545 0-1.3983-0.5438-1-1.5818 0.33384-0.86998 0.60699-1.7965 0.60699-2.059 0-0.26248 0.45-0.19912 1 0.1408s1 1.2665 1 2.059-0.72314 1.441-1.607 1.441zm329.11-1c-0.275 0-0.5-0.225-0.5-0.5s0.225-0.5 0.5-0.5 0.5 0.225 0.5 0.5-0.225 0.5-0.5 0.5zm-104-2c-0.275 0-0.5-0.225-0.5-0.5s0.225-0.5 0.5-0.5 0.5 0.225 0.5 0.5-0.225 0.5-0.5 0.5zm-221.83-3.3333c-0.36667 0.36666-0.66667 0.06666-0.66667-0.66667s0.3-1.0333 0.66667-0.66667c0.36667 0.36667 0.36667 0.96667 0 1.3333zm-16.78-3.6667c-0.66637 0-0.93813-1.1949-0.67678-2.9756 0.2402-1.6366-0.01469-3.1261-0.56641-3.31-0.55172-0.18391-0.7113-1.0949-0.35461-2.0244 0.35669-0.92952 1.1126-1.69 1.6799-1.69 0.571 0 1.0314 2.2319 1.0314 5 0 3.0064-0.44397 5-1.1135 5zm6.2844-1.3464-1.0364 1.8464-0.65586-1.7021c-0.36072-0.93616-0.3402-2.2129 0.04562-2.8371 0.46329-0.74962 1.0379-0.7986 1.6922-0.14426 0.65434 0.65434 0.63885 1.6177-0.04562 2.8371zm7.8291 0.25212c-0.275-0.035-1.0653-0.29154-1.7562-0.5701-0.69093-0.27855-0.91593-1.0305-0.5-1.6711 0.41593-0.64052 0.75623-2.2484 0.75623-3.573 0-1.3246 0.6308-2.6224 1.4018-2.8839l1.4018-0.47556-1.2174 6.087 3.3578 1.2885-1.472 0.93089c-0.80959 0.51199-1.697 0.90226-1.972 0.86726zm-0.5-4.9057c0.275 0 0.5-0.225 0.5-0.5s-0.225-0.5-0.5-0.5-0.5 0.225-0.5 0.5 0.225 0.5 0.5 0.5zm6.5 4c-0.55 0-1-0.42344-1-0.94098s0.45-1.2191 1-1.559 1 0.08352 1 0.94098c0 0.85746-0.45 1.559-1 1.559zm16.55-9.0789c-0.5775-0.043421-1.6125-0.30592-2.3-0.58333-0.6875-0.27741-1.25-1.1419-1.25-1.9211 0-0.77917-0.45-1.4167-1-1.4167s-1 0.765-1 1.7c0 1.095-0.34425 1.3557-0.96725 0.73275-0.53198-0.53198-0.7045-1.972-0.38337-3.2 0.33376-1.2763 1.3618-2.2328 2.3999-2.2328 0.99879 0 2.1016 0.9 2.4508 2s1.2795 2 2.0674 2c0.92512 0 1.4326-1.0627 1.4326-3 0-2.2222 0.46667-3 1.8-3 0.99 0 2.34 0.54 3 1.2s1.2 1.5758 1.2 2.0352-0.9 0.35352-2-0.23518l-2-1.0704v2.3352c0 1.2844-0.54 2.8752-1.2 3.5352s-1.6725 1.1645-2.25 1.1211zm-27.928-0.92105c-0.99738 0-1.6224-0.83473-1.6224-2.1667 0-1.1917 0.12734-1.9792 0.28297-1.75 0.15563 0.22917 0.88573 1.2042 1.6224 2.1667l1.3395 1.75zm5.2208-0.20485c-0.91122 0.17357-1.8709-0.04683-2.1326-0.48978-0.2617-0.44295-0.09593-1.8104 0.36838-3.0387 0.56434-1.493 1.3717-2.0309 2.4355-1.6227 0.92174 0.3537 1.4638 1.4995 1.2884 2.7231-0.16658 1.1619-1.0484 2.2545-1.9596 2.4281zm-0.34324-2.7952c0.275 0 0.5-0.225 0.5-0.5s-0.225-0.5-0.5-0.5-0.5 0.225-0.5 0.5 0.225 0.5 0.5 0.5zm8.7119 2.3419c-2.4128 0.4574-3.4403 0.22667-3.8599-0.86682-0.3145-0.81958-0.27698-3.0618 0.083371-4.9826 0.36036-1.9209 1.0848-3.4925 1.6099-3.4925s0.84219-0.50625 0.70469-1.125 0.3125-1.3312 1-1.5833c0.71829-0.26337 1.2349 0.32151 1.2146 1.375-0.01949 1.0083-0.67854 2.9583-1.4646 4.3333s-1.4451 2.8375-1.4646 3.25 0.56982 0.75 1.3096 0.75c0.73976 0 2.1595-0.9 3.155-2s2.1902-2 2.655-2c0.46476 0 0.84501 0.8449 0.84501 1.8776 0 1.0327-0.5625 2.3193-1.25 2.8593-0.6875 0.53995-2.7296 1.2622-4.5381 1.6051zm-10.712-6.3419c-0.275 0-0.5-0.225-0.5-0.5s0.225-0.5 0.5-0.5 0.5 0.225 0.5 0.5-0.225 0.5-0.5 0.5zm-6.75-3.0789c-0.1375-0.043421-0.8125-0.30592-1.5-0.58333-0.6875-0.27741-1.25-0.91689-1.25-1.4211 0-0.50417 0.675-0.91667 1.5-0.91667s1.5 0.675 1.5 1.5-0.1125 1.4645-0.25 1.4211zm19.118-8.9211c-0.41242 0-1.0467-0.48029-1.4095-1.0673-0.36322-0.5877 0.2843-1.3142 1.441-1.6166 1.1553-0.30213 2.1006-0.92028 2.1006-1.3737 0-0.45339-0.47185-1.116-1.0486-1.4724-0.70489-0.43565-0.62296-1.1719 0.25-2.2462l1.2986-1.5982-1.75 0.65585c-0.9625 0.36072-1.75 0.28971-1.75-0.15778s0.89062-1.6196 1.9792-2.6047l1.9792-1.7911 0.43695 1.3861c0.24032 0.76236 0.48062 2.2861 0.53399 3.3861 0.05337 1.1 0.11128 2.8913 0.12867 3.9807 0.0174 1.0894-0.74953 2.5519-1.7043 3.25-0.95475 0.69813-2.0733 1.2693-2.4858 1.2693zm11.132-1c-0.36667 0-0.96667-0.3-1.3333-0.66667-0.36667-0.36667-0.66667-1.2667-0.66667-2 0-0.73333 0.62686-1.3333 1.393-1.3333s1.6352 0.631 1.9311 1.4022 0.26909 1.6712-0.05968 2c-0.32877 0.32877-0.89776 0.59777-1.2644 0.59777zm-34.25-1.5645-2.75 0.60258-0.015313-2.2691c-0.01087-1.6109-0.25876-1.8851-0.85468-0.94516l-0.83937 1.3239-1.6453-1.6453c-0.90492-0.90492-1.6453-2.0081-1.6453-2.4514s0.5625-1.2492 1.25-1.7907c0.6875-0.54151 2.4444-1.2694 3.9042-1.6174l2.6542-0.63289-1.0717 7.99h1.5483c0.85158 0 1.7546-0.5625 2.0067-1.25l0.45833-1.25 2.5844 2.4344-1.4172 0.44926c-0.77947 0.24709-2.6547 0.72042-4.1672 1.0518zm-2.25-4.4355c0.275 0 0.5-0.225 0.5-0.5s-0.225-0.5-0.5-0.5-0.5 0.225-0.5 0.5 0.225 0.5 0.5 0.5zm12 5c-1.3101 0-2.6823-0.48596-3.0494-1.0799-0.36708-0.59396 0.28136-1.7445 1.441-2.5567 1.1596-0.81223 2.1084-1.9494 2.1084-2.5271 0-0.57766-0.675-0.79126-1.5-0.47468-0.825 0.31658-1.5 0.20947-1.5-0.23802s0.85532-1.5877 1.9007-2.5338c1.1199-1.0135 2.1498-1.3171 2.5072-0.7389 0.33354 0.53968 0.13274 2.2271-0.44623 3.7499l-1.0527 2.7687 1.5665 0.87668c0.8616 0.48217 1.3055 1.299 0.98649 1.8152-0.31903 0.5162-1.6519 0.93854-2.962 0.93854zm6.441 0c-0.51754 0-0.93409-0.3375-0.92567-0.75 0.0084-0.4125 0.40217-1.3605 0.875-2.1068 0.59929-0.94581 1.0669-1.0215 1.5437-0.25 0.37621 0.60872 0.4059 1.5568 0.065983 2.1068s-1.0415 1-1.559 1zm289.56-4c-0.275 0-0.5-0.225-0.5-0.5s0.225-0.5 0.5-0.5 0.5 0.225 0.5 0.5-0.225 0.5-0.5 0.5zm-309.84-8.75c-0.27741 0.6875-0.50439 0.125-0.50439-1.25s0.22697-1.9375 0.50439-1.25c0.27741 0.6875 0.27741 1.8125 0 2.5zm7.037-0.25c-0.81691 0-1.7584-0.7118-2.0923-1.5818-0.33384-0.86998-0.60629-2.7825-0.60544-4.25 8.55e-4 -1.4675 0.78836-4.2096 1.75-6.0935 1.0992-2.1533 2.6153-3.5483 4.0828-3.7566l2.3344-0.33132 1.1349 3.0066c0.62418 1.6536 1.4505 3.0066 1.8362 3.0066s0.99782-1.35 1.3602-3 1.0873-3 1.6108-3 1.2095 0.6712 1.5243 1.4916-0.37432 3.0961-1.5314 5.0572c-1.1571 1.9611-2.1038 3.9899-2.1038 4.5084s0.70532 0.94284 1.5674 0.94284c1.1123 0 1.3831-0.58068 0.93261-2-0.36414-1.1473-0.1797-2 0.43261-2 0.58706 0 1.0774 0.7875 1.0896 1.75l0.02224 1.75 1.8498-2.4061c1.1879-1.5451 2.4324-2.1825 3.4778-1.7814 0.89537 0.34359 1.628 1.2354 1.628 1.9818s-1.0816 2.3732-2.4035 3.615l-2.4035 2.258-1.8432-3.2937-1.2973 1.5632c-0.71353 0.85975-1.7551 1.5632-2.3146 1.5632s-1.532-0.70389-2.1611-1.5642l-1.1438-1.5642-2.6242 2.0642c-1.4433 1.1353-3.2926 2.0642-4.1095 2.0642zm2.1598-3c0.40754 0 1.281-0.54 1.941-1.2s1.2-2.4119 1.2-3.893c0-1.5332-0.68124-2.9544-1.5818-3.3-0.86998-0.33384-1.7496-0.60699-1.9547-0.60699-0.2051 0-0.66289 1.5458-1.0173 3.4351-0.35444 1.8893-0.34827 3.9143 0.0137 4.5 0.36198 0.58569 0.99158 1.0649 1.3991 1.0649zm15.141-2c0.55 0 1-0.19844 1-0.44098s-0.45-0.7191-1-1.059-1-0.14148-1 0.44098 0.45 1.059 1 1.059zm-9.3333-1.3333c0.36667-0.36667 0.36667-0.96667 0-1.3333-0.36667-0.36667-0.66667-0.066666-0.66667 0.66667s0.3 1.0333 0.66667 0.66667zm14.211 4.3333c-0.48266 0-0.87756-0.8632-0.87756-1.9182 0-1.055 0.27314-2.63 0.60699-3.5 0.33384-0.86998 1.0392-1.5818 1.5674-1.5818 0.52822 0 0.67475 0.9 0.32562 2-0.39199 1.2351-0.1797 2 0.55506 2h1.1898l-1.2449 1.5c-0.68469 0.825-1.6398 1.5-2.1224 1.5zm356.1-0.47895c-34.112 0.01158-61.232-0.25642-60.265-0.59554 0.96677-0.33912 17.514-0.71761 36.773-0.84108 19.258-0.12346 45.14-0.41155 57.515-0.6402s23.738-0.16138 25.25 0.14948c1.5125 0.31086 2.75 0.86694 2.7499 1.2357-5e-5 0.3688-27.91 0.68002-62.023 0.69159zm-384.36-1.521c-0.81286 0-1.7582-0.883-2.1007-1.9622-0.34253-1.0792-0.1114-2.9178 0.51363-4.0856 0.62503-1.1679 1.2653-1.9724 1.4227-1.7878 0.15748 0.1846 0.59141 2.0231 0.96429 4.0856l0.67797 3.75zm286.89 0c-0.275 0-0.5-0.225-0.5-0.5s0.225-0.5 0.5-0.5 0.5 0.225 0.5 0.5-0.225 0.5-0.5 0.5zm-257.9-8.4526c-1.5032 0.02607-2.9548-0.31143-3.2258-0.75-0.27105-0.43857 0.09624-0.80354 0.8162-0.81105 0.71996-0.0075 2.3818-0.30075 3.6929-0.65164 1.7788-0.47604 2.2653-0.2822 1.9168 0.76366-0.25689 0.7709-1.6969 1.423-3.2001 1.449zm160.07-0.88073c-0.36667 0.36667-0.66667 0.066666-0.66667-0.66667s0.3-1.0333 0.66667-0.66667c0.36666 0.36667 0.36666 0.96667 0 1.3333zm60.833-0.66667c-0.275 0-0.5-0.225-0.5-0.5s0.225-0.5 0.5-0.5 0.5 0.225 0.5 0.5-0.225 0.5-0.5 0.5zm-235-1c-0.275 0-0.5-0.225-0.5-0.5s0.225-0.5 0.5-0.5 0.5 0.225 0.5 0.5-0.225 0.5-0.5 0.5zm354 0c-0.275 0-0.5-0.225-0.5-0.5s0.225-0.5 0.5-0.5 0.5 0.225 0.5 0.5-0.225 0.5-0.5 0.5zm-348.36-1.7364c-0.76112 0.76112-1.2506 0.60248-1.6922-0.54849-0.34177-0.89063-0.29425-2.1487 0.1056-2.7956 0.51481-0.83298 1.0087-0.67289 1.6922 0.54849 0.63889 1.1416 0.60318 2.0869-0.1056 2.7956zm236.36-3.2636c-0.275 0-0.5-0.225-0.5-0.5s0.225-0.5 0.5-0.5 0.5 0.225 0.5 0.5-0.225 0.5-0.5 0.5zm34.939-0.80312c-1.9584 0.22863-3.785 0.05286-4.059-0.39059-0.27407-0.44346 1.3282-0.80629 3.5607-0.80629s4.059 0.17577 4.059 0.39059-1.6023 0.57766-3.5607 0.80629zm-184.94-4.1969c-0.275 0-0.5-0.225-0.5-0.5s0.225-0.5 0.5-0.5 0.5 0.225 0.5 0.5-0.225 0.5-0.5 0.5zm133.17-4.3333c-0.36667 0.36667-0.66667 0.066666-0.66667-0.66667s0.3-1.0333 0.66667-0.66667c0.36666 0.36667 0.36666 0.96667 0 1.3333zm-200.67-1.6667c-0.73333 0-1.0333-0.3-0.66667-0.66667 0.36667-0.36667 0.96667-0.36667 1.3333 0 0.36667 0.36667 0.066666 0.66667-0.66667 0.66667zm92.188-3.2293c-0.65284 0.21761-1.4576-0.3095-1.7883-1.1714s-0.66847-2.9888-0.75053-4.7266c-0.0821-1.7378 0.319-3.3261 0.89124-3.5296 0.57224-0.20352 1.9222 0.31103 3 1.1434l1.9596 1.5135-1.75 1.3602c-0.9625 0.74813-1.75 1.8997-1.75 2.559s0.50838 0.88458 1.1297 0.50056c0.67345-0.41621 0.95112-0.16238 0.6875 0.62848-0.24323 0.72968-0.97637 1.5047-1.6292 1.7224zm10.012-0.57066-1.2 1.2v-4.8l2.4 2.4zm139.8 0.8c-0.55 0-1-0.42344-1-0.94098s0.45-1.2191 1-1.559 1 0.08352 1 0.94098c0 0.85746-0.45 1.559-1 1.559zm-144.03-1c-1.1173 0-2.3-0.69985-2.6282-1.5552-0.32824-0.85537-0.1401-2.5429 0.41808-3.75l1.0149-2.1948 0.72171 2.75c0.39694 1.5125 1.1229 2.75 1.6133 2.75 0.49037 0 0.89159 0.45 0.89159 1s-0.91412 1-2.0314 1z"/>
</svg>
