<?xml version="1.0" encoding="utf-8"?>
<svg xmlns="http://www.w3.org/2000/svg" viewBox="0 0 1002 220">
	<title>Handwritten musical notation of the opening notes of Schubert’s “An die Musik,” with “Du holde Kunst, in wie viel grauen Stunden” written underneath.</title>
	<path d="m921.45 201c-0.24793 0-0.45078-0.45-0.45078-1v-1h3.8333c2.1083 0 4.154-0.32069 4.546-0.71264s2.8028-1.5061 5.3575-2.4758 4.8276-1.5804 5.0509-1.3571c0.22332 0.22333-1.3251 1.282-3.4409 2.3526-2.1158 1.0706-6.2316 2.452-9.1461 3.0698-2.9146 0.61777-5.5021 1.1232-5.75 1.1232zm-212.35-7c-0.56681 0-1.4964-0.87042-2.0658-1.9343s-1.0352-3.4502-1.0352-5.303v-3.3687l3.2429-4.447c1.7836-2.4458 3.9975-5.122 4.9198-5.947l1.6769-1.5 0.65753-3.2405 0.65754-3.2405-5.9534 1.1907-1.3967-4.4005 5.8966-7.3092 5.3101-0.63394 0.63508 1.655 0.63508 1.655-1.116 3.6361-1.116 3.6361 1.4752 0.82555 1.4752 0.82556v3.1713l-4.7724 4.423-0.68262 4.4032c-0.37544 2.4218-1.3642 6.545-2.1973 9.1627l-1.5147 4.7595-1.8507 0.99048c-1.0179 0.54476-2.3145 0.99048-2.8813 0.99048zm2.6491-5.1865 1.75-0.33318 0.57723-5.9901c0.31748-3.2946 0.39124-6.2151 0.16392-6.4901s-1.2746 0.56235-2.3272 1.8608l-1.9139 2.3608v8.9251zm2.6682-26.813c0.78002 0 2.13-0.27314 3-0.60699l1.5818-0.60699v-3.786h-1.1713c-0.64419 0-1.9942 0.74474-3 1.655-1.0058 0.91024-1.8287 2.0352-1.8287 2.5 0 0.46475 0.6382 0.84501 1.4182 0.84501zm135.81 24.921c-0.39982-0.0434-1.2417-0.28999-1.8708-0.54794l-1.1438-0.469 0.47919-1.8324 0.47919-1.8324-2.8251-2.6196c-1.5538-1.4408-3.1672-2.6196-3.5854-2.6196s-0.76022-0.8449-0.76022-1.8776v-1.8776l3.005-2.4939 5.9175 1.1835 0.59779-0.96724c0.32879-0.53199 0.93638-0.96725 1.3502-0.96725 0.41383 0 1.7373 0.91753 2.941 2.039 1.2037 1.1214 2.1886 2.511 2.1886 3.0879v1.049l-8-1.3516v1.1356c0 0.62461 1.182 2.2311 2.6267 3.57l2.6267 2.4344-1.6498 2.5179c-0.90737 1.3848-1.9769 2.4824-2.3767 2.4389zm-346.56-6.921c-0.73334 0-1.6333-0.3-2-0.66667-0.36667-0.36666-0.66667-1.9205-0.66667-3.4529 0-1.5325 0.52223-3.9325 1.1605-5.3333l1.1605-2.547h2.7373l-0.46891 4.75c-0.2579 2.6125-0.49602 5.3125-0.52915 6l-0.06025 1.25zm-307.19-3.2717-15.022 0.52555-2.3412-2.821 0.6928-1.0625c0.38104-0.58437 1.9411-1.3681 3.4668-1.7415l2.774-0.67906 12.475 2.1724 16.437-2.061 8.1961-4.1814-0.2559-10.19c-0.14075-5.6044-0.45331-10.977-0.69459-11.94l-0.43868-1.75h-4.7667v-1.3057c0-0.71815 1.125-2.8306 2.5-4.6943l2.5-3.3886v-5.7781l2.4448 0.81495 1.1007 4.6624 1.4772 0.76205c0.81249 0.41913 2.9074 1.2904 4.6554 1.9362l3.1782 1.1741 0.60359 1.5729c0.33198 0.86512 0.83111 3.8586 1.1092 6.6521l0.50559 5.0791-7.5747 14.767-8.6109 7.5955-9.3891 3.353zm33.803-17.716 2.9473-3.2986-0.49101-4.3562-0.491-4.3562-1.2454-1.5005-1.2453-1.5006h-3.7551v7.4182c0 4.08 0.29997 8.1999 0.6666 9.1554l0.6666 1.7371zm175.39 17.988h-1.6037l-1.2092-2.25-1.2092-2.25-0.81476-31 1.7523-8 1.9105 1-0.33158 9.3569c-0.18236 5.1463-0.0613 10.434 0.26906 11.75 0.33034 1.3162 0.99929 2.3931 1.4866 2.3931s2.0202-1.9354 3.4065-4.301 4.2416-6.3771 6.345-8.9146c2.1035-2.5375 6.0991-6.4204 8.8792-8.6286s8.1801-5.5826 12-7.4984 10.444-4.8725 14.721-6.5704 8.6643-3.087 9.75-3.087h1.974v3.0429l-2.75 1.1798c-1.5125 0.6489-3.875 1.923-5.25 2.8313s-8.35 4.7203-15.5 8.4711c-7.15 3.7508-15.025 8.396-17.5 10.323-2.475 1.9267-5.5103 4.6617-6.745 6.0777-1.2348 1.416-2.2473 2.8523-2.25 3.1917-3e-3 0.33942 1.7356 1.769 3.863 3.1768 2.1274 1.4078 5.4806 4.269 7.4516 6.3581s4.1363 4.8311 4.8118 6.0934l1.2282 2.295-2.2483 2.2483-6.1877-2.563-0.99697-1.8628c-0.54833-1.0246-1.5082-1.8628-2.133-1.8628s-1.9422 0.72958-2.9276 1.6213l-1.7915 1.6213-3.1442-1.2065 1.6274-2.4837 1.6274-2.4837-2.1606-3.0343c-1.1883-1.6689-2.536-3.0343-2.9947-3.0343-0.45874 0-1.2894 1.3062-1.8459 2.9026l-1.0118 2.9026 1.1058 12.195zm65.467-2c-0.99421 0-2.1077-0.3-2.4743-0.66667-0.36667-0.36666-0.66667-1.0417-0.66667-1.5 0-0.45833 0.825-0.83333 1.8333-0.83333 1.0083 0 2.0835-0.25016 2.3892-0.55591 0.30575-0.30575 0.0949-2.0579-0.46845-3.8936l-1.0244-3.3377 0.65417-2.6064 0.65417-2.6064h2.9119l-0.54296 2.75-0.54295 2.75 0.94757 2.5 0.94756 2.5-2.8106 5.5zm-177.3-1.0664-1.6635 0.0664-6.1069-8.3041-1.0083 2.652-1.0083 2.652h-2.8892l0.56287-9.4344 0.56286-9.4344-1.1656-5.9248-1.1656-5.9248 1.2969-3.3797 3.2241 0.62089 0.83439 5.4886 0.8344 5.4886-0.55692 5.75-0.55693 5.75h3.9442l2.5251 4c1.3888 2.2 2.9379 4 3.4425 4h0.91739l1.8201-5.6575 1.8201-5.6575 3.4625-2.1511 1.6937 1.6937 1.6937 1.6937-1.8499 9.4337-4.5 3.2561c-2.475 1.7908-5.2486 3.286-6.1635 3.3225zm7.4931-8.9336h1.4564l0.53859-1.4036c0.29623-0.77195 0.28708-2.3654-0.0203-3.5409l-0.55893-2.1373-2.2454 0.7358-0.31336 3.173-0.31339 3.173zm161.78 9c-0.97587 0-2.0743-0.3-2.441-0.66667-0.36667-0.36666-0.66667-1.6417-0.66667-2.8333s-0.2729-2.4396-0.60645-2.7731l-0.60645-0.60645-4.1966 3.9097-2.0833-0.69443-0.66433-3.9179-0.66432-3.9179 2.9437-3 2.6858 3.6197 0.65502-1.0598c0.36026-0.58291 1.3107-1.0598 2.1122-1.0598h1.4572l1.6059 3.75c0.88325 2.0625 2.0162 4.5558 2.5177 5.5407l0.91179 1.7907-0.59289 0.95933c-0.32609 0.52762-1.3913 0.95932-2.3672 0.95932zm470.76-0.69255-2.6356 0.67322-2.6002-3.1331 2.7759-1.7156 0.87172 0.53875c0.47944 0.29631 2.1972 0.63052 3.8173 0.74268l2.9456 0.20393-0.34788-1.0587c-0.19134-0.58226-1.3318-1.2033-2.5344-1.3802l-2.1865-0.3215 1.271-2.0566-4.4957 2.406-1.8182-2.7065 0.50272-3.4308 0.50272-3.4307 2.8338-2.8338 2.0509 1.0976c1.128 0.60369 2.9946 1.0976 4.148 1.0976h2.0971l0.51973 1.75c0.28585 0.9625 1.1717 3.024 1.9686 4.581 0.79689 1.5571 1.4489 3.4592 1.4489 4.227v1.3959l-4.515 2.9584-1.9925-0.139c-1.0959-0.0764-3.1785 0.16395-4.6281 0.53421zm-497.02-0.30745c-0.42694 0-1.2421-0.87042-1.8114-1.9343s-1.0352-3.052-1.0352-4.4182c0-1.3662 0.27215-3.1932 0.60478-4.06l0.60479-1.576 0.89521 0.55327c0.49237 0.3043 0.89522 1.4267 0.89522 2.4943v1.941h2.662l2.6759-5h2.662v4.9296l4 2.1407v1.3424c0 0.7383-0.65341 1.8846-1.452 2.5474l-1.452 1.2051-4.096-1.3v-2.9431l-2.1886 2.039c-1.2037 1.1214-2.5379 2.039-2.9648 2.039zm177.03-0.78551-4.6272 0.51214-3.6973-1.2711c-2.0335-0.69908-3.9509-1.5247-4.2608-1.8346s0.0118-2.6186 0.71502-5.1303l1.2786-4.5667 2.4942-1.962c1.3718-1.0791 3.2968-1.962 4.2776-1.962 0.98085 0 2.5038 0.27647 3.3844 0.61438l1.6011 0.61439-1.2962 9.7712h14.424l-0.82066 2.5-4.423 1.1012c-2.4326 0.60565-6.5052 1.3316-9.0502 1.6133zm-368.38-0.47255-6.6669-0.24194-0.91385-1.6843c-0.50262-0.92634-0.91385-3.2888-0.91385-5.25v-3.5657h2.0495l2.0923 5.5 2.6791-3.259c1.4735-1.7925 3.04-3.255 3.4811-3.25 0.44111 5e-3 1.2548 1.308 1.8083 2.8957l1.0063 2.8867 5.8834 1.1767v2.9796l-3.8384 2.0543zm237.85-1.025-1.1589 0.38905-0.5637-2.803c-0.31003-1.5416-0.66716-6.1809-0.79363-10.31l-0.22994-7.5066 4.0709-5.9947c2.239-3.2971 6.0711-7.8384 8.5156-10.092 2.4446-2.2533 6.4413-5.2535 8.8816-6.667 2.4403-1.4135 6.3292-3.0686 8.6419-3.6781s4.8826-1.7857 5.7107-2.6139l1.5057-1.5057 0.61192-3.2619c0.33656-1.794 0.46674-5.0421 0.28929-7.2178l-0.32265-3.956-59.5 0.16988c-32.725 0.0934-61.3 0.20746-63.5 0.25339-2.2 0.0459-7.9666-0.17691-12.815-0.49519l-8.8146-0.57869-5.9456 2.0727-5.4252-2.1584-25.701-0.39413-1.4683 3.9693 0.70133 3.5806c0.38574 1.9693 0.81466 4.0306 0.95317 4.5806s0.19854 1.7875 0.13341 2.75l-0.11842 1.75h-3.9191l-0.58088-16.5-42.262-0.35511-0.59292 3.6537-0.59291 3.6537 1.9477 1.9477-0.0306 8.1-0.94304 1.4916-0.94305 1.4916-1.9983-1.9983-0.29247-8.9925-0.2925-8.9925-12.5-0.09666c-6.875-0.0532-39.162-0.43318-71.75-0.84447l-59.25-0.74781v3.1902 3.1902l1.7298 2.9283 1.7298 2.9283-1.2499 1.726c-0.68743 0.94932-1.9426 3.2381-2.7892 5.0862l-1.5393 3.3601 1.8441 5.2901-1.6608 4.4896h-1.4214c-0.78179 0-2.4142-0.80387-3.6275-1.7864l-2.2061-1.7864 4.4376-8.5136-0.59932-0.59931-0.59931-0.59931-3.0152 2.5024-1.0166-2.6738c-0.55911-1.4706-1.0166-3.066-1.0166-3.5453v-0.87154l6.5-0.62672v-13l-20-0.13395c-11-0.0737-27.447-0.43446-36.548-0.80176l-16.548-0.66781-1.7998 1.9888-1.7998 1.9887 1.1702 1.8934-3.0475 24.616-1.0858 1.3084-1.0858 1.3084h-2.238-2.238l-3.8895-2.6218c-2.1393-1.442-4.2494-3.242-4.6892-4l-0.79969-1.3782h-1.9151-1.9151l-1.1265-2.1049c-0.61958-1.1577-1.2627-3.5202-1.4292-5.25-0.16648-1.7298-0.61838-4.9668-1.0042-7.1933l-0.70152-4.0482 1.6794-1.3938 1.6794-1.3938 1.6662 1.063 1.6662 1.063 0.07335 2.879c0.04035 1.5835 0.63386 4.229 1.3189 5.879l1.2456 3 3.7747 3.5c2.0761 1.925 4.0559 4.2875 4.3997 5.25 0.34375 0.9625 0.99872 1.75 1.4555 1.75s1.3262-1.4625 1.932-3.25l1.1016-3.25-0.01579-7.6603-0.01578-7.6603-6.4823-1.2161-9.087-6.019-8.2276 1.3156-1.1961 4.7656-1.6321 0.91337-1.6321 0.91336 4.836 5.1477h-0.95181c-0.52349 0-1.8832-0.65239-3.0216-1.4498l-2.0698-1.4498-3.5235-11.202 3.2181-3.5559v-2.6259-2.6259l-7.1002-1.332 0.30827-1.6293 0.30827-1.6293 6.4836-0.62672v-0.82183c0-0.45201-0.62535-2.3091-1.3897-4.1269l-1.3897-3.305 2.0676-3.3107-4.2448-5.8088-0.3362-12.28 4.429-6.2199h3.5569 3.5569l-1.1487 5.7435 15.399 1.0673 2.5-3.193v-2.6864-2.6864l2.9124-2.4171 2.17 1.3411-0.2912 4.6655-0.2912 4.6655 6 0.31082c3.3 0.17095 7.5001 0.031 9.3336-0.31099l3.3336-0.62181-1.2017-3.1315 2.2612-2.7246-1.2654-6.7449 3.1911-2.6484 0.90847 1.4357c0.49966 0.78963 0.91536 2.2232 0.92378 3.1857 0.0084 0.9625 0.35281 1.7431 0.76531 1.7347 0.4125-0.0084 1.2604-0.34592 1.8843-0.75s1.304-1.6295 1.5115-2.7232l0.37717-1.9885 3.2241-0.6209 3.0007 7.5232-1.9521 5.5997 1.1479 2.9913 17.557-0.30167 0.67378-1.043 0.67379-1.043 3.0653 2.544 14.294-0.0082c7.8614-0.004568 37.919 0.069096 66.794 0.16366l52.5 0.17194 0.60958-9.5h2.7859l0.60452 10.494 43.5-0.19804c23.925-0.10892 45.075-0.22162 47-0.25046 1.925-0.02883 16.662 0.21504 32.75 0.54195l29.25 0.59437v-1.2754c0-0.70148-0.97203-3.2834-2.1601-5.7375l-2.1601-4.4621 1.8512-1.3536c1.0182-0.74449 2.6494-1.3536 3.6249-1.3536h1.7737l1.8191 3.5-0.80409 2c-0.44224 1.1-0.83563 3.575-0.87419 5.5l-0.0701 3.5 52.25-0.26766c28.737-0.14721 53.15-0.23012 54.25-0.18425 1.1 0.04587 4.925 0.24788 8.5 0.44891 3.575 0.20102 17.693 0.59809 31.374 0.88238l24.874 0.51687-0.69241-4.6981c-0.38082-2.584-0.77422-5.8231-0.8742-7.1981l-0.1818-2.5 5.4644-0.62941 1.6264 4.0647c0.8945 2.2356 2.0275 4.0647 2.5178 4.0647s0.89142 0.62252 0.89142 1.3834v1.3834l4.4655 1.1678-1.2328 1.2328c-0.67801 0.67801-1.2328 1.5928-1.2328 2.0328v0.8h4.6344 4.6344l-0.49488-6.9167-0.49489-6.9167 1.5686-2.5381 3.3012 2.7397-0.32436 6.4906-0.32437 6.4906 28-0.15005c15.4-0.08253 29.193-0.16117 30.652-0.17476l2.6522-0.024707 2.1762-6.2427 2.7597 1.8215c1.5178 1.0018 4.3648 2.6021 6.3266 3.5562l3.5669 1.7348 20.866-0.36972 0.16627-3.3329c0.0914-1.8331 0.35875-3.5254 0.59401-3.7607 0.23526-0.23526 2.3545 0.25206 4.7095 1.0829 2.3549 0.83087 5.3236 1.5107 6.597 1.5107s2.5558 0.38928 2.8499 0.86506c0.29405 0.47578 2.4581 1.1651 4.809 1.5318 2.3509 0.36671 7.4244 1.1213 11.274 1.6769l7 1.0102 36.708-0.04644 7.1459-5.0262c3.9302-2.7644 9.3959-6.5867 12.146-8.494l5-3.4678 6.5-1.2995v5.2331l-4.0512 2.5169-2.0236 7.4916 0.9387 1.7542 0.93869 1.7542 26.349-0.18091c14.492-0.0995 27.586-0.212 29.099-0.25l2.75-0.069092v-9h0.91821c0.50502 0 1.6772-0.29126 2.6049-0.64725l1.6867-0.64725-0.35493 5.3973-0.35492 5.3973 83.755 0.51945 3.1227-1.5889c1.7175-0.87389 4.4727-1.7576 6.1227-1.9639s4.8914-0.64501 7.203-0.97506l4.203-0.60009 7.594 2.2949 3.6733 4.9196-1.1976 3.1209-4.4757-1.5519-70-0.4011-0.73469 1.113c-0.40408 0.61217-0.74158 2.3505-0.75 3.863l-0.01531 2.75 21.25 0.03688c11.688 0.02029 28.882 0.26439 38.209 0.54244 9.3275 0.27806 17.173 0.71896 17.433 0.97978 0.26082 0.26082 0.0199 0.92848-0.53526 1.4837l-1.0095 1.0095-35.631-0.0117c-19.597-0.0064-36.213-0.1307-36.924-0.27614l-1.2933-0.26443-0.625 6.4769 79.625 0.52306v4l-3.5-0.23507c-1.925-0.12929-19.79-0.5217-39.7-0.87202l-36.2-0.63694-1.3529 5.3905 1.027 1.027 1.027 1.027 12.35 0.24769c6.7924 0.13623 23.951 0.31614 38.131 0.39979l25.781 0.1521 1.2287 3.2018-2.3192 1.4333-6.7361-0.75211c-3.7049-0.41366-20.766-0.90212-37.914-1.0854l-31.178-0.33334-0.47928 2.5072-0.47929 2.5072 0.96726 1.8073 0.96725 1.8073 4.6898-0.0953c2.5794-0.0524 6.6247 0.14486 8.9896 0.4384l4.2998 0.5337-0.67732-1.0959-0.67732-1.0959 4.8775 0.58333c2.6826 0.32083 5.3275 0.53936 5.8775 0.48562 0.55-0.0537 10.454-0.28311 22.008-0.50972l21.008-0.41202 1.992 1.5415 1.992 1.5415-6 4.9815-3.5 0.01 0.5-2.465-13-0.19735c-7.15-0.10855-22.146-0.44288-33.324-0.74297l-20.324-0.54562 0.60949 2.775 0.6095 2.775-4.6396 6.9009-4.5414 0.65353-2.8899-2.3984 0.0318-2.1276c0.0175-1.1702 0.6296-2.9151 1.3602-3.8776l1.3284-1.75h2.0173 2.0173l1.171-1.411 1.171-1.411-0.85257-0.52692c-0.46891-0.2898-18.378-0.54257-39.799-0.56171-21.42-0.0191-51.267-0.32125-66.326-0.67134l-27.38-0.63654 0.96824 6.597-1.9851 3.3645-1.9851 3.3645-5.2218-0.60765-0.3421-1.8031-0.34211-1.8031 3.5836-3.3797c1.971-1.8589 3.5836-3.86 3.5836-4.447v-1.0672h-15.54-15.54l-5.5282 4.0872-3.3908-1.3012v-2.786h-58v1.6802c0 0.92413-0.97765 3.8434-2.1726 6.4874l-2.1726 4.8071-3.6549 1.16-4-1.2696v-4.4202l3.1134-4.445h3.0128 3.0128l-0.6391-4.4491-62.362-0.65468-1.3828 9.6038-3.0653 3.5h-2.3098-2.3098l-1.0352-1.9343c-0.56935-1.0638-1.0352-2.4205-1.0352-3.0147s1.4088-1.9372 3.1306-2.9842l3.1306-1.9038 2.7389 1.051v-4.214h-12.187-12.187l5.7789 6.0319 7.7246 2.08-0.41848 1.194-0.41847 1.194-7.0748-0.20882-6.1511-4.38-2.5928-5.4112-14.987-0.41186c-8.2428-0.22652-18.587-0.45152-22.987-0.5l-8-0.0881-1 20-2.3473 0.3323c-1.291 0.18277-6.2086 2.5542-10.928 5.2699-4.7194 2.7157-10.458 6.3785-12.752 8.1396-2.2941 1.7611-5.4765 5.0147-7.072 7.2301l-2.9009 4.028v19.828zm-426.84-65.158 1-0.22547v-3.8333l-4.3007 0.13405c-2.3654 0.0737-4.5779 0.41123-4.9167 0.75l-0.61595 0.61595 0.61592 0.61592c0.33876 0.33876 2.1013 0.96522 3.9167 1.3921 1.8154 0.42691 3.7507 0.67475 4.3007 0.55074zm746.36 0.4412h6.259l-1.0489-1.6972 11.802 0.096-0.4948 0.8006-0.49479 0.80063h4.2361l-1.1065-1.7904 3.1162-1.1958-0.62774-6.5138-26.516-0.55816-2.4045 5.2773 1.6756 1.2252 1.6756 1.2253-2.3304 2.3304zm62.769-0.0703 29.128 0.0703 1.1947-1.4395 1.1947-1.4395-0.64452-5.6209-4.5-0.11304c-2.475-0.06217-11.025-0.24754-19-0.41194l-14.5-0.2989-1.8527 7.3239h-7.6709l0.62069-3.8815 0.62068-3.8815-22.718 0.26304v6.9622l2 0.0979c1.1 0.0538 4.025 0.20645 6.5 0.33919l4.5 0.24133-4 1.7189zm-180.25-1.608c1.5812-0.17695 3.9016-0.32173 5.1564-0.32173h2.2814l-0.49628-1.8978-0.49627-1.8978 2.2502-4.2045-7.7852-0.14154c-4.2818-0.077847-11.16-0.25443-15.285-0.3924l-7.5-0.25086-0.73469 1.1424c-0.40408 0.62832-0.74158 2.5892-0.75 4.3574l-0.0153 3.215 10.25 0.35672c5.6375 0.1962 11.544 0.21194 13.125 0.035zm26.308-0.13878 9.1832-0.31705 1.1892-1.433c0.65408-0.78812 1.8862-1.433 2.738-1.433 0.85185 0 2.308 0.68705 3.2359 1.5268l1.6871 1.5268 29.515 0.35032 1.3842-1.8931c0.76133-1.0412 1.3774-2.3696 1.3689-2.9519-8e-3 -0.58238-0.38101-1.6352-0.82796-2.3395l-0.81265-1.2807-61.195-0.4387-0.50457 2.5c-0.27751 1.375-0.79644 3.2542-1.1532 4.176l-0.64862 1.676 2.8286 0.324c1.5557 0.17821 6.961 0.18134 12.012 7e-3zm67.967 0.45923 7.1506 0.14219 3.6536-6.7844h3.5452v-2.0521l-30.5 0.55209-0.61392 7.3858 4.807 0.30711c2.6438 0.16892 8.0247 0.3711 11.958 0.4493zm-223.99-1.0646c0.8278-0.31766 3.7183-0.57756 6.4233-0.57756h4.9182v-8.0876l-14.5 0.58762-0.62558 4.3968 1.1395 2.1291 1.1395 2.1292zm28.704-0.19953c5.4246-0.14879 9.9954-0.40721 10.157-0.57427 0.16192-0.16707 0.44861-1.8785 0.63709-3.8032l0.34269-3.4994-7-1.1381 7-1.9795 0.615-8.3835h-18.87l-1.2449 1.5c-0.68469 0.825-1.8097 1.5-2.5 1.5s-1.8153-0.675-2.5-1.5l-1.2449-1.5h-16.536l-0.47869 3.75-0.4787 3.75 0.6419 0.72261 0.64189 0.72261 34.455 0.26014v1.7946h-19.121l0.31036 3.7105 0.31037 3.7105 2.5 0.61377c1.375 0.33757 6.9383 0.49203 12.363 0.34325zm46.609 0.12197h28.472l0.93018-2.633 0.93019-2.633-1.1728-3.0563-62.631 0.32231-0.30608 3.6782-0.30609 3.6782 2.8061 0.32184c1.5433 0.177 15.618 0.32183 31.278 0.32183zm-153.97-1h41.5l0.64568-6.7543-1.6457-1.637-55.5-0.11349c-30.525-0.06242-56.018-0.08688-56.652-0.05435l-1.1522 0.059134-2.1717 6.2297 1.0941 1.7703h7.6863l2.0916-6h4.104v1.441c0 0.79254-0.45 1.7191-1 2.059s-1 1.0257-1 1.524v0.906l10.25 0.28499c5.6375 0.15674 28.925 0.28498 51.75 0.28498zm58.969 0.5h14.031v-8l-11-0.19444c-6.05-0.10694-12.462-0.21944-14.25-0.25l-3.25-0.055556-0.32457 2.8345c-0.17852 1.559-0.0801 3.4715 0.21861 4.25l0.54319 1.4155zm-261.65-1.3495 11.819 0.15048 1.5238-4.1191-0.4475-2.3409-0.44749-2.3409-1.6334-0.012768c-0.89838-0.007022-18.733-0.24284-39.633-0.52404s-42.661-0.6993-48.359-0.92912c-5.6972-0.22982-10.647-0.72921-11-1.1098l-0.64145-0.6919 37.299 1.2577 6.2008-1.2402 0.1354-4.25 2.1897 4.5435 4.9845 1.251 3.1475-1.9854 0.69492-3.3978c0.38221-1.8688 0.60295-3.4898 0.49055-3.6022-0.11241-0.11241-9.8655-0.25214-21.673-0.31052-11.808-0.05838-22.875-0.08196-24.594-0.0524l-3.125 0.053739-1.2491 6.2456-1.4404-1.1954c-0.79222-0.65749-1.5799-2.1752-1.7504-3.3728l-0.31003-2.1774-21.5-0.28276c-11.825-0.15552-22.424-0.05672-23.553 0.21955l-2.0528 0.5023 0.82432 7.0609 2.6406-0.01187c1.4523-0.006527 5.1156-0.67619 8.1406-1.4881s6.7572-1.4816 8.2938-1.4881l2.7938-0.011869-0.29383 1.75-0.29384 1.75 10 1.1039-1.5 0.64063c-0.825 0.35235-5.1 0.80655-9.5 1.0093l-8 0.3687-4.9255 2.4387c-2.709 1.3413-5.0946 2.958-5.3013 3.5926l-0.37579 1.1539 34.301 0.20373c18.866 0.11205 46.001 0.4928 60.301 0.84612s31.319 0.71011 37.819 0.79287zm37.931 0.15732 20.853-0.0557-0.60288-8.2521-42.27-0.53911-1.3753 7.3312 1.2713 0.78569 1.2713 0.7857zm40.25-0.0588 15-0.24902 0.30281-3.6233 0.30282-3.6233-2.3028-0.38878c-1.2665-0.2138-8.6028-0.3833-16.303-0.37664l-14 0.01211-0.32418 3.3951-0.32419 3.3951 2.6484 1.7078zm26.5 0.25101h9v-2.4182c0-1.33 0.2511-3.0726 0.558-3.8723l0.558-1.4541-2.808-0.54274c-1.5444-0.29851-5.8455-0.29069-9.558 0.01737l-6.75 0.56011v7.7099zm15.378-1h2.3776l2.2959-2.7664-3.3328-1.2789-3.7182 1.1801v2.8652zm-259.99-1.2026 2.9589-0.29739 0.41034-1.25 0.41035-1.25h-6.0971l-6.7998-5.9703-21.385-0.18388c-11.762-0.10113-24.287-0.10822-27.834-0.015755l-6.4491 0.16812-0.6718 0.75091c-0.36949 0.413-0.95058 1.9371-1.2913 3.3868l-0.61952 2.6359 1.743 0.45581c0.95867 0.2507 15.222 0.54441 31.696 0.6527 16.474 0.10829 30.182 0.42586 30.461 0.7057 0.27984 0.27985 1.8403 0.37499 3.4677 0.21142zm-97.477-1.7974h3.9724l0.55456-0.89729c0.30501-0.49351 0.27074-2.3164-0.07616-4.0509l-0.63072-3.1536-8.2296 0.60178-0.32908 2.3227c-0.181 1.2775-0.08262 2.965 0.21862 3.75l0.5477 1.4273zm15.249 0h7l-0.69705-3.25c-0.38338-1.7875-0.91423-3.6175-1.1797-4.0667l-0.48262-0.81666-6.016 0.51617c-3.3088 0.28389-6.2315 0.73171-6.4949 0.99516-0.26344 0.26344-0.17541 1.8612 0.19563 3.5505l0.67462 3.0715zm11.3-0.20782 2.0412-0.29218v-7l-5.5-0.63284v3.3998c0 1.8699 0.31898 3.7187 0.70885 4.1086s1.6274 0.57737 2.75 0.41667zm483.04-4.7922 4-0.5 0.615-8.5-2.8075-0.06605c-1.5441-0.03633-6.8328-0.0073-11.753 0.06448l-8.9451 0.13053-2.2572 2.4355c-1.2414 1.3395-2.7287 2.4355-3.3049 2.4355h-1.0478v3.9323l10.75 0.28383c5.9125 0.15611 12.55 0.058832 14.75-0.21617zm76.5 0.6563 9.5 0.1563 5.475-3.2291 2.5553 3.4945 19.97-0.57809 0.615-8.5-16.808-0.21567c-9.2441-0.11862-23.558-0.23112-31.808-0.25l-15-0.03433-0.61096 8.4173 8.3055 0.29134c4.568 0.16024 12.58 0.36168 17.805 0.44764zm57.941 0.3437h17.941l0.47879-0.77471c0.26334-0.42609 0.15933-2.3386-0.23112-4.25l-0.70993-3.4753-35.42-0.54615v9.0461zm33.296-0.21912 12.263-0.28088v-8l-26.5-0.55805v1.9639c0 1.0802 0.44415 3.1321 0.98699 4.5599l0.98699 2.596zm29.932-0.37102c8.4323-0.04957 15.894-0.16207 16.581-0.25l1.25-0.15986v-6.786l-1.2648-0.48533c-0.69561-0.26693-8.3456-0.55686-17-0.64427l-15.735-0.15894v3.8706c0 2.1288 0.18835 4.0581 0.41856 4.2873 0.23021 0.22917 7.3177 0.37611 15.75 0.32653zm34.178 0.59014h14.409l1.1947-1.4395 1.1947-1.4395-0.64452-5.6209h-31l-0.32457 2.8345c-0.17852 1.559-0.0801 3.4715 0.21861 4.25l0.54319 1.4155zm32.62 0h13.633l2.4-2.4v2.4h30v-6.9619l-2.25-0.55808c-1.2375-0.30694-7.8554-0.42802-14.706-0.26905l-12.456 0.28903-0.69385 2.5-0.69386 2.5-0.19936-5.3752-11.25-0.31238c-6.1875-0.17181-12.938-0.15262-15 0.04265l-3.75 0.35504v3.2283c0 1.7756 0.3 3.5283 0.66667 3.895l0.66666 0.66667zm68.156 0h17.878v-7l-17.5-0.15c-9.625-0.0825-18.062-0.195-18.75-0.25l-1.25-0.1-0.32676 2.305-0.32677 2.305 2.3984 2.8899zm-406.46-1.5c24.841 0 45.414-0.24863 45.719-0.55251s0.28407-2.2164-0.0459-4.25l-0.60006-3.6975-13.619-0.16895c-7.4905-0.092923-32.294-0.27492-55.119-0.40443s-42.239-0.038584-43.142 0.20207l-1.642 0.43755-0.51435 1.9669c-0.28289 1.0818-0.28262 2.853 6.1e-4 3.9361l0.51496 1.9692 11.641 0.2808c6.4028 0.15444 31.966 0.2808 56.807 0.2808zm-155.67-1.1355c7.425-0.0745 14.088-0.187 14.808-0.25l1.3075-0.11455-0.615-8.0309-40.405-0.78877-2.2397 2.6987 0.64452 5.6209 6.5 0.5c3.575 0.275 12.575 0.43905 20 0.36455zm37 0.24897 13.5-0.11352 0.31084-3.758 0.31085-3.758-1.3108-0.42559c-0.72096-0.23408-7.6108-0.60739-15.311-0.82959s-14.562-0.21456-15.25 0.016962l-1.25 0.42096v7.7005l2.75 0.42994c1.5125 0.23647 8.825 0.37886 16.25 0.31642zm27.36 0.38648c6.2482 0 13.472-0.28936 16.052-0.64303l4.6914-0.64303-0.60368-7.2139-31.5-0.55079v9.0508zm-112.01-1.2279 18.125-0.27213 0.35144-1.8291c0.19329-1.006 0.078-2.9185-0.25617-4.25l-0.6076-2.4209h-35.844l-0.41961 0.75c-0.23078 0.4125-0.20695 2.4475 0.053 4.5221l0.47259 3.7721zm-181.85-2.4699c6.05-0.25306 11.289-0.76209 11.643-1.1312l0.64274-0.67107-0.94259-6-15.671 0.1436c-8.6193 0.07898-16.227 0.19148-16.907 0.25l-1.2353 0.1064 3.9353 6.5 7.5353 1.2624zm27.887 0.55277 11.437 0.23798 0.47016-0.7965c0.25858-0.43808 0.78383-2.259 1.1672-4.0465l0.69705-3.25h-18.02l-0.6391 4.0792-2-0.10158-1e-3 -1.7388-1e-3 -1.7388-1.2487 0.1c-0.68741 0.055005-1.9243 0.1675-2.7493 0.25l-1.5 0.15v2.8333c0 1.5583 0.21383 3.0472 0.47518 3.3085s5.6219 0.58228 11.912 0.71317zm19.363 0.12967 2.25 0.015313v-2.4182c0-1.33-0.27314-3.13-0.60699-4l-0.60699-1.5818h-4.559l-0.97206 6.5 1.1225 0.73469c0.61739 0.40408 2.135 0.74158 3.3725 0.75zm-96.75-1.276 2.5-0.20871 0.63255-7.6982-4.3163 0.71445c-2.374 0.39295-4.6538 0.9141-5.0663 1.1581s-0.75 1.3316-0.75 2.4169v1.9732l2.25 0.92648c1.2375 0.50957 3.375 0.83256 4.75 0.71778zm8.5968 0.29129h1.3519l1.5257-2.9503c0.83912-1.6227 1.5257-3.4499 1.5257-4.0604v-1.11l-7.5 0.62073-0.65353 4.6101 1.1992 1.445c0.65956 0.79473 1.8076 1.445 2.5511 1.445zm803.4-4.2229c1.375 0.1076 3.5125-0.0757 4.75-0.40734l2.25-0.60298v-4.5528l-1.5818-0.60699c-0.86998-0.33384-7.395-0.60699-14.5-0.60699h-12.918v5.9276l9.75 0.32692c5.3625 0.17981 10.875 0.41496 12.25 0.52256zm28.227-0.0044 18.273-0.27266 0.31068-2.1823 0.31069-2.1823-4.3458-2.3258-33.258 0.7391-0.34359 1.7841c-0.18897 0.98126-0.0907 2.443 0.21829 3.2483l0.56188 1.4642zm-130.48-0.96626 12.252 0.28093 2.3427-5.1416-0.92288-0.88472c-0.50758-0.4866-2.9479-1.0008-5.4229-1.1426s-9.7875-0.1815-16.25-0.08816l-11.75 0.1697v5.8793l3.75 0.3231c2.0625 0.1777 9.2632 0.44951 16.002 0.60403zm30.248 0.063943c6.325 0.05629 12.537-0.17532 13.804-0.5147l2.3038-0.61705-0.60762-5.2386-30.5-0.55209v5.9054l1.75 0.45732c0.9625 0.25153 6.925 0.50338 13.25 0.55967zm33 0.12966h15v-5.773l-3.0435-0.44669c-1.6739-0.24568-8.4239-0.55456-15-0.68641l-11.957-0.23972v7.1458zm-224.43-1.6457c3.8103-0.08014 7.4904-0.19264 8.1779-0.25l1.25-0.10428v-5.8904l-4.75-0.30479c-2.6125-0.16764-6.9091-0.0452-9.548 0.27208l-4.798 0.57688-0.85534-1.384-21.978-0.05944-1.1178 1.3468-1.1178 1.3468 1.3 4.096 8.1826-0.02386c4.5004-0.01312 9.935-0.43037 12.077-0.92721l3.8942-0.90336 2.3558 2.3544zm44.243 0.52011 30.315 0.17707-0.63056-6.5515h-63l-0.30826 2.6655-0.30827 2.6655 1.8083 0.43321c0.99454 0.23826 15.45 0.51289 32.124 0.61028zm38.068 0.12561h5.8834l0.5246-2.7443c0.28854-1.5094 0.31444-3.0844 0.0576-3.5l-0.46708-0.7557h-11.882v7zm18.117 0h9.882l1.3063-2.1137-0.6132-2.4432-0.61319-2.4432h-19.011l-0.9824 2.5839-0.98241 2.5839 1.1323 1.8322zm26.264-0.22116 13.211-0.27884 0.26109-1.5c0.1436-0.825-0.13248-2.1112-0.61352-2.8582l-0.87461-1.3582-25.28-0.54079-0.5781 0.93539-0.57811 0.93539 0.62044 2.472 0.62043 2.472zm-233.57-0.97604 36.197 0.3028 8.4302-2.27 4.1801 2.2371 21.996-0.57269 0.63394-5.5114-1.317-0.41041c-0.72433-0.22573-33.858-0.67275-73.63-0.99338l-72.313-0.58296 0.62658 6.4981 19.5 0.5c10.725 0.275 35.789 0.63626 55.697 0.8028zm-162.87-1.4933 13.326-0.19055 3.0417-2.5244 0.95292 1.7028c0.5241 0.93652 1.4293 1.7028 2.0116 1.7028h1.0587l-0.66315-2.75c-0.36472-1.5125-1.3142-3.2501-2.1099-3.8614l-1.4468-1.1114-34.224-0.38176-3.7028 3.351-5.0701-0.96921v4.6313l6.75 0.29569c3.7125 0.16263 12.747 0.20994 20.076 0.10514zm36.924 0.46877 13.75-0.27822 0.61754-6.3769-23.618-0.63226-2.245 2.5046c-1.2348 1.3775-2.2473 3.0798-2.25 3.7828l-0.00497 1.2782zm32.269 0.22178h15.981v-7h-31.882l-1.3063 2.1137 0.6132 2.4432 0.61319 2.4432zm-206.02-1.2408c0.275 0.11739 1.5125-0.0579 2.75-0.38954l2.25-0.60298v-1.8016c0-0.99087-0.26578-2.4942-0.59063-3.3407l-0.59063-1.5392-35.095-0.0128-2.4965 1.9638c-1.3731 1.08-3.1109 1.9637-3.8617 1.9637h-1.3651v2.9568l19.25 0.2945c10.588 0.16197 19.475 0.39054 19.75 0.50794zm43-0.25925h23.5l0.25573-2c0.14065-1.1-0.11955-2.5765-0.57823-3.2811l-0.83395-1.2811-46.844-0.48817-9 3.3436-0.62568 3.0979 5.3128 0.30444c2.9221 0.16744 15.888 0.30444 28.813 0.30444zm46.23 0.5h18.897l-0.62672-6.5-38.5-0.54319v2.8549c0 1.5702 0.3 3.1549 0.66667 3.5216l0.66666 0.66667zm-186.3-1.5332 15.428-0.033191 0.81121-2.4336h-3.2048l1.1942-4.7582-17.567 0.25816-1.3022 5-1.5209-5.5674-20.266 0.56739v6l5.5 0.5c3.025 0.275 12.442 0.48506 20.928 0.46681zm37.616 0.53319h5.2109l2.41-2.9039-0.68558-3.5961-4.3566-0.62298-4.123 4.123h-1.941c-1.0675 0-2.1803 0.38723-2.4728 0.86052-0.2925 0.47329-0.24406 1.1483 0.10765 1.5 0.35172 0.35171 2.9844 0.63948 5.8504 0.63948zm-84.033-1h3.2668l4.5551-3.6885-1.2707-3.3115h-8.0628l-4.1338 4.1338 2.3787 2.8662zm13.238-0.19521 4.75-0.30479-0.20491-2.8716c-0.1127-1.5794-0.41802-3.0847-0.67849-3.3452s-1.7936-0.18366-3.407 0.17069l-2.9334 0.64428-1.1381 2.4979c-0.62598 1.3739-1.1381 2.7264-1.1381 3.0057s2.1375 0.37058 4.75 0.20295zm53.564 0.19521c0.75702 0 2.1757-0.88324 3.1527-1.9628l1.7763-1.9628-0.58989-1.5372c-0.32445-0.84548-1.0042-1.5372-1.5105-1.5372s-1.9455 0.82991-3.1981 1.8442l-2.2776 1.8442 0.63538 1.6558 0.63537 1.6558zm787.39-2.6635c1.763-0.0899 3.6755-0.45396 4.25-0.80902l1.0445-0.64556v-4.6371l-2.5-1.9302-34.23-0.45479-0.54133 2.0701c-0.29773 1.1385-0.30913 2.958-0.0253 4.0433l0.516 1.9732 14.14 0.27679c7.7772 0.15223 15.583 0.20323 17.346 0.11333zm-107.71-0.98156c4.125-0.07976 8.0897-0.19226 8.8104-0.25l1.3104-0.10499-0.31036-3.75-0.31037-3.75-18-0.60473-11.5 5.4725v2.5368l6.25 0.29772c3.4375 0.16374 9.625 0.23246 13.75 0.1527zm27.5 0.40434c6.05 0.09868 11.788-0.06213 12.75-0.35734l1.75-0.53676v-6.8652h-30v6.8609l2.25 0.35951c1.2375 0.19773 7.2 0.44024 13.25 0.53892zm32.281 0.16173 13.281 0.07895 1.1529-3.0045-1.2742-5.0768-14.221 0.44621c-7.8214 0.24541-14.333 0.48871-14.471 0.54066s-0.25 1.407-0.25 3.0111v2.9167l1.25 0.50439c0.6875 0.27741 7.2266 0.53991 14.531 0.58333zm-128.96-1 12.32 0.078947-0.6391-4.4262-11.984-3.6402-14.516-1.227v8.1268l1.25 0.50439c0.6875 0.27741 6.7938 0.53991 13.57 0.58333zm31.347 0.078947h15.833v-8h-28.135l1.2807 4.0352-6.1792 2.5982 1.3666 1.3666zm-171.89-1.2035 2.7814 0.20354 1.2179-3.1739-4.7807-4.7234-9-0.11741c-4.95-0.06458-9.5625-0.08769-10.25-0.05136l-1.25 0.066053 0.0153 2.25c8e-3 1.2375 0.36025 2.7927 0.78185 3.456l0.76653 1.206 8.4682 0.34042c4.6575 0.18723 9.7198 0.43202 11.25 0.54397zm14.248 0.20354h8.5918l-0.31036-3.75-0.31037-3.75h-17l-0.32908 2.3227c-0.181 1.2775-0.0826 2.965 0.21861 3.75l0.5477 1.4273zm42.031 0h31.56l-0.31036-3.75-0.31037-3.75-62.5-0.52636v8.0264zm36.94 0h3.5v-0.69528c0-0.3824-1.2092-1.9574-2.6871-3.5-1.4779-1.5426-3.0529-2.8047-3.5-2.8047h-0.81291v7zm20.068 0h10.432v-6.0628l-1.25-0.38549c-0.6875-0.21202-6.3125-0.65588-12.5-0.98637l-11.25-0.60088v1.1134c0 0.61236 0.93064 2.4203 2.0681 4.0178l2.0681 2.9044zm-176.9-1.5h39.833v-7l-66.5-0.5c-36.575-0.275-69.338-0.34625-72.807-0.15833l-6.3065 0.34167 0.61304 6.3167 32.477 0.3103c17.862 0.17066 32.562 0.39566 32.667 0.5s18.115 0.1897 40.023 0.1897zm-182.63-1.1744c0.29274-0.09595 3.6677-0.22408 7.5-0.28474 3.8323-0.06066 11.918 0.12242 17.968 0.40686s11.788 0.26974 12.75-0.03265l1.75-0.54979v-5.8652l-1.75-0.12184c-0.9625-0.06701-7.825-0.24081-15.25-0.38622-7.425-0.14541-33.008-0.36054-56.85-0.47808l-43.35-0.2137-1.9985 1.9985 1.2532 3.9485 3.2227 0.48314c1.7725 0.26573 11.098 0.335 20.723 0.15393 9.625-0.18107 18.85-0.33443 20.5-0.3408 1.65-0.0064 9.75 0.31875 18 0.72249 8.25 0.40374 15.24 0.65558 15.532 0.55963zm58.65 0.32997 15.818-0.15552v-6l-10-1.1505-8.6986 2.6146-3.8695-2.0709-9.4139 0.6068-0.34357 1.8084c-0.18896 0.99463-0.11095 2.4146 0.17337 3.1555l0.51693 1.3471zm-211.74-1.8213 21.577 0.33421 2.6496-2.0842c1.4573-1.1463 2.9162-2.0842 3.2419-2.0842s0.59227 0.9 0.59227 2v2h43v-6.9098l-104 0.06752v2.8423h1.7775c0.97763 0 2.6651 0.6209 3.75 1.3798 1.0849 0.75888 2.8413 1.5464 3.9031 1.75 1.0618 0.20362 11.64 0.5206 23.508 0.70442zm-107.61-1.0851c3.9443 0.080787 7.959-0.085044 8.9215-0.36851l1.75-0.5154v-4.7949l-3.5-1.5704h-18l-0.31714 2.7574-0.31714 2.7574 2.1457 0.79374c1.1801 0.43656 5.3728 0.85983 9.3171 0.94062zm28.454 0.17192 3.2822 0.078947 0.83638-2.25c0.46001-1.2375 0.62236-2.8125 0.36079-3.5l-0.47559-1.25h-7.386l-1.2 1.2c-0.66 0.66-1.2 1.9725-1.2 2.9167v1.7167l1.25 0.50439c0.6875 0.27741 2.727 0.53991 4.5322 0.58333zm7.7597 0.078947c0.18035 0 1.5134-0.45072 2.9624-1.0016l2.6344-1.0016-0.63868-4.4968-4.3647-0.62137-1.0641 1.9882-1.0641 1.9882 0.6034 1.5724c0.33188 0.86484 0.75097 1.5724 0.93132 1.5724zm15.658 0h5.8v-2.9006l3.2808-1.836-0.69942-1.1317-0.69941-1.1317h-15.882v4.6l2.4 2.4zm-79.735-1h7.4648l1.0352-1.9343c0.56935-1.0638 1.0352-2.6388 1.0352-3.5v-1.5657h-14.93l-1.0352 1.9343c-0.56935 1.0638-1.0352 2.6388-1.0352 3.5v1.5657zm13.285-0.21222 1.75-0.35887-0.32587-2.957c-0.17923-1.6263-0.48679-3.1179-0.68347-3.3146s-0.83754-0.06098-1.4241 0.30155l-1.0665 0.65915v6.0286zm734.25-2.7878h7v-1.375c0-0.75625 0.28125-2.7812 0.625-4.5l0.625-3.125h-1.7243c-0.94835 0-4.3796 1.639-7.625 3.6421s-5.9007 4.0282-5.9007 4.5v0.85786zm-206.39-2h1.393v-1.5657c0-0.86116-0.46583-2.4362-1.0352-3.5-0.56935-1.0638-1.4694-1.9343-2-1.9343h-0.96482v1.9182c0 1.055 0.27314 2.63 0.60699 3.5l0.60699 1.5818zm-496.78-3.5792c0.73248-0.23142 1.745-0.42077 2.25-0.42077h0.91821v-4h-1.9182c-1.055 0-2.63 0.27314-3.5 0.60699l-1.5818 0.60699v1.3097c0 0.72032 0.5625 1.5365 1.25 1.8138s1.8493 0.31476 2.5818 0.08333zm231.23 112.58c-0.4502 0-1.4361-0.74723-2.191-1.6605l-1.3724-1.6605 0.6215-21.179 1.7399-3 1.7399-3 4.1442-0.60574 0.62583 1.6309 0.62583 1.6309-2.5658 7.672c-1.4112 4.2196-2.9855 8.0995-3.4985 8.622-0.51301 0.5225-0.93275 1.8849-0.93275 3.0275 0 1.1426 0.70107 3.0784 1.5579 4.3018l1.5579 2.2243-0.61695 0.99824c-0.33933 0.54904-0.9853 0.99825-1.4355 0.99825zm207.41 0h-1.5314l-1.1943-3.1124 1.787-6.231 2.4701-0.82336v10.167zm136.84-0.56351-1.3009 0.49921-1.586-2.4206-1.586-2.4206-0.16595-4.7973-0.16596-4.7973h2.918l0.67507 3.3008c0.3713 1.8154 0.97671 3.6024 1.3454 3.971l0.6703 0.67029 0.89651-1.4506c0.49308-0.79782 1.1674-3.0539 1.4985-5.0135l0.60194-3.5629 2.0446-1.2768c1.1245-0.70226 2.2772-1.0441 2.5616-0.75974s-0.43442 2.4827-1.5974 4.885c-1.163 2.4024-2.1145 4.9439-2.1145 5.6479s-0.76369 2.5728-1.6971 4.1529c-0.9334 1.5801-2.2825 3.0976-2.998 3.3721zm34.517 0.5482-2.6786 0.01531-3.1429-3.1429v-3.8794c0-2.1336 0.49807-6.264 1.1068-9.1786l1.1068-5.2992 2.5803-2.75c1.4192-1.5125 3.1711-2.75 3.8932-2.75h1.3129l-0.01 2.25c-5e-3 1.2375-1.0841 4.5574-2.3972 7.3775-1.3131 2.8201-2.8837 5.4342-3.4902 5.809l-1.1026 0.68155v4.984l3.75 1.5541c2.0625 0.85474 3.962 1.7562 4.221 2.0034s-0.19093 0.86792-1 1.3796-2.6764 0.93721-4.1496 0.94563zm-324.32-1.5911-5 0.64209-5-2.582-0.32021-2.7661-0.32021-2.7661 4.2741-8.8292 3.8484-1.2214 1.009 0.62357c0.55492 0.34296 1.009 1.4096 1.009 2.3703v1.7467l-5.0966 6.8886 3.4644 0.71748 1.1763-1.6087c0.64698-0.88481 1.4642-1.6087 1.8161-1.6087 0.35187 0 0.63976 0.675 0.63976 1.5v1.5h5.7551l2.4623 2.9668-2.3587 0.89232c-1.2973 0.49078-4.6087 1.1813-7.3587 1.5344zm171.66 0.60641c-0.94968 0-2.4848-0.75815-3.4115-1.6848l-1.6848-1.6848-5.1891 2.7771-0.86939-1.4067-0.86938-1.4067 0.56666-3.0471c0.31166-1.6759 0.97589-3.4933 1.4761-4.0387l0.9094-0.99164 1.4942 2.4177 5.7954-0.43438 4.4963 7.9026-0.49362 0.7987c-0.27149 0.43929-1.2706 0.7987-2.2203 0.7987zm37.828 0h-1.9374l-3.3299-5.082-4.7427 4.4556-2.3461-2.3461-0.0637-4.6645-0.0637-4.6645 2.6321-0.90906 0.55056 2.1054c0.30281 1.158 0.89993 2.1054 1.3269 2.1054s1.0354-0.675 1.352-1.5l0.5756-1.5h2.9178l4.9888 6.3745 1.6561-1.3744c0.91085-0.75594 2.7956-3.6527 4.1884-6.4372 1.3928-2.7845 3.4611-6.0753 4.5963-7.3128 1.1352-1.2375 2.6606-2.25 3.3897-2.25h1.3257v2.9539l-4.7186 3.0918-10.36 16.954zm101.43-0.20492-2.9279 0.29508-2.4902-2.4902v-5.4466l5.1778-6.1534h1.3521c0.74365 0 1.6404 0.46657 1.9929 1.0368l0.64079 1.0368-2.0379 3.9097-2.0379 3.9097 4.0223 1.2766-0.38205 1.1651-0.38206 1.1651zm69.272-0.16671-4.277 0.3563-3.1799-3.1799-4.3257 2.3151-6.4076-0.61982v-6.1854l-1.442-1.7411-1.442-1.7411 2.102-3.3324h4.782l-0.64436 9.2927 2.0838 1.2879 1.3922-3.2903c0.76574-1.8097 2.3807-4.1714 3.5888-5.2483l2.1966-1.958 1.6915 1.0924 1.6915 1.0924-0.11406 3.6156-0.11407 3.6156h0.86407c0.47523 0 0.86406-0.51289 0.86406-1.1398 0-0.62686 0.7875-1.7376 1.75-2.4682 0.9625-0.73065 2.0875-1.3428 2.5-1.3602s0.75 0.8682 0.75 1.9682v2h0.91659c0.50413 0 1.8174-1.2367 2.9185-2.7482s2.201-2.524 2.4442-2.25 0.7371 2.422 1.0974 4.7735l0.65503 4.2753-3.2336 1.2408-0.82286-1.3314-0.82286-1.3314-1.5926 1.3217-1.5926 1.3217zm177.56 0.29268-2.25 0.07895v-1.8571h-11.123l-2.8771-2.3878v-1.8776c0-1.0327-0.34987-1.8776-0.77749-1.8776-0.42763 0-1.8437 0.74678-3.1468 1.6595l-2.3693 1.6595-1.3532-1.8506c-0.74427-1.0178-1.3532-2.1801-1.3532-2.5828s1.1421-2.0894 2.538-3.7484l2.538-3.0162 6.3721-0.62105 1.526-4.3312 1.526-4.3312 3.2765-1.8119 2.4684 2.9743h-2.3555l-5.0301 10.987 0.32038 2.1604 0.32039 2.1604 3.033-2.5604c1.6682-1.4082 3.9182-2.715 5-2.904l1.967-0.34366-0.52152 8.3687 1.0108 0.62468c0.55592 0.34358 1.0108 1.4606 1.0108 2.4823v1.8576l2.5 1.0088zm45.14-1.0892c-1.5894-0.0925-4.684-0.35099-6.8771-0.57452-2.193-0.22352-4.5555-0.87798-5.25-1.4543s-1.2627-1.6823-1.2627-2.4577v-1.4098l4.5-1.714 3.5 3.0885v-1.0717c0-0.58941-0.5625-1.3391-1.25-1.6661l-1.25-0.59443 2.5 0.49744c1.375 0.27359 4.4125 0.50358 6.75 0.51109l4.25 0.01365-0.0318 1.75c-0.0175 0.9625-0.6296 2.5375-1.3602 3.5l-1.3284 1.75zm-616.41-2.0539-1.8911 1.181-0.7422-1.2009c-0.40821-0.6605-0.66058-2.5638-0.56082-4.2295l0.18138-3.0286-4.7178 5.7152-4.2533-1.35v-1.9678c0-1.0823 0.76698-3.1384 1.7044-4.569l1.7044-2.6012 6.5912-2.754v-6.9732h3v1.1347c0 0.62409-0.53236 4.0239-1.183 7.5552l-1.183 6.4205 3.241 5.4866zm-8.5564-5.778h1.4274l4.2887-5.4522-2.2865-0.76216-2.4285 2.2815c-1.3357 1.2548-2.4285 2.653-2.4285 3.1072 0 0.45413 0.64234 0.82569 1.4274 0.82569zm249.01 7c-0.72519 0-1.551-0.37606-1.835-0.83568-0.28406-0.45963-0.17358-2.1178 0.24551-3.6848s1.1874-2.9872 1.7075-3.1558l0.94548-0.30663 2.4688 5.3156-1.1069 1.3337c-0.60877 0.73353-1.7002 1.3337-2.4254 1.3337zm75.647 0c-0.4125 0-1.05-0.3-1.4167-0.66667-0.36667-0.36666-0.66667-1.9417-0.66667-3.5v-2.8333h2.7668l0.43733 2.2877c0.24053 1.2583 0.25549 2.8333 0.0332 3.5-0.22221 0.66674-0.74155 1.2123-1.154 1.2123zm159.37 0h-2.4044l-1.6585-2.5312-1.6585-2.5312 1.3619-1.3619 1.941 1.2121c1.0675 0.66668 2.6221 1.2122 3.4545 1.2122h1.5136l-0.0444-5.5-1.9556-2.5-1.9555-2.5-0.0222-3.0222-0.02227-3.0222 3.0728-3.7278 3.0728-3.7278h4.4544l1.2 1.2c0.66 0.66 1.2 1.5328 1.2 1.9396v0.73964l-7.5 0.62073 0.10901 3.693 0.109 3.693 1.7002 3.5828 1.7002 3.5829-0.6004 1.8917c-0.33022 1.0404-1.5145 3.0538-2.6318 4.4742l-2.0314 2.5825zm-505.2-1.3993-3.0037 0.60075-1.4385-2.3275 1.7298-1.9114c0.95142-1.0513 2.5111-2.1594 3.4659-2.4625l1.736-0.55099 5.2642 2.0014v4.0495h-2.375c-1.3062 0-3.7267 0.27033-5.3787 0.60074zm551.57 0.39926c-0.38524 0-0.97855-0.45-1.3185-1l-0.61803-1h-11.788l-5.0941-2.321v-2.1395c0-1.1767 0.55172-2.6912 1.226-3.3655l1.226-1.226 3.38 4.481 1.9536-2.4126 1.9536-2.4126 0.69768 2.1982c0.38373 1.209 1.0567 2.1982 1.4954 2.1982 0.43876 0 1.8709-0.79175 3.1826-1.7594l2.3849-1.7594 9 0.0542 0.32046 3.3276c0.17625 1.8302 0.0544 4.021-0.27085 4.8685l-0.59131 1.5409-3.8238-3.4605-1.3078 2.0941c-0.71929 1.1517-1.623 2.094-2.0082 2.094zm-108.51-1.0153-2.191 0.0153-0.71179-1.1517-0.71179-1.1517 1.8439-1.3483c1.0142-0.74156 2.672-1.3483 3.6842-1.3483h1.8403l0.61433 1.6009 0.61433 1.6009-1.3957 0.88376c-0.76765 0.48607-2.3817 0.89066-3.5867 0.89908zm15.412 0.01531h-2.4108l-1.5408-1.75-1.5408-1.75 2.477-9.5576 4.6432-4.9424h1.6257c0.89413 0 2.1657 0.54 2.8257 1.2s1.2 1.5443 1.2 1.9652c0 0.42087-1.3977 2.3571-3.106 4.3027l-3.106 3.5375 0.54478 1.4197 0.54479 1.4197 4.1223-1.078v3.1629l-1.9343 1.0352c-1.0638 0.56935-3.0191 1.0352-4.345 1.0352zm12.34 0h-1.8936l-0.44954-1.25c-0.24724-0.6875-0.2223-2.825 0.0554-4.75 0.27773-1.925 0.95223-4.068 1.4989-4.7623l0.99392-1.2623 1.3079 1.0854 1.3079 1.0854-1.2014 3.3538 5.1418-4.681 3.6784 0.70372 0.55814 3.4886 0.55814 3.4886-0.82339 1.7128-0.8234 1.7128-1.4847-0.56975-1.4847-0.56975v-3.786h-0.88499c-0.48674 0-1.6221 1.125-2.523 2.5l-1.6381 2.5zm51.852 0c-0.46331 0-1.3082-0.87042-1.8776-1.9343s-1.0352-3.5936-1.0352-5.6217v-3.6874l2.664-6.8205 2.664-6.8205 5.395 1.079 6.6475-3.4375 10.816-0.96224-0.34308 1.7303-0.34308 1.7302-7 2.7525c-3.85 1.5139-8.4389 3.5026-10.198 4.4194l-3.1976 1.6669-0.47768 1.7029c-0.26273 0.93661-0.49586 3.8882-0.51808 6.559l-0.0404 4.8561-1.1568 1.3939c-0.63623 0.76663-1.5359 1.3939-1.9992 1.3939zm46.137 0c-0.94419 0-2.0167-0.3-2.3834-0.66667-0.36667-0.36666-0.66667-1.5058-0.66667-2.5314v-1.8647l3.0255-1.161 1.384 1.1486 1.384 1.1486-0.5134 1.9632-0.51339 1.9632zm-127.61-34.6-2.0554 0.61079-4.4908-4.1838 2.1799-2.6266 7.4218 0.96997 6.5-2.9556c3.575-1.6256 8.9077-4.589 11.85-6.5854s5.7553-3.6298 6.25-3.6298 0.89951 0.42204 0.89951 0.93786c0 0.51583-2.025 2.3921-4.5 4.1695l-4.5 3.2317v2.4653l-2.75 1.0345c-1.5125 0.56896-5.45 2.1407-8.75 3.4927s-6.9249 2.733-8.0554 3.069zm-55.465-4.8316-4.5208 0.23097-3.7388-1.2853c-2.0563-0.70692-4.522-1.8994-5.4793-2.6499-0.95728-0.75052-2.0711-1.8146-2.4752-2.3646s-0.74158-2.2375-0.75-3.75l-0.01531-2.75h1.0214c0.56179 0 1.5384 1.1347 2.1704 2.5216l1.1489 2.5216 5.1186 1.488c2.8152 0.81841 7.801 1.8383 11.08 2.2665l5.9611 0.77851-4.9998 2.7617zm-103.52-5.7766c-1.1226 0.1607-2.3601-0.0268-2.75-0.41666-0.38987-0.38987-0.70885-1.5637-0.70885-2.6086v-1.8998l5.5 0.63284v4zm149.48-77.792h-1.8952l-1.606-2.451-1.606-2.451 1.3006-4.0979h5.5552l3.31 3.6575v4.1285l-1.5818 0.60699c-0.86998 0.33384-2.4346 0.60699-3.4769 0.60699z"/>
</svg>
